<svg xmlns="http://www.w3.org/2000/svg" xmlns:xlink="http://www.w3.org/1999/xlink" width="384" height="384" version="1.1" viewBox="0 0 288 288"><defs><style type="text/css">*{stroke-linecap:butt;stroke-linejoin:round}</style></defs><g id="figure_1"><g id="patch_1"><path d="M 0 288 L 288 288 L 288 0 L 0 0 z" style="fill:#fff"/></g><g id="axes_1"><g id="patch_2"><path d="M 36 256.32 L 214.56 256.32 L 214.56 34.56 L 36 34.56 z" style="fill:#fff"/></g><g id="PathCollection_1"><defs><path id="C0_0_80e203c984" d="M 0 3 C 0.795609 3 1.55874 2.683901 2.12132 2.12132 C 2.683901 1.55874 3 0.795609 3 0 C 3 -0.795609 2.683901 -1.55874 2.12132 -2.12132 C 1.55874 -2.683901 0.795609 -3 0 -3 C -0.795609 -3 -1.55874 -2.683901 -2.12132 -2.12132 C -2.683901 -1.55874 -3 -0.795609 -3 0 C -3 0.795609 -2.683901 1.55874 -2.12132 2.12132 C -1.55874 2.683901 -0.795609 3 0 3 z"/></defs><g clip-path="url(#pedc6380464)"><use style="fill:#6d009c;stroke:#000" x="149.904" y="192.075" xlink:href="#C0_0_80e203c984"/></g><g clip-path="url(#pedc6380464)"><use style="fill:#002fdd;stroke:#000" x="142.03" y="206.579" xlink:href="#C0_0_80e203c984"/></g><g clip-path="url(#pedc6380464)"><use style="fill:#002fdd;stroke:#000" x="148.116" y="191.483" xlink:href="#C0_0_80e203c984"/></g><g clip-path="url(#pedc6380464)"><use style="fill:#002fdd;stroke:#000" x="177.092" y="210.774" xlink:href="#C0_0_80e203c984"/></g><g clip-path="url(#pedc6380464)"><use style="stroke:#000" x="138.846" y="169.402" xlink:href="#C0_0_80e203c984"/></g><g clip-path="url(#pedc6380464)"><use style="fill:#e40000;stroke:#000" x="165.355" y="204.827" xlink:href="#C0_0_80e203c984"/></g><g clip-path="url(#pedc6380464)"><use style="fill:#6d009c;stroke:#000" x="71.55" y="116.729" xlink:href="#C0_0_80e203c984"/></g><g clip-path="url(#pedc6380464)"><use style="fill:#002fdd;stroke:#000" x="150.386" y="169.498" xlink:href="#C0_0_80e203c984"/></g><g clip-path="url(#pedc6380464)"><use style="fill:#00e200;stroke:#000" x="153.051" y="232.001" xlink:href="#C0_0_80e203c984"/></g><g clip-path="url(#pedc6380464)"><use style="fill:#ccc;stroke:#000" x="176.958" y="233.619" xlink:href="#C0_0_80e203c984"/></g><g clip-path="url(#pedc6380464)"><use style="fill:#002fdd;stroke:#000" x="170.026" y="226.226" xlink:href="#C0_0_80e203c984"/></g><g clip-path="url(#pedc6380464)"><use style="fill:#002fdd;stroke:#000" x="163.137" y="215.75" xlink:href="#C0_0_80e203c984"/></g><g clip-path="url(#pedc6380464)"><use style="stroke:#000" x="118.993" y="144.324" xlink:href="#C0_0_80e203c984"/></g><g clip-path="url(#pedc6380464)"><use style="fill:#ccc;stroke:#000" x="124.923" y="141.589" xlink:href="#C0_0_80e203c984"/></g><g clip-path="url(#pedc6380464)"><use style="fill:#002fdd;stroke:#000" x="146.122" y="164.287" xlink:href="#C0_0_80e203c984"/></g><g clip-path="url(#pedc6380464)"><use style="fill:#009b13;stroke:#000" x="148.449" y="212.361" xlink:href="#C0_0_80e203c984"/></g><g clip-path="url(#pedc6380464)"><use style="fill:#002fdd;stroke:#000" x="145.475" y="190.511" xlink:href="#C0_0_80e203c984"/></g><g clip-path="url(#pedc6380464)"><use style="stroke:#000" x="141.929" y="179.007" xlink:href="#C0_0_80e203c984"/></g><g clip-path="url(#pedc6380464)"><use style="fill:#6d009c;stroke:#000" x="151.777" y="196.068" xlink:href="#C0_0_80e203c984"/></g><g clip-path="url(#pedc6380464)"><use style="fill:#6d009c;stroke:#000" x="143.83" y="177.128" xlink:href="#C0_0_80e203c984"/></g><g clip-path="url(#pedc6380464)"><use style="stroke:#000" x="188.804" y="151.551" xlink:href="#C0_0_80e203c984"/></g><g clip-path="url(#pedc6380464)"><use style="fill:#002fdd;stroke:#000" x="165.072" y="195.577" xlink:href="#C0_0_80e203c984"/></g><g clip-path="url(#pedc6380464)"><use style="fill:#6d009c;stroke:#000" x="101.765" y="137.727" xlink:href="#C0_0_80e203c984"/></g><g clip-path="url(#pedc6380464)"><use style="fill:#ccc;stroke:#000" x="111.844" y="150.356" xlink:href="#C0_0_80e203c984"/></g><g clip-path="url(#pedc6380464)"><use style="stroke:#000" x="163.475" y="170.857" xlink:href="#C0_0_80e203c984"/></g><g clip-path="url(#pedc6380464)"><use style="fill:#00a4bb;stroke:#000" x="159" y="204.102" xlink:href="#C0_0_80e203c984"/></g><g clip-path="url(#pedc6380464)"><use style="fill:#009b13;stroke:#000" x="159.284" y="214.478" xlink:href="#C0_0_80e203c984"/></g><g clip-path="url(#pedc6380464)"><use style="fill:#009b13;stroke:#000" x="152.527" y="184.74" xlink:href="#C0_0_80e203c984"/></g><g clip-path="url(#pedc6380464)"><use style="fill:#002fdd;stroke:#000" x="139.08" y="172.564" xlink:href="#C0_0_80e203c984"/></g><g clip-path="url(#pedc6380464)"><use style="fill:#009b13;stroke:#000" x="149.494" y="214.812" xlink:href="#C0_0_80e203c984"/></g><g clip-path="url(#pedc6380464)"><use style="fill:#ffad00;stroke:#000" x="119.45" y="135.339" xlink:href="#C0_0_80e203c984"/></g><g clip-path="url(#pedc6380464)"><use style="fill:#002fdd;stroke:#000" x="141.882" y="182.303" xlink:href="#C0_0_80e203c984"/></g><g clip-path="url(#pedc6380464)"><use style="fill:#ccc;stroke:#000" x="155.337" y="210.13" xlink:href="#C0_0_80e203c984"/></g><g clip-path="url(#pedc6380464)"><use style="stroke:#000" x="123.399" y="138.916" xlink:href="#C0_0_80e203c984"/></g><g clip-path="url(#pedc6380464)"><use style="fill:#6d009c;stroke:#000" x="153.603" y="199.191" xlink:href="#C0_0_80e203c984"/></g><g clip-path="url(#pedc6380464)"><use style="fill:#6d009c;stroke:#000" x="114.006" y="141.019" xlink:href="#C0_0_80e203c984"/></g><g clip-path="url(#pedc6380464)"><use style="fill:#ffad00;stroke:#000" x="126.75" y="123.002" xlink:href="#C0_0_80e203c984"/></g><g clip-path="url(#pedc6380464)"><use style="fill:#e40000;stroke:#000" x="130.651" y="173.559" xlink:href="#C0_0_80e203c984"/></g><g clip-path="url(#pedc6380464)"><use style="fill:#002fdd;stroke:#000" x="145.215" y="149.154" xlink:href="#C0_0_80e203c984"/></g><g clip-path="url(#pedc6380464)"><use style="fill:#e40000;stroke:#000" x="104.388" y="153.211" xlink:href="#C0_0_80e203c984"/></g><g clip-path="url(#pedc6380464)"><use style="fill:#6d009c;stroke:#000" x="136.377" y="160.589" xlink:href="#C0_0_80e203c984"/></g><g clip-path="url(#pedc6380464)"><use style="fill:#6d009c;stroke:#000" x="152.548" y="193.54" xlink:href="#C0_0_80e203c984"/></g><g clip-path="url(#pedc6380464)"><use style="fill:#002fdd;stroke:#000" x="131.223" y="161.481" xlink:href="#C0_0_80e203c984"/></g><g clip-path="url(#pedc6380464)"><use style="fill:#6d009c;stroke:#000" x="139.788" y="161.583" xlink:href="#C0_0_80e203c984"/></g><g clip-path="url(#pedc6380464)"><use style="fill:#6d009c;stroke:#000" x="134.654" y="153.956" xlink:href="#C0_0_80e203c984"/></g><g clip-path="url(#pedc6380464)"><use style="fill:#002fdd;stroke:#000" x="122.362" y="216.344" xlink:href="#C0_0_80e203c984"/></g><g clip-path="url(#pedc6380464)"><use style="fill:#6d009c;stroke:#000" x="124.045" y="148.699" xlink:href="#C0_0_80e203c984"/></g><g clip-path="url(#pedc6380464)"><use style="fill:#6d009c;stroke:#000" x="152.645" y="174.575" xlink:href="#C0_0_80e203c984"/></g><g clip-path="url(#pedc6380464)"><use style="fill:#00e200;stroke:#000" x="131.204" y="194.736" xlink:href="#C0_0_80e203c984"/></g><g clip-path="url(#pedc6380464)"><use style="stroke:#000" x="155.042" y="195.888" xlink:href="#C0_0_80e203c984"/></g><g clip-path="url(#pedc6380464)"><use style="fill:#6d009c;stroke:#000" x="165.625" y="227.837" xlink:href="#C0_0_80e203c984"/></g><g clip-path="url(#pedc6380464)"><use style="fill:#e40000;stroke:#000" x="160.541" y="194.494" xlink:href="#C0_0_80e203c984"/></g><g clip-path="url(#pedc6380464)"><use style="fill:#002fdd;stroke:#000" x="98.069" y="123.995" xlink:href="#C0_0_80e203c984"/></g><g clip-path="url(#pedc6380464)"><use style="fill:#002fdd;stroke:#000" x="166.79" y="225.607" xlink:href="#C0_0_80e203c984"/></g><g clip-path="url(#pedc6380464)"><use style="stroke:#000" x="156.118" y="200.091" xlink:href="#C0_0_80e203c984"/></g><g clip-path="url(#pedc6380464)"><use style="fill:#6d009c;stroke:#000" x="119.694" y="155.619" xlink:href="#C0_0_80e203c984"/></g><g clip-path="url(#pedc6380464)"><use style="stroke:#000" x="137.904" y="189.379" xlink:href="#C0_0_80e203c984"/></g><g clip-path="url(#pedc6380464)"><use style="fill:#ffad00;stroke:#000" x="124.58" y="129.705" xlink:href="#C0_0_80e203c984"/></g><g clip-path="url(#pedc6380464)"><use style="fill:#002fdd;stroke:#000" x="131.443" y="168.49" xlink:href="#C0_0_80e203c984"/></g><g clip-path="url(#pedc6380464)"><use style="fill:#ffad00;stroke:#000" x="136.161" y="144.835" xlink:href="#C0_0_80e203c984"/></g><g clip-path="url(#pedc6380464)"><use style="stroke:#000" x="120.918" y="144.605" xlink:href="#C0_0_80e203c984"/></g><g clip-path="url(#pedc6380464)"><use style="fill:#ccf900;stroke:#000" x="188.148" y="236.491" xlink:href="#C0_0_80e203c984"/></g><g clip-path="url(#pedc6380464)"><use style="stroke:#000" x="159.338" y="196.438" xlink:href="#C0_0_80e203c984"/></g><g clip-path="url(#pedc6380464)"><use style="fill:#002fdd;stroke:#000" x="143.807" y="189.695" xlink:href="#C0_0_80e203c984"/></g><g clip-path="url(#pedc6380464)"><use style="stroke:#000" x="143.635" y="179.852" xlink:href="#C0_0_80e203c984"/></g><g clip-path="url(#pedc6380464)"><use style="fill:#6d009c;stroke:#000" x="142.162" y="172.514" xlink:href="#C0_0_80e203c984"/></g><g clip-path="url(#pedc6380464)"><use style="fill:#002fdd;stroke:#000" x="133.917" y="157.887" xlink:href="#C0_0_80e203c984"/></g><g clip-path="url(#pedc6380464)"><use style="fill:#ffad00;stroke:#000" x="119.004" y="130.189" xlink:href="#C0_0_80e203c984"/></g><g clip-path="url(#pedc6380464)"><use style="fill:#002fdd;stroke:#000" x="142.846" y="209.891" xlink:href="#C0_0_80e203c984"/></g><g clip-path="url(#pedc6380464)"><use style="stroke:#000" x="141.5" y="169.651" xlink:href="#C0_0_80e203c984"/></g><g clip-path="url(#pedc6380464)"><use style="fill:#009b13;stroke:#000" x="99.893" y="119.884" xlink:href="#C0_0_80e203c984"/></g><g clip-path="url(#pedc6380464)"><use style="fill:#6d009c;stroke:#000" x="90.027" y="117.615" xlink:href="#C0_0_80e203c984"/></g><g clip-path="url(#pedc6380464)"><use style="stroke:#000" x="143.56" y="170.68" xlink:href="#C0_0_80e203c984"/></g><g clip-path="url(#pedc6380464)"><use style="fill:#009b13;stroke:#000" x="161.808" y="234.621" xlink:href="#C0_0_80e203c984"/></g><g clip-path="url(#pedc6380464)"><use style="fill:#6d009c;stroke:#000" x="141.614" y="168.273" xlink:href="#C0_0_80e203c984"/></g><g clip-path="url(#pedc6380464)"><use style="fill:#002fdd;stroke:#000" x="146.594" y="184.932" xlink:href="#C0_0_80e203c984"/></g><g clip-path="url(#pedc6380464)"><use style="fill:#6d009c;stroke:#000" x="152.752" y="202.497" xlink:href="#C0_0_80e203c984"/></g><g clip-path="url(#pedc6380464)"><use style="fill:#002fdd;stroke:#000" x="104.92" y="134.934" xlink:href="#C0_0_80e203c984"/></g><g clip-path="url(#pedc6380464)"><use style="stroke:#000" x="159.553" y="204.755" xlink:href="#C0_0_80e203c984"/></g><g clip-path="url(#pedc6380464)"><use style="fill:#6d009c;stroke:#000" x="116.145" y="139.399" xlink:href="#C0_0_80e203c984"/></g><g clip-path="url(#pedc6380464)"><use style="fill:#002fdd;stroke:#000" x="97.37" y="44.64" xlink:href="#C0_0_80e203c984"/></g><g clip-path="url(#pedc6380464)"><use style="fill:#6d009c;stroke:#000" x="136.32" y="159.8" xlink:href="#C0_0_80e203c984"/></g><g clip-path="url(#pedc6380464)"><use style="fill:#6d009c;stroke:#000" x="150.309" y="194.855" xlink:href="#C0_0_80e203c984"/></g><g clip-path="url(#pedc6380464)"><use style="fill:#002fdd;stroke:#000" x="140.515" y="161.649" xlink:href="#C0_0_80e203c984"/></g><g clip-path="url(#pedc6380464)"><use style="fill:#002fdd;stroke:#000" x="107.853" y="128.44" xlink:href="#C0_0_80e203c984"/></g><g clip-path="url(#pedc6380464)"><use style="fill:#6d009c;stroke:#000" x="81.804" y="118.584" xlink:href="#C0_0_80e203c984"/></g><g clip-path="url(#pedc6380464)"><use style="fill:#ffad00;stroke:#000" x="122.843" y="191.141" xlink:href="#C0_0_80e203c984"/></g><g clip-path="url(#pedc6380464)"><use style="fill:#002fdd;stroke:#000" x="71.685" y="105.21" xlink:href="#C0_0_80e203c984"/></g><g clip-path="url(#pedc6380464)"><use style="fill:#6d009c;stroke:#000" x="157.285" y="188.423" xlink:href="#C0_0_80e203c984"/></g><g clip-path="url(#pedc6380464)"><use style="fill:#ccf900;stroke:#000" x="141.169" y="223.343" xlink:href="#C0_0_80e203c984"/></g><g clip-path="url(#pedc6380464)"><use style="fill:#6d009c;stroke:#000" x="44.116" y="84.932" xlink:href="#C0_0_80e203c984"/></g><g clip-path="url(#pedc6380464)"><use style="fill:#002fdd;stroke:#000" x="112.756" y="154.256" xlink:href="#C0_0_80e203c984"/></g><g clip-path="url(#pedc6380464)"><use style="stroke:#000" x="123.536" y="143.25" xlink:href="#C0_0_80e203c984"/></g><g clip-path="url(#pedc6380464)"><use style="fill:#002fdd;stroke:#000" x="136.218" y="166.318" xlink:href="#C0_0_80e203c984"/></g><g clip-path="url(#pedc6380464)"><use style="fill:#002fdd;stroke:#000" x="95.148" y="125.285" xlink:href="#C0_0_80e203c984"/></g><g clip-path="url(#pedc6380464)"><use style="fill:#002fdd;stroke:#000" x="154.499" y="188.894" xlink:href="#C0_0_80e203c984"/></g><g clip-path="url(#pedc6380464)"><use style="stroke:#000" x="134.844" y="188.224" xlink:href="#C0_0_80e203c984"/></g><g clip-path="url(#pedc6380464)"><use style="fill:#ffad00;stroke:#000" x="151.753" y="176.182" xlink:href="#C0_0_80e203c984"/></g><g clip-path="url(#pedc6380464)"><use style="fill:#6d009c;stroke:#000" x="160.141" y="214.947" xlink:href="#C0_0_80e203c984"/></g><g clip-path="url(#pedc6380464)"><use style="fill:#002fdd;stroke:#000" x="147.622" y="172.876" xlink:href="#C0_0_80e203c984"/></g><g clip-path="url(#pedc6380464)"><use style="fill:#002fdd;stroke:#000" x="139.595" y="173.362" xlink:href="#C0_0_80e203c984"/></g><g clip-path="url(#pedc6380464)"><use style="fill:#002fdd;stroke:#000" x="118.062" y="165.356" xlink:href="#C0_0_80e203c984"/></g><g clip-path="url(#pedc6380464)"><use style="fill:#6d009c;stroke:#000" x="155.622" y="204.544" xlink:href="#C0_0_80e203c984"/></g><g clip-path="url(#pedc6380464)"><use style="fill:#002fdd;stroke:#000" x="145.709" y="165.795" xlink:href="#C0_0_80e203c984"/></g><g clip-path="url(#pedc6380464)"><use style="fill:#ccf900;stroke:#000" x="176.227" y="231.222" xlink:href="#C0_0_80e203c984"/></g><g clip-path="url(#pedc6380464)"><use style="fill:#6d009c;stroke:#000" x="158.238" y="176.809" xlink:href="#C0_0_80e203c984"/></g><g clip-path="url(#pedc6380464)"><use style="fill:#ffad00;stroke:#000" x="142.436" y="147.812" xlink:href="#C0_0_80e203c984"/></g><g clip-path="url(#pedc6380464)"><use style="fill:#6d009c;stroke:#000" x="170.472" y="213.697" xlink:href="#C0_0_80e203c984"/></g><g clip-path="url(#pedc6380464)"><use style="stroke:#000" x="137.445" y="180.161" xlink:href="#C0_0_80e203c984"/></g><g clip-path="url(#pedc6380464)"><use style="fill:#002fdd;stroke:#000" x="135.939" y="160.414" xlink:href="#C0_0_80e203c984"/></g><g clip-path="url(#pedc6380464)"><use style="fill:#6d009c;stroke:#000" x="140.111" y="168.248" xlink:href="#C0_0_80e203c984"/></g><g clip-path="url(#pedc6380464)"><use style="fill:#002fdd;stroke:#000" x="86.563" y="128.978" xlink:href="#C0_0_80e203c984"/></g><g clip-path="url(#pedc6380464)"><use style="stroke:#000" x="130.747" y="204.416" xlink:href="#C0_0_80e203c984"/></g><g clip-path="url(#pedc6380464)"><use style="fill:#002fdd;stroke:#000" x="88.153" y="96.375" xlink:href="#C0_0_80e203c984"/></g><g clip-path="url(#pedc6380464)"><use style="fill:#002fdd;stroke:#000" x="176.121" y="183.011" xlink:href="#C0_0_80e203c984"/></g><g clip-path="url(#pedc6380464)"><use style="fill:#6d009c;stroke:#000" x="165.273" y="218.951" xlink:href="#C0_0_80e203c984"/></g><g clip-path="url(#pedc6380464)"><use style="fill:#002fdd;stroke:#000" x="164.383" y="208.576" xlink:href="#C0_0_80e203c984"/></g><g clip-path="url(#pedc6380464)"><use style="stroke:#000" x="126.055" y="141.243" xlink:href="#C0_0_80e203c984"/></g><g clip-path="url(#pedc6380464)"><use style="stroke:#000" x="147.973" y="207.99" xlink:href="#C0_0_80e203c984"/></g><g clip-path="url(#pedc6380464)"><use style="fill:#6d009c;stroke:#000" x="155.541" y="201.221" xlink:href="#C0_0_80e203c984"/></g><g clip-path="url(#pedc6380464)"><use style="fill:#002fdd;stroke:#000" x="86.185" y="76.643" xlink:href="#C0_0_80e203c984"/></g><g clip-path="url(#pedc6380464)"><use style="fill:#6d009c;stroke:#000" x="138.067" y="161.235" xlink:href="#C0_0_80e203c984"/></g><g clip-path="url(#pedc6380464)"><use style="fill:#002fdd;stroke:#000" x="136.362" y="173.511" xlink:href="#C0_0_80e203c984"/></g><g clip-path="url(#pedc6380464)"><use style="fill:#ffad00;stroke:#000" x="126.268" y="130.439" xlink:href="#C0_0_80e203c984"/></g><g clip-path="url(#pedc6380464)"><use style="fill:#6d009c;stroke:#000" x="147.057" y="153.076" xlink:href="#C0_0_80e203c984"/></g><g clip-path="url(#pedc6380464)"><use style="fill:#6d009c;stroke:#000" x="153.527" y="196.982" xlink:href="#C0_0_80e203c984"/></g><g clip-path="url(#pedc6380464)"><use style="fill:#009b13;stroke:#000" x="157.663" y="167.158" xlink:href="#C0_0_80e203c984"/></g><g clip-path="url(#pedc6380464)"><use style="stroke:#000" x="158.098" y="204.62" xlink:href="#C0_0_80e203c984"/></g><g clip-path="url(#pedc6380464)"><use style="fill:#6d009c;stroke:#000" x="149.79" y="186.725" xlink:href="#C0_0_80e203c984"/></g><g clip-path="url(#pedc6380464)"><use style="fill:#002fdd;stroke:#000" x="98.618" y="109.27" xlink:href="#C0_0_80e203c984"/></g><g clip-path="url(#pedc6380464)"><use style="stroke:#000" x="168.821" y="160.078" xlink:href="#C0_0_80e203c984"/></g><g clip-path="url(#pedc6380464)"><use style="fill:#002fdd;stroke:#000" x="133.34" y="199.82" xlink:href="#C0_0_80e203c984"/></g><g clip-path="url(#pedc6380464)"><use style="fill:#6d009c;stroke:#000" x="141.476" y="198.121" xlink:href="#C0_0_80e203c984"/></g><g clip-path="url(#pedc6380464)"><use style="stroke:#000" x="137.842" y="174.484" xlink:href="#C0_0_80e203c984"/></g><g clip-path="url(#pedc6380464)"><use style="fill:#00a4bb;stroke:#000" x="115.9" y="159.603" xlink:href="#C0_0_80e203c984"/></g><g clip-path="url(#pedc6380464)"><use style="fill:#002fdd;stroke:#000" x="121.474" y="158.429" xlink:href="#C0_0_80e203c984"/></g><g clip-path="url(#pedc6380464)"><use style="stroke:#000" x="144.499" y="177.522" xlink:href="#C0_0_80e203c984"/></g><g clip-path="url(#pedc6380464)"><use style="fill:#002fdd;stroke:#000" x="142.043" y="162.963" xlink:href="#C0_0_80e203c984"/></g><g clip-path="url(#pedc6380464)"><use style="stroke:#000" x="130.087" y="152.237" xlink:href="#C0_0_80e203c984"/></g><g clip-path="url(#pedc6380464)"><use style="fill:#6d009c;stroke:#000" x="137.43" y="163.003" xlink:href="#C0_0_80e203c984"/></g><g clip-path="url(#pedc6380464)"><use style="fill:#002fdd;stroke:#000" x="100.657" y="146.206" xlink:href="#C0_0_80e203c984"/></g><g clip-path="url(#pedc6380464)"><use style="fill:#ffad00;stroke:#000" x="147.269" y="178.844" xlink:href="#C0_0_80e203c984"/></g><g clip-path="url(#pedc6380464)"><use style="fill:#002fdd;stroke:#000" x="161.286" y="216.632" xlink:href="#C0_0_80e203c984"/></g><g clip-path="url(#pedc6380464)"><use style="stroke:#000" x="137.499" y="133.223" xlink:href="#C0_0_80e203c984"/></g><g clip-path="url(#pedc6380464)"><use style="fill:#6d009c;stroke:#000" x="152.977" y="197.256" xlink:href="#C0_0_80e203c984"/></g><g clip-path="url(#pedc6380464)"><use style="fill:#ccf900;stroke:#000" x="206.444" y="240.766" xlink:href="#C0_0_80e203c984"/></g><g clip-path="url(#pedc6380464)"><use style="fill:#002fdd;stroke:#000" x="146.516" y="130.487" xlink:href="#C0_0_80e203c984"/></g><g clip-path="url(#pedc6380464)"><use style="fill:#6d009c;stroke:#000" x="161.914" y="201.588" xlink:href="#C0_0_80e203c984"/></g><g clip-path="url(#pedc6380464)"><use style="fill:#6d009c;stroke:#000" x="151.067" y="195.491" xlink:href="#C0_0_80e203c984"/></g><g clip-path="url(#pedc6380464)"><use style="fill:#6d009c;stroke:#000" x="150.919" y="197.227" xlink:href="#C0_0_80e203c984"/></g><g clip-path="url(#pedc6380464)"><use style="fill:#6d009c;stroke:#000" x="168.04" y="239.808" xlink:href="#C0_0_80e203c984"/></g><g clip-path="url(#pedc6380464)"><use style="fill:#009b13;stroke:#000" x="151.097" y="227.202" xlink:href="#C0_0_80e203c984"/></g><g clip-path="url(#pedc6380464)"><use style="fill:#009b13;stroke:#000" x="141.463" y="203.533" xlink:href="#C0_0_80e203c984"/></g><g clip-path="url(#pedc6380464)"><use style="fill:#6d009c;stroke:#000" x="120.425" y="140.889" xlink:href="#C0_0_80e203c984"/></g><g clip-path="url(#pedc6380464)"><use style="fill:#6d009c;stroke:#000" x="112.494" y="170.129" xlink:href="#C0_0_80e203c984"/></g><g clip-path="url(#pedc6380464)"><use style="fill:#002fdd;stroke:#000" x="96.807" y="126.883" xlink:href="#C0_0_80e203c984"/></g><g clip-path="url(#pedc6380464)"><use style="fill:#6d009c;stroke:#000" x="165.325" y="224.743" xlink:href="#C0_0_80e203c984"/></g><g clip-path="url(#pedc6380464)"><use style="fill:#009b13;stroke:#000" x="136.309" y="180.788" xlink:href="#C0_0_80e203c984"/></g><g clip-path="url(#pedc6380464)"><use style="fill:#002fdd;stroke:#000" x="109.731" y="133.937" xlink:href="#C0_0_80e203c984"/></g><g clip-path="url(#pedc6380464)"><use style="fill:#002fdd;stroke:#000" x="102.757" y="109.363" xlink:href="#C0_0_80e203c984"/></g><g clip-path="url(#pedc6380464)"><use style="fill:#6d009c;stroke:#000" x="130.347" y="155.157" xlink:href="#C0_0_80e203c984"/></g><g clip-path="url(#pedc6380464)"><use style="fill:#6d009c;stroke:#000" x="123.753" y="143.951" xlink:href="#C0_0_80e203c984"/></g><g clip-path="url(#pedc6380464)"><use style="fill:#002fdd;stroke:#000" x="134.381" y="157.536" xlink:href="#C0_0_80e203c984"/></g><g clip-path="url(#pedc6380464)"><use style="fill:#ccf900;stroke:#000" x="162.263" y="240.409" xlink:href="#C0_0_80e203c984"/></g><g clip-path="url(#pedc6380464)"><use style="fill:#00a4bb;stroke:#000" x="144.053" y="219.511" xlink:href="#C0_0_80e203c984"/></g><g clip-path="url(#pedc6380464)"><use style="fill:#002fdd;stroke:#000" x="132.424" y="131.585" xlink:href="#C0_0_80e203c984"/></g><g clip-path="url(#pedc6380464)"><use style="fill:#002fdd;stroke:#000" x="153.577" y="194.584" xlink:href="#C0_0_80e203c984"/></g><g clip-path="url(#pedc6380464)"><use style="fill:#6d009c;stroke:#000" x="141.996" y="177.783" xlink:href="#C0_0_80e203c984"/></g><g clip-path="url(#pedc6380464)"><use style="fill:#ffad00;stroke:#000" x="138.696" y="163.577" xlink:href="#C0_0_80e203c984"/></g><g clip-path="url(#pedc6380464)"><use style="fill:#e40000;stroke:#000" x="134.885" y="142.277" xlink:href="#C0_0_80e203c984"/></g><g clip-path="url(#pedc6380464)"><use style="fill:#6d009c;stroke:#000" x="141.783" y="165.758" xlink:href="#C0_0_80e203c984"/></g><g clip-path="url(#pedc6380464)"><use style="fill:#6d009c;stroke:#000" x="144.136" y="175.34" xlink:href="#C0_0_80e203c984"/></g><g clip-path="url(#pedc6380464)"><use style="fill:#00a4bb;stroke:#000" x="131.072" y="96.924" xlink:href="#C0_0_80e203c984"/></g><g clip-path="url(#pedc6380464)"><use style="fill:#ffad00;stroke:#000" x="117.277" y="146.715" xlink:href="#C0_0_80e203c984"/></g><g clip-path="url(#pedc6380464)"><use style="fill:#002fdd;stroke:#000" x="154.437" y="184.383" xlink:href="#C0_0_80e203c984"/></g><g clip-path="url(#pedc6380464)"><use style="fill:#009b13;stroke:#000" x="153.055" y="159.812" xlink:href="#C0_0_80e203c984"/></g><g clip-path="url(#pedc6380464)"><use style="fill:#009b13;stroke:#000" x="139.914" y="232.193" xlink:href="#C0_0_80e203c984"/></g><g clip-path="url(#pedc6380464)"><use style="fill:#ffad00;stroke:#000" x="116.263" y="163.555" xlink:href="#C0_0_80e203c984"/></g><g clip-path="url(#pedc6380464)"><use style="fill:#ccc;stroke:#000" x="114.562" y="189.859" xlink:href="#C0_0_80e203c984"/></g><g clip-path="url(#pedc6380464)"><use style="stroke:#000" x="111.649" y="108.865" xlink:href="#C0_0_80e203c984"/></g><g clip-path="url(#pedc6380464)"><use style="fill:#e40000;stroke:#000" x="157.117" y="183.328" xlink:href="#C0_0_80e203c984"/></g><g clip-path="url(#pedc6380464)"><use style="fill:#6d009c;stroke:#000" x="148.06" y="185.291" xlink:href="#C0_0_80e203c984"/></g><g clip-path="url(#pedc6380464)"><use style="fill:#002fdd;stroke:#000" x="103.207" y="124.441" xlink:href="#C0_0_80e203c984"/></g><g clip-path="url(#pedc6380464)"><use style="fill:#009b13;stroke:#000" x="171.708" y="200.609" xlink:href="#C0_0_80e203c984"/></g><g clip-path="url(#pedc6380464)"><use style="fill:#e40000;stroke:#000" x="96.1" y="140.947" xlink:href="#C0_0_80e203c984"/></g><g clip-path="url(#pedc6380464)"><use style="fill:#6d009c;stroke:#000" x="128.924" y="158.777" xlink:href="#C0_0_80e203c984"/></g><g clip-path="url(#pedc6380464)"><use style="stroke:#000" x="169.218" y="224.523" xlink:href="#C0_0_80e203c984"/></g><g clip-path="url(#pedc6380464)"><use style="fill:#e40000;stroke:#000" x="145.25" y="179.763" xlink:href="#C0_0_80e203c984"/></g><g clip-path="url(#pedc6380464)"><use style="stroke:#000" x="118.124" y="146" xlink:href="#C0_0_80e203c984"/></g><g clip-path="url(#pedc6380464)"><use style="fill:#6d009c;stroke:#000" x="158.875" y="209.196" xlink:href="#C0_0_80e203c984"/></g><g clip-path="url(#pedc6380464)"><use style="fill:#002fdd;stroke:#000" x="88.661" y="102.756" xlink:href="#C0_0_80e203c984"/></g><g clip-path="url(#pedc6380464)"><use style="fill:#6d009c;stroke:#000" x="165.288" y="217.842" xlink:href="#C0_0_80e203c984"/></g><g clip-path="url(#pedc6380464)"><use style="fill:#6d009c;stroke:#000" x="188.082" y="246.24" xlink:href="#C0_0_80e203c984"/></g><g clip-path="url(#pedc6380464)"><use style="fill:#002fdd;stroke:#000" x="76.585" y="96.429" xlink:href="#C0_0_80e203c984"/></g><g clip-path="url(#pedc6380464)"><use style="fill:#002fdd;stroke:#000" x="131.148" y="156.605" xlink:href="#C0_0_80e203c984"/></g><g clip-path="url(#pedc6380464)"><use style="fill:#6d009c;stroke:#000" x="86.814" y="135.255" xlink:href="#C0_0_80e203c984"/></g><g clip-path="url(#pedc6380464)"><use style="fill:#6d009c;stroke:#000" x="159.197" y="221.546" xlink:href="#C0_0_80e203c984"/></g><g clip-path="url(#pedc6380464)"><use style="fill:#002fdd;stroke:#000" x="174.514" y="220.852" xlink:href="#C0_0_80e203c984"/></g><g clip-path="url(#pedc6380464)"><use style="fill:#009b13;stroke:#000" x="158.94" y="231.751" xlink:href="#C0_0_80e203c984"/></g><g clip-path="url(#pedc6380464)"><use style="fill:#ffad00;stroke:#000" x="127.666" y="138.031" xlink:href="#C0_0_80e203c984"/></g><g clip-path="url(#pedc6380464)"><use style="fill:#e40000;stroke:#000" x="126.206" y="152.401" xlink:href="#C0_0_80e203c984"/></g><g clip-path="url(#pedc6380464)"><use style="fill:#009b13;stroke:#000" x="147.743" y="195.771" xlink:href="#C0_0_80e203c984"/></g><g clip-path="url(#pedc6380464)"><use style="fill:#002fdd;stroke:#000" x="114.262" y="144.84" xlink:href="#C0_0_80e203c984"/></g><g clip-path="url(#pedc6380464)"><use style="fill:#002fdd;stroke:#000" x="140.77" y="179.381" xlink:href="#C0_0_80e203c984"/></g><g clip-path="url(#pedc6380464)"><use style="fill:#ffad00;stroke:#000" x="151.541" y="182.906" xlink:href="#C0_0_80e203c984"/></g><g clip-path="url(#pedc6380464)"><use style="fill:#6d009c;stroke:#000" x="159.75" y="213.273" xlink:href="#C0_0_80e203c984"/></g><g clip-path="url(#pedc6380464)"><use style="fill:#ffad00;stroke:#000" x="123.376" y="136.282" xlink:href="#C0_0_80e203c984"/></g><g clip-path="url(#pedc6380464)"><use style="fill:#009b13;stroke:#000" x="165.778" y="174.423" xlink:href="#C0_0_80e203c984"/></g><g clip-path="url(#pedc6380464)"><use style="fill:#009b13;stroke:#000" x="154.919" y="207.094" xlink:href="#C0_0_80e203c984"/></g><g clip-path="url(#pedc6380464)"><use style="fill:#e40000;stroke:#000" x="156.861" y="198.711" xlink:href="#C0_0_80e203c984"/></g><g clip-path="url(#pedc6380464)"><use style="stroke:#000" x="150.451" y="185.439" xlink:href="#C0_0_80e203c984"/></g><g clip-path="url(#pedc6380464)"><use style="fill:#002fdd;stroke:#000" x="165.448" y="207.703" xlink:href="#C0_0_80e203c984"/></g><g clip-path="url(#pedc6380464)"><use style="fill:#002fdd;stroke:#000" x="131.936" y="164.398" xlink:href="#C0_0_80e203c984"/></g><g clip-path="url(#pedc6380464)"><use style="fill:#002fdd;stroke:#000" x="172.365" y="223.93" xlink:href="#C0_0_80e203c984"/></g><g clip-path="url(#pedc6380464)"><use style="stroke:#000" x="132.368" y="154.492" xlink:href="#C0_0_80e203c984"/></g><g clip-path="url(#pedc6380464)"><use style="stroke:#000" x="124.932" y="180.36" xlink:href="#C0_0_80e203c984"/></g><g clip-path="url(#pedc6380464)"><use style="fill:#ccc;stroke:#000" x="180.316" y="237.928" xlink:href="#C0_0_80e203c984"/></g></g><g id="matplotlib.axis_1"><g id="xtick_1"><g id="line2d_1"><defs><path id="m11bd832646" d="M 0 0 L 0 3.5" style="stroke:#000;stroke-width:.8"/></defs><g><use style="stroke:#000;stroke-width:.8" x="40.649" y="256.32" xlink:href="#m11bd832646"/></g></g><g id="text_1"><defs><path id="DejaVuSans-8722" d="M 10.59375 35.5 L 73.1875 35.5 L 73.1875 27.203125 L 10.59375 27.203125 z"/><path id="DejaVuSans-53" d="M 10.796875 72.90625 L 49.515625 72.90625 L 49.515625 64.59375 L 19.828125 64.59375 L 19.828125 46.734375 Q 21.96875 47.46875 24.109375 47.828125 Q 26.265625 48.1875 28.421875 48.1875 Q 40.625 48.1875 47.75 41.5 Q 54.890625 34.8125 54.890625 23.390625 Q 54.890625 11.625 47.5625 5.09375 Q 40.234375 -1.421875 26.90625 -1.421875 Q 22.3125 -1.421875 17.546875 -0.640625 Q 12.796875 0.140625 7.71875 1.703125 L 7.71875 11.625 Q 12.109375 9.234375 16.796875 8.0625 Q 21.484375 6.890625 26.703125 6.890625 Q 35.15625 6.890625 40.078125 11.328125 Q 45.015625 15.765625 45.015625 23.390625 Q 45.015625 31 40.078125 35.4375 Q 35.15625 39.890625 26.703125 39.890625 Q 22.75 39.890625 18.8125 39.015625 Q 14.890625 38.140625 10.796875 36.28125 z"/><path id="DejaVuSans-46" d="M 10.6875 12.40625 L 21 12.40625 L 21 0 L 10.6875 0 z"/><path id="DejaVuSans-48" d="M 31.78125 66.40625 Q 24.171875 66.40625 20.328125 58.90625 Q 16.5 51.421875 16.5 36.375 Q 16.5 21.390625 20.328125 13.890625 Q 24.171875 6.390625 31.78125 6.390625 Q 39.453125 6.390625 43.28125 13.890625 Q 47.125 21.390625 47.125 36.375 Q 47.125 51.421875 43.28125 58.90625 Q 39.453125 66.40625 31.78125 66.40625 z M 31.78125 74.21875 Q 44.046875 74.21875 50.515625 64.515625 Q 56.984375 54.828125 56.984375 36.375 Q 56.984375 17.96875 50.515625 8.265625 Q 44.046875 -1.421875 31.78125 -1.421875 Q 19.53125 -1.421875 13.0625 8.265625 Q 6.59375 17.96875 6.59375 36.375 Q 6.59375 54.828125 13.0625 64.515625 Q 19.53125 74.21875 31.78125 74.21875 z"/></defs><g transform="translate(28.50724 270.918437)scale(0.1 -0.1)"><use xlink:href="#DejaVuSans-8722"/><use x="83.789" xlink:href="#DejaVuSans-53"/><use x="147.412" xlink:href="#DejaVuSans-46"/><use x="179.199" xlink:href="#DejaVuSans-48"/></g></g></g><g id="xtick_2"><g id="line2d_2"><g><use style="stroke:#000;stroke-width:.8" x="77.104" y="256.32" xlink:href="#m11bd832646"/></g></g><g id="text_2"><defs><path id="DejaVuSans-50" d="M 19.1875 8.296875 L 53.609375 8.296875 L 53.609375 0 L 7.328125 0 L 7.328125 8.296875 Q 12.9375 14.109375 22.625 23.890625 Q 32.328125 33.6875 34.8125 36.53125 Q 39.546875 41.84375 41.421875 45.53125 Q 43.3125 49.21875 43.3125 52.78125 Q 43.3125 58.59375 39.234375 62.25 Q 35.15625 65.921875 28.609375 65.921875 Q 23.96875 65.921875 18.8125 64.3125 Q 13.671875 62.703125 7.8125 59.421875 L 7.8125 69.390625 Q 13.765625 71.78125 18.9375 73 Q 24.125 74.21875 28.421875 74.21875 Q 39.75 74.21875 46.484375 68.546875 Q 53.21875 62.890625 53.21875 53.421875 Q 53.21875 48.921875 51.53125 44.890625 Q 49.859375 40.875 45.40625 35.40625 Q 44.1875 33.984375 37.640625 27.21875 Q 31.109375 20.453125 19.1875 8.296875 z"/></defs><g transform="translate(64.962656 270.918437)scale(0.1 -0.1)"><use xlink:href="#DejaVuSans-8722"/><use x="83.789" xlink:href="#DejaVuSans-50"/><use x="147.412" xlink:href="#DejaVuSans-46"/><use x="179.199" xlink:href="#DejaVuSans-53"/></g></g></g><g id="xtick_3"><g id="line2d_3"><g><use style="stroke:#000;stroke-width:.8" x="113.559" y="256.32" xlink:href="#m11bd832646"/></g></g><g id="text_3"><g transform="translate(105.607916 270.918437)scale(0.1 -0.1)"><use xlink:href="#DejaVuSans-48"/><use x="63.623" xlink:href="#DejaVuSans-46"/><use x="95.41" xlink:href="#DejaVuSans-48"/></g></g></g><g id="xtick_4"><g id="line2d_4"><g><use style="stroke:#000;stroke-width:.8" x="150.015" y="256.32" xlink:href="#m11bd832646"/></g></g><g id="text_4"><g transform="translate(142.063333 270.918437)scale(0.1 -0.1)"><use xlink:href="#DejaVuSans-50"/><use x="63.623" xlink:href="#DejaVuSans-46"/><use x="95.41" xlink:href="#DejaVuSans-53"/></g></g></g><g id="xtick_5"><g id="line2d_5"><g><use style="stroke:#000;stroke-width:.8" x="186.47" y="256.32" xlink:href="#m11bd832646"/></g></g><g id="text_5"><g transform="translate(178.518749 270.918437)scale(0.1 -0.1)"><use xlink:href="#DejaVuSans-53"/><use x="63.623" xlink:href="#DejaVuSans-46"/><use x="95.41" xlink:href="#DejaVuSans-48"/></g></g></g></g><g id="matplotlib.axis_2"><g id="ytick_1"><g id="line2d_6"><defs><path id="mbd30403c1c" d="M 0 0 L -3.5 0" style="stroke:#000;stroke-width:.8"/></defs><g><use style="stroke:#000;stroke-width:.8" x="36" y="247.329" xlink:href="#mbd30403c1c"/></g></g><g id="text_6"><g transform="translate(22.6375 251.127747)scale(0.1 -0.1)"><use xlink:href="#DejaVuSans-50"/></g></g></g><g id="ytick_2"><g id="line2d_7"><g><use style="stroke:#000;stroke-width:.8" x="36" y="218.146" xlink:href="#mbd30403c1c"/></g></g><g id="text_7"><defs><path id="DejaVuSans-52" d="M 37.796875 64.3125 L 12.890625 25.390625 L 37.796875 25.390625 z M 35.203125 72.90625 L 47.609375 72.90625 L 47.609375 25.390625 L 58.015625 25.390625 L 58.015625 17.1875 L 47.609375 17.1875 L 47.609375 0 L 37.796875 0 L 37.796875 17.1875 L 4.890625 17.1875 L 4.890625 26.703125 z"/></defs><g transform="translate(22.6375 221.94485)scale(0.1 -0.1)"><use xlink:href="#DejaVuSans-52"/></g></g></g><g id="ytick_3"><g id="line2d_8"><g><use style="stroke:#000;stroke-width:.8" x="36" y="188.963" xlink:href="#mbd30403c1c"/></g></g><g id="text_8"><defs><path id="DejaVuSans-54" d="M 33.015625 40.375 Q 26.375 40.375 22.484375 35.828125 Q 18.609375 31.296875 18.609375 23.390625 Q 18.609375 15.53125 22.484375 10.953125 Q 26.375 6.390625 33.015625 6.390625 Q 39.65625 6.390625 43.53125 10.953125 Q 47.40625 15.53125 47.40625 23.390625 Q 47.40625 31.296875 43.53125 35.828125 Q 39.65625 40.375 33.015625 40.375 z M 52.59375 71.296875 L 52.59375 62.3125 Q 48.875 64.0625 45.09375 64.984375 Q 41.3125 65.921875 37.59375 65.921875 Q 27.828125 65.921875 22.671875 59.328125 Q 17.53125 52.734375 16.796875 39.40625 Q 19.671875 43.65625 24.015625 45.921875 Q 28.375 48.1875 33.59375 48.1875 Q 44.578125 48.1875 50.953125 41.515625 Q 57.328125 34.859375 57.328125 23.390625 Q 57.328125 12.15625 50.6875 5.359375 Q 44.046875 -1.421875 33.015625 -1.421875 Q 20.359375 -1.421875 13.671875 8.265625 Q 6.984375 17.96875 6.984375 36.375 Q 6.984375 53.65625 15.1875 63.9375 Q 23.390625 74.21875 37.203125 74.21875 Q 40.921875 74.21875 44.703125 73.484375 Q 48.484375 72.75 52.59375 71.296875 z"/></defs><g transform="translate(22.6375 192.761953)scale(0.1 -0.1)"><use xlink:href="#DejaVuSans-54"/></g></g></g><g id="ytick_4"><g id="line2d_9"><g><use style="stroke:#000;stroke-width:.8" x="36" y="159.78" xlink:href="#mbd30403c1c"/></g></g><g id="text_9"><defs><path id="DejaVuSans-56" d="M 31.78125 34.625 Q 24.75 34.625 20.71875 30.859375 Q 16.703125 27.09375 16.703125 20.515625 Q 16.703125 13.921875 20.71875 10.15625 Q 24.75 6.390625 31.78125 6.390625 Q 38.8125 6.390625 42.859375 10.171875 Q 46.921875 13.96875 46.921875 20.515625 Q 46.921875 27.09375 42.890625 30.859375 Q 38.875 34.625 31.78125 34.625 z M 21.921875 38.8125 Q 15.578125 40.375 12.03125 44.71875 Q 8.5 49.078125 8.5 55.328125 Q 8.5 64.0625 14.71875 69.140625 Q 20.953125 74.21875 31.78125 74.21875 Q 42.671875 74.21875 48.875 69.140625 Q 55.078125 64.0625 55.078125 55.328125 Q 55.078125 49.078125 51.53125 44.71875 Q 48 40.375 41.703125 38.8125 Q 48.828125 37.15625 52.796875 32.3125 Q 56.78125 27.484375 56.78125 20.515625 Q 56.78125 9.90625 50.3125 4.234375 Q 43.84375 -1.421875 31.78125 -1.421875 Q 19.734375 -1.421875 13.25 4.234375 Q 6.78125 9.90625 6.78125 20.515625 Q 6.78125 27.484375 10.78125 32.3125 Q 14.796875 37.15625 21.921875 38.8125 z M 18.3125 54.390625 Q 18.3125 48.734375 21.84375 45.5625 Q 25.390625 42.390625 31.78125 42.390625 Q 38.140625 42.390625 41.71875 45.5625 Q 45.3125 48.734375 45.3125 54.390625 Q 45.3125 60.0625 41.71875 63.234375 Q 38.140625 66.40625 31.78125 66.40625 Q 25.390625 66.40625 21.84375 63.234375 Q 18.3125 60.0625 18.3125 54.390625 z"/></defs><g transform="translate(22.6375 163.579056)scale(0.1 -0.1)"><use xlink:href="#DejaVuSans-56"/></g></g></g><g id="ytick_5"><g id="line2d_10"><g><use style="stroke:#000;stroke-width:.8" x="36" y="130.597" xlink:href="#mbd30403c1c"/></g></g><g id="text_10"><defs><path id="DejaVuSans-49" d="M 12.40625 8.296875 L 28.515625 8.296875 L 28.515625 63.921875 L 10.984375 60.40625 L 10.984375 69.390625 L 28.421875 72.90625 L 38.28125 72.90625 L 38.28125 8.296875 L 54.390625 8.296875 L 54.390625 0 L 12.40625 0 z"/></defs><g transform="translate(16.275 134.396159)scale(0.1 -0.1)"><use xlink:href="#DejaVuSans-49"/><use x="63.623" xlink:href="#DejaVuSans-48"/></g></g></g><g id="ytick_6"><g id="line2d_11"><g><use style="stroke:#000;stroke-width:.8" x="36" y="101.414" xlink:href="#mbd30403c1c"/></g></g><g id="text_11"><g transform="translate(16.275 105.213262)scale(0.1 -0.1)"><use xlink:href="#DejaVuSans-49"/><use x="63.623" xlink:href="#DejaVuSans-50"/></g></g></g><g id="ytick_7"><g id="line2d_12"><g><use style="stroke:#000;stroke-width:.8" x="36" y="72.231" xlink:href="#mbd30403c1c"/></g></g><g id="text_12"><g transform="translate(16.275 76.030365)scale(0.1 -0.1)"><use xlink:href="#DejaVuSans-49"/><use x="63.623" xlink:href="#DejaVuSans-52"/></g></g></g><g id="ytick_8"><g id="line2d_13"><g><use style="stroke:#000;stroke-width:.8" x="36" y="43.048" xlink:href="#mbd30403c1c"/></g></g><g id="text_13"><g transform="translate(16.275 46.847468)scale(0.1 -0.1)"><use xlink:href="#DejaVuSans-49"/><use x="63.623" xlink:href="#DejaVuSans-54"/></g></g></g></g><g id="patch_3"><path d="M 36 256.32 L 36 34.56" style="fill:none;stroke:#000;stroke-linecap:square;stroke-linejoin:miter;stroke-width:.8"/></g><g id="patch_4"><path d="M 214.56 256.32 L 214.56 34.56" style="fill:none;stroke:#000;stroke-linecap:square;stroke-linejoin:miter;stroke-width:.8"/></g><g id="patch_5"><path d="M 36 256.32 L 214.56 256.32" style="fill:none;stroke:#000;stroke-linecap:square;stroke-linejoin:miter;stroke-width:.8"/></g><g id="patch_6"><path d="M 36 34.56 L 214.56 34.56" style="fill:none;stroke:#000;stroke-linecap:square;stroke-linejoin:miter;stroke-width:.8"/></g></g><g id="axes_2"><g id="patch_7"><path d="M 225.72 256.32 L 225.72 234.144 L 225.72 56.736 L 225.72 34.56 L 236.808 34.56 L 236.808 56.736 L 236.808 234.144 L 236.808 256.32 z" clip-path="url(#pb7acf61d6b)" style="fill:#fff;stroke:#fff;stroke-linejoin:miter;stroke-width:.01"/></g><g id="QuadMesh_1"><path d="M 225.72 256.32 L 236.808 256.32 L 236.808 234.144 L 225.72 234.144 L 225.72 256.32" clip-path="url(#pb7acf61d6b)"/><path d="M 225.72 234.144 L 236.808 234.144 L 236.808 211.968 L 225.72 211.968 L 225.72 234.144" clip-path="url(#pb7acf61d6b)" style="fill:#6d009c"/><path d="M 225.72 211.968 L 236.808 211.968 L 236.808 189.792 L 225.72 189.792 L 225.72 211.968" clip-path="url(#pb7acf61d6b)" style="fill:#002fdd"/><path d="M 225.72 189.792 L 236.808 189.792 L 236.808 167.616 L 225.72 167.616 L 225.72 189.792" clip-path="url(#pb7acf61d6b)" style="fill:#00a4bb"/><path d="M 225.72 167.616 L 236.808 167.616 L 236.808 145.44 L 225.72 145.44 L 225.72 167.616" clip-path="url(#pb7acf61d6b)" style="fill:#009b13"/><path d="M 225.72 145.44 L 236.808 145.44 L 236.808 123.264 L 225.72 123.264 L 225.72 145.44" clip-path="url(#pb7acf61d6b)" style="fill:#00e200"/><path d="M 225.72 123.264 L 236.808 123.264 L 236.808 101.088 L 225.72 101.088 L 225.72 123.264" clip-path="url(#pb7acf61d6b)" style="fill:#ccf900"/><path d="M 225.72 101.088 L 236.808 101.088 L 236.808 78.912 L 225.72 78.912 L 225.72 101.088" clip-path="url(#pb7acf61d6b)" style="fill:#ffad00"/><path d="M 225.72 78.912 L 236.808 78.912 L 236.808 56.736 L 225.72 56.736 L 225.72 78.912" clip-path="url(#pb7acf61d6b)" style="fill:#e40000"/><path d="M 225.72 56.736 L 236.808 56.736 L 236.808 34.56 L 225.72 34.56 L 225.72 56.736" clip-path="url(#pb7acf61d6b)" style="fill:#ccc"/></g><g id="matplotlib.axis_4"><g id="ytick_9"><g id="line2d_14"><defs><path id="m41a891e3ed" d="M 0 0 L 3.5 0" style="stroke:#000;stroke-width:.8"/></defs><g><use style="stroke:#000;stroke-width:.8" x="236.808" y="245.232" xlink:href="#m41a891e3ed"/></g></g><g id="text_14"><g transform="translate(243.808 249.031219)scale(0.1 -0.1)"><use xlink:href="#DejaVuSans-48"/></g></g></g><g id="ytick_10"><g id="line2d_15"><g><use style="stroke:#000;stroke-width:.8" x="236.808" y="223.056" xlink:href="#m41a891e3ed"/></g></g><g id="text_15"><g transform="translate(243.808 226.855219)scale(0.1 -0.1)"><use xlink:href="#DejaVuSans-49"/></g></g></g><g id="ytick_11"><g id="line2d_16"><g><use style="stroke:#000;stroke-width:.8" x="236.808" y="200.88" xlink:href="#m41a891e3ed"/></g></g><g id="text_16"><g transform="translate(243.808 204.679219)scale(0.1 -0.1)"><use xlink:href="#DejaVuSans-50"/></g></g></g><g id="ytick_12"><g id="line2d_17"><g><use style="stroke:#000;stroke-width:.8" x="236.808" y="178.704" xlink:href="#m41a891e3ed"/></g></g><g id="text_17"><defs><path id="DejaVuSans-51" d="M 40.578125 39.3125 Q 47.65625 37.796875 51.625 33 Q 55.609375 28.21875 55.609375 21.1875 Q 55.609375 10.40625 48.1875 4.484375 Q 40.765625 -1.421875 27.09375 -1.421875 Q 22.515625 -1.421875 17.65625 -0.515625 Q 12.796875 0.390625 7.625 2.203125 L 7.625 11.71875 Q 11.71875 9.328125 16.59375 8.109375 Q 21.484375 6.890625 26.8125 6.890625 Q 36.078125 6.890625 40.9375 10.546875 Q 45.796875 14.203125 45.796875 21.1875 Q 45.796875 27.640625 41.28125 31.265625 Q 36.765625 34.90625 28.71875 34.90625 L 20.21875 34.90625 L 20.21875 43.015625 L 29.109375 43.015625 Q 36.375 43.015625 40.234375 45.921875 Q 44.09375 48.828125 44.09375 54.296875 Q 44.09375 59.90625 40.109375 62.90625 Q 36.140625 65.921875 28.71875 65.921875 Q 24.65625 65.921875 20.015625 65.03125 Q 15.375 64.15625 9.8125 62.3125 L 9.8125 71.09375 Q 15.4375 72.65625 20.34375 73.4375 Q 25.25 74.21875 29.59375 74.21875 Q 40.828125 74.21875 47.359375 69.109375 Q 53.90625 64.015625 53.90625 55.328125 Q 53.90625 49.265625 50.4375 45.09375 Q 46.96875 40.921875 40.578125 39.3125 z"/></defs><g transform="translate(243.808 182.503219)scale(0.1 -0.1)"><use xlink:href="#DejaVuSans-51"/></g></g></g><g id="ytick_13"><g id="line2d_18"><g><use style="stroke:#000;stroke-width:.8" x="236.808" y="156.528" xlink:href="#m41a891e3ed"/></g></g><g id="text_18"><g transform="translate(243.808 160.327219)scale(0.1 -0.1)"><use xlink:href="#DejaVuSans-52"/></g></g></g><g id="ytick_14"><g id="line2d_19"><g><use style="stroke:#000;stroke-width:.8" x="236.808" y="134.352" xlink:href="#m41a891e3ed"/></g></g><g id="text_19"><g transform="translate(243.808 138.151219)scale(0.1 -0.1)"><use xlink:href="#DejaVuSans-53"/></g></g></g><g id="ytick_15"><g id="line2d_20"><g><use style="stroke:#000;stroke-width:.8" x="236.808" y="112.176" xlink:href="#m41a891e3ed"/></g></g><g id="text_20"><g transform="translate(243.808 115.975219)scale(0.1 -0.1)"><use xlink:href="#DejaVuSans-54"/></g></g></g><g id="ytick_16"><g id="line2d_21"><g><use style="stroke:#000;stroke-width:.8" x="236.808" y="90" xlink:href="#m41a891e3ed"/></g></g><g id="text_21"><defs><path id="DejaVuSans-55" d="M 8.203125 72.90625 L 55.078125 72.90625 L 55.078125 68.703125 L 28.609375 0 L 18.3125 0 L 43.21875 64.59375 L 8.203125 64.59375 z"/></defs><g transform="translate(243.808 93.799219)scale(0.1 -0.1)"><use xlink:href="#DejaVuSans-55"/></g></g></g><g id="ytick_17"><g id="line2d_22"><g><use style="stroke:#000;stroke-width:.8" x="236.808" y="67.824" xlink:href="#m41a891e3ed"/></g></g><g id="text_22"><g transform="translate(243.808 71.623219)scale(0.1 -0.1)"><use xlink:href="#DejaVuSans-56"/></g></g></g><g id="ytick_18"><g id="line2d_23"><g><use style="stroke:#000;stroke-width:.8" x="236.808" y="45.648" xlink:href="#m41a891e3ed"/></g></g><g id="text_23"><defs><path id="DejaVuSans-57" d="M 10.984375 1.515625 L 10.984375 10.5 Q 14.703125 8.734375 18.5 7.8125 Q 22.3125 6.890625 25.984375 6.890625 Q 35.75 6.890625 40.890625 13.453125 Q 46.046875 20.015625 46.78125 33.40625 Q 43.953125 29.203125 39.59375 26.953125 Q 35.25 24.703125 29.984375 24.703125 Q 19.046875 24.703125 12.671875 31.3125 Q 6.296875 37.9375 6.296875 49.421875 Q 6.296875 60.640625 12.9375 67.421875 Q 19.578125 74.21875 30.609375 74.21875 Q 43.265625 74.21875 49.921875 64.515625 Q 56.59375 54.828125 56.59375 36.375 Q 56.59375 19.140625 48.40625 8.859375 Q 40.234375 -1.421875 26.421875 -1.421875 Q 22.703125 -1.421875 18.890625 -0.6875 Q 15.09375 0.046875 10.984375 1.515625 z M 30.609375 32.421875 Q 37.25 32.421875 41.125 36.953125 Q 45.015625 41.5 45.015625 49.421875 Q 45.015625 57.28125 41.125 61.84375 Q 37.25 66.40625 30.609375 66.40625 Q 23.96875 66.40625 20.09375 61.84375 Q 16.21875 57.28125 16.21875 49.421875 Q 16.21875 41.5 20.09375 36.953125 Q 23.96875 32.421875 30.609375 32.421875 z"/></defs><g transform="translate(243.808 49.447219)scale(0.1 -0.1)"><use xlink:href="#DejaVuSans-57"/></g></g></g></g><g id="patch_8"><path d="M 225.72 256.32 L 225.72 234.144 L 225.72 56.736 L 225.72 34.56 L 236.808 34.56 L 236.808 56.736 L 236.808 234.144 L 236.808 256.32 z" style="fill:none;stroke:#000;stroke-linejoin:miter;stroke-width:.8"/></g></g></g><defs><clipPath id="pedc6380464"><rect width="178.56" height="221.76" x="36" y="34.56"/></clipPath><clipPath id="pb7acf61d6b"><rect width="11.088" height="221.76" x="225.72" y="34.56"/></clipPath></defs></svg>