<svg xmlns="http://www.w3.org/2000/svg" xmlns:xlink="http://www.w3.org/1999/xlink" width="384" height="384" version="1.1" viewBox="0 0 288 288"><defs><style type="text/css">*{stroke-linecap:butt;stroke-linejoin:round}</style></defs><g id="figure_1"><g id="patch_1"><path d="M 0 288 L 288 288 L 288 0 L 0 0 z" style="fill:#fff"/></g><g id="axes_1"><g id="patch_2"><path d="M 36 256.32 L 214.56 256.32 L 214.56 34.56 L 36 34.56 z" style="fill:#fff"/></g><g id="PathCollection_1"><defs><path id="C0_0_59cd67ac4f" d="M 0 3 C 0.795609 3 1.55874 2.683901 2.12132 2.12132 C 2.683901 1.55874 3 0.795609 3 0 C 3 -0.795609 2.683901 -1.55874 2.12132 -2.12132 C 1.55874 -2.683901 0.795609 -3 0 -3 C -0.795609 -3 -1.55874 -2.683901 -2.12132 -2.12132 C -2.683901 -1.55874 -3 -0.795609 -3 0 C -3 0.795609 -2.683901 1.55874 -2.12132 2.12132 C -1.55874 2.683901 -0.795609 3 0 3 z"/></defs><g clip-path="url(#p0e494a4cc2)"><use style="fill:#6d009c;stroke:#000" x="156.422" y="110.796" xlink:href="#C0_0_59cd67ac4f"/></g><g clip-path="url(#p0e494a4cc2)"><use style="fill:#002fdd;stroke:#000" x="124.276" y="141.146" xlink:href="#C0_0_59cd67ac4f"/></g><g clip-path="url(#p0e494a4cc2)"><use style="fill:#002fdd;stroke:#000" x="108.481" y="146.624" xlink:href="#C0_0_59cd67ac4f"/></g><g clip-path="url(#p0e494a4cc2)"><use style="fill:#002fdd;stroke:#000" x="172.54" y="74.546" xlink:href="#C0_0_59cd67ac4f"/></g><g clip-path="url(#p0e494a4cc2)"><use style="stroke:#000" x="154.3" y="157.324" xlink:href="#C0_0_59cd67ac4f"/></g><g clip-path="url(#p0e494a4cc2)"><use style="fill:#e40000;stroke:#000" x="149.247" y="172.43" xlink:href="#C0_0_59cd67ac4f"/></g><g clip-path="url(#p0e494a4cc2)"><use style="fill:#6d009c;stroke:#000" x="178.753" y="129.528" xlink:href="#C0_0_59cd67ac4f"/></g><g clip-path="url(#p0e494a4cc2)"><use style="fill:#002fdd;stroke:#000" x="115.912" y="142.001" xlink:href="#C0_0_59cd67ac4f"/></g><g clip-path="url(#p0e494a4cc2)"><use style="fill:#00e200;stroke:#000" x="146.98" y="219.622" xlink:href="#C0_0_59cd67ac4f"/></g><g clip-path="url(#p0e494a4cc2)"><use style="fill:#ccc;stroke:#000" x="158.152" y="62.586" xlink:href="#C0_0_59cd67ac4f"/></g><g clip-path="url(#p0e494a4cc2)"><use style="fill:#002fdd;stroke:#000" x="162.967" y="74.064" xlink:href="#C0_0_59cd67ac4f"/></g><g clip-path="url(#p0e494a4cc2)"><use style="fill:#002fdd;stroke:#000" x="162.092" y="78.586" xlink:href="#C0_0_59cd67ac4f"/></g><g clip-path="url(#p0e494a4cc2)"><use style="stroke:#000" x="157.232" y="150.237" xlink:href="#C0_0_59cd67ac4f"/></g><g clip-path="url(#p0e494a4cc2)"><use style="fill:#ccc;stroke:#000" x="153.433" y="140.107" xlink:href="#C0_0_59cd67ac4f"/></g><g clip-path="url(#p0e494a4cc2)"><use style="fill:#002fdd;stroke:#000" x="114.217" y="141.041" xlink:href="#C0_0_59cd67ac4f"/></g><g clip-path="url(#p0e494a4cc2)"><use style="fill:#009b13;stroke:#000" x="159.222" y="220.307" xlink:href="#C0_0_59cd67ac4f"/></g><g clip-path="url(#p0e494a4cc2)"><use style="fill:#002fdd;stroke:#000" x="112.329" y="152.504" xlink:href="#C0_0_59cd67ac4f"/></g><g clip-path="url(#p0e494a4cc2)"><use style="stroke:#000" x="152.272" y="159.259" xlink:href="#C0_0_59cd67ac4f"/></g><g clip-path="url(#p0e494a4cc2)"><use style="fill:#6d009c;stroke:#000" x="155.555" y="108.179" xlink:href="#C0_0_59cd67ac4f"/></g><g clip-path="url(#p0e494a4cc2)"><use style="fill:#6d009c;stroke:#000" x="156.416" y="115.596" xlink:href="#C0_0_59cd67ac4f"/></g><g clip-path="url(#p0e494a4cc2)"><use style="stroke:#000" x="183.321" y="194.895" xlink:href="#C0_0_59cd67ac4f"/></g><g clip-path="url(#p0e494a4cc2)"><use style="fill:#002fdd;stroke:#000" x="103.234" y="149.006" xlink:href="#C0_0_59cd67ac4f"/></g><g clip-path="url(#p0e494a4cc2)"><use style="fill:#6d009c;stroke:#000" x="169.875" y="136.964" xlink:href="#C0_0_59cd67ac4f"/></g><g clip-path="url(#p0e494a4cc2)"><use style="fill:#ccc;stroke:#000" x="142.408" y="136.681" xlink:href="#C0_0_59cd67ac4f"/></g><g clip-path="url(#p0e494a4cc2)"><use style="stroke:#000" x="180.908" y="165.772" xlink:href="#C0_0_59cd67ac4f"/></g><g clip-path="url(#p0e494a4cc2)"><use style="fill:#00a4bb;stroke:#000" x="161.332" y="104.498" xlink:href="#C0_0_59cd67ac4f"/></g><g clip-path="url(#p0e494a4cc2)"><use style="fill:#009b13;stroke:#000" x="154.148" y="219.273" xlink:href="#C0_0_59cd67ac4f"/></g><g clip-path="url(#p0e494a4cc2)"><use style="fill:#009b13;stroke:#000" x="133.623" y="203.142" xlink:href="#C0_0_59cd67ac4f"/></g><g clip-path="url(#p0e494a4cc2)"><use style="fill:#002fdd;stroke:#000" x="106.87" y="148.986" xlink:href="#C0_0_59cd67ac4f"/></g><g clip-path="url(#p0e494a4cc2)"><use style="fill:#009b13;stroke:#000" x="160.846" y="218.856" xlink:href="#C0_0_59cd67ac4f"/></g><g clip-path="url(#p0e494a4cc2)"><use style="fill:#ffad00;stroke:#000" x="196.859" y="169.793" xlink:href="#C0_0_59cd67ac4f"/></g><g clip-path="url(#p0e494a4cc2)"><use style="fill:#002fdd;stroke:#000" x="114.265" y="141.527" xlink:href="#C0_0_59cd67ac4f"/></g><g clip-path="url(#p0e494a4cc2)"><use style="fill:#ccc;stroke:#000" x="161.077" y="98.72" xlink:href="#C0_0_59cd67ac4f"/></g><g clip-path="url(#p0e494a4cc2)"><use style="stroke:#000" x="158.237" y="151.226" xlink:href="#C0_0_59cd67ac4f"/></g><g clip-path="url(#p0e494a4cc2)"><use style="fill:#6d009c;stroke:#000" x="155.042" y="106.45" xlink:href="#C0_0_59cd67ac4f"/></g><g clip-path="url(#p0e494a4cc2)"><use style="fill:#6d009c;stroke:#000" x="162.167" y="131.636" xlink:href="#C0_0_59cd67ac4f"/></g><g clip-path="url(#p0e494a4cc2)"><use style="fill:#ffad00;stroke:#000" x="206.444" y="180.253" xlink:href="#C0_0_59cd67ac4f"/></g><g clip-path="url(#p0e494a4cc2)"><use style="fill:#e40000;stroke:#000" x="157.014" y="169.852" xlink:href="#C0_0_59cd67ac4f"/></g><g clip-path="url(#p0e494a4cc2)"><use style="fill:#002fdd;stroke:#000" x="93.178" y="153.896" xlink:href="#C0_0_59cd67ac4f"/></g><g clip-path="url(#p0e494a4cc2)"><use style="fill:#e40000;stroke:#000" x="89.162" y="144.435" xlink:href="#C0_0_59cd67ac4f"/></g><g clip-path="url(#p0e494a4cc2)"><use style="fill:#6d009c;stroke:#000" x="158.106" y="123.949" xlink:href="#C0_0_59cd67ac4f"/></g><g clip-path="url(#p0e494a4cc2)"><use style="fill:#6d009c;stroke:#000" x="156.072" y="109.821" xlink:href="#C0_0_59cd67ac4f"/></g><g clip-path="url(#p0e494a4cc2)"><use style="fill:#002fdd;stroke:#000" x="110.643" y="139.962" xlink:href="#C0_0_59cd67ac4f"/></g><g clip-path="url(#p0e494a4cc2)"><use style="fill:#6d009c;stroke:#000" x="159.073" y="124.265" xlink:href="#C0_0_59cd67ac4f"/></g><g clip-path="url(#p0e494a4cc2)"><use style="fill:#6d009c;stroke:#000" x="157.198" y="124.632" xlink:href="#C0_0_59cd67ac4f"/></g><g clip-path="url(#p0e494a4cc2)"><use style="fill:#002fdd;stroke:#000" x="90.606" y="175.223" xlink:href="#C0_0_59cd67ac4f"/></g><g clip-path="url(#p0e494a4cc2)"><use style="fill:#6d009c;stroke:#000" x="161.61" y="129.407" xlink:href="#C0_0_59cd67ac4f"/></g><g clip-path="url(#p0e494a4cc2)"><use style="fill:#6d009c;stroke:#000" x="164.601" y="118.268" xlink:href="#C0_0_59cd67ac4f"/></g><g clip-path="url(#p0e494a4cc2)"><use style="fill:#00e200;stroke:#000" x="130.926" y="193.459" xlink:href="#C0_0_59cd67ac4f"/></g><g clip-path="url(#p0e494a4cc2)"><use style="stroke:#000" x="144.644" y="161.43" xlink:href="#C0_0_59cd67ac4f"/></g><g clip-path="url(#p0e494a4cc2)"><use style="fill:#6d009c;stroke:#000" x="152.366" y="88.667" xlink:href="#C0_0_59cd67ac4f"/></g><g clip-path="url(#p0e494a4cc2)"><use style="fill:#e40000;stroke:#000" x="150.65" y="173.652" xlink:href="#C0_0_59cd67ac4f"/></g><g clip-path="url(#p0e494a4cc2)"><use style="fill:#002fdd;stroke:#000" x="82.748" y="122.628" xlink:href="#C0_0_59cd67ac4f"/></g><g clip-path="url(#p0e494a4cc2)"><use style="fill:#002fdd;stroke:#000" x="162.896" y="78.061" xlink:href="#C0_0_59cd67ac4f"/></g><g clip-path="url(#p0e494a4cc2)"><use style="stroke:#000" x="140.585" y="161.091" xlink:href="#C0_0_59cd67ac4f"/></g><g clip-path="url(#p0e494a4cc2)"><use style="fill:#6d009c;stroke:#000" x="166.631" y="132.647" xlink:href="#C0_0_59cd67ac4f"/></g><g clip-path="url(#p0e494a4cc2)"><use style="stroke:#000" x="142.473" y="167.133" xlink:href="#C0_0_59cd67ac4f"/></g><g clip-path="url(#p0e494a4cc2)"><use style="fill:#ffad00;stroke:#000" x="200.39" y="173.96" xlink:href="#C0_0_59cd67ac4f"/></g><g clip-path="url(#p0e494a4cc2)"><use style="fill:#002fdd;stroke:#000" x="110.79" y="140.19" xlink:href="#C0_0_59cd67ac4f"/></g><g clip-path="url(#p0e494a4cc2)"><use style="fill:#ffad00;stroke:#000" x="179.572" y="159.244" xlink:href="#C0_0_59cd67ac4f"/></g><g clip-path="url(#p0e494a4cc2)"><use style="stroke:#000" x="157.14" y="150.739" xlink:href="#C0_0_59cd67ac4f"/></g><g clip-path="url(#p0e494a4cc2)"><use style="fill:#ccf900;stroke:#000" x="119.351" y="52.272" xlink:href="#C0_0_59cd67ac4f"/></g><g clip-path="url(#p0e494a4cc2)"><use style="stroke:#000" x="139.348" y="160.446" xlink:href="#C0_0_59cd67ac4f"/></g><g clip-path="url(#p0e494a4cc2)"><use style="fill:#002fdd;stroke:#000" x="103.708" y="154.672" xlink:href="#C0_0_59cd67ac4f"/></g><g clip-path="url(#p0e494a4cc2)"><use style="stroke:#000" x="153.883" y="158.481" xlink:href="#C0_0_59cd67ac4f"/></g><g clip-path="url(#p0e494a4cc2)"><use style="fill:#6d009c;stroke:#000" x="157.553" y="117.592" xlink:href="#C0_0_59cd67ac4f"/></g><g clip-path="url(#p0e494a4cc2)"><use style="fill:#002fdd;stroke:#000" x="99.78" y="152.347" xlink:href="#C0_0_59cd67ac4f"/></g><g clip-path="url(#p0e494a4cc2)"><use style="fill:#ffad00;stroke:#000" x="200.919" y="174.627" xlink:href="#C0_0_59cd67ac4f"/></g><g clip-path="url(#p0e494a4cc2)"><use style="fill:#002fdd;stroke:#000" x="123.593" y="142.067" xlink:href="#C0_0_59cd67ac4f"/></g><g clip-path="url(#p0e494a4cc2)"><use style="stroke:#000" x="154.364" y="157.586" xlink:href="#C0_0_59cd67ac4f"/></g><g clip-path="url(#p0e494a4cc2)"><use style="fill:#009b13;stroke:#000" x="56.501" y="158.073" xlink:href="#C0_0_59cd67ac4f"/></g><g clip-path="url(#p0e494a4cc2)"><use style="fill:#6d009c;stroke:#000" x="170.679" y="132.294" xlink:href="#C0_0_59cd67ac4f"/></g><g clip-path="url(#p0e494a4cc2)"><use style="stroke:#000" x="153.819" y="157.675" xlink:href="#C0_0_59cd67ac4f"/></g><g clip-path="url(#p0e494a4cc2)"><use style="fill:#009b13;stroke:#000" x="148.394" y="218.714" xlink:href="#C0_0_59cd67ac4f"/></g><g clip-path="url(#p0e494a4cc2)"><use style="fill:#6d009c;stroke:#000" x="156.863" y="120.2" xlink:href="#C0_0_59cd67ac4f"/></g><g clip-path="url(#p0e494a4cc2)"><use style="fill:#002fdd;stroke:#000" x="109.012" y="146.689" xlink:href="#C0_0_59cd67ac4f"/></g><g clip-path="url(#p0e494a4cc2)"><use style="fill:#6d009c;stroke:#000" x="149.646" y="104.19" xlink:href="#C0_0_59cd67ac4f"/></g><g clip-path="url(#p0e494a4cc2)"><use style="fill:#002fdd;stroke:#000" x="79.704" y="160.074" xlink:href="#C0_0_59cd67ac4f"/></g><g clip-path="url(#p0e494a4cc2)"><use style="stroke:#000" x="141.3" y="162.031" xlink:href="#C0_0_59cd67ac4f"/></g><g clip-path="url(#p0e494a4cc2)"><use style="fill:#6d009c;stroke:#000" x="161.877" y="131.422" xlink:href="#C0_0_59cd67ac4f"/></g><g clip-path="url(#p0e494a4cc2)"><use style="fill:#002fdd;stroke:#000" x="170.295" y="87.959" xlink:href="#C0_0_59cd67ac4f"/></g><g clip-path="url(#p0e494a4cc2)"><use style="fill:#6d009c;stroke:#000" x="156.587" y="121.757" xlink:href="#C0_0_59cd67ac4f"/></g><g clip-path="url(#p0e494a4cc2)"><use style="fill:#6d009c;stroke:#000" x="154.02" y="109.176" xlink:href="#C0_0_59cd67ac4f"/></g><g clip-path="url(#p0e494a4cc2)"><use style="fill:#002fdd;stroke:#000" x="112.177" y="139.735" xlink:href="#C0_0_59cd67ac4f"/></g><g clip-path="url(#p0e494a4cc2)"><use style="fill:#002fdd;stroke:#000" x="77.945" y="133.965" xlink:href="#C0_0_59cd67ac4f"/></g><g clip-path="url(#p0e494a4cc2)"><use style="fill:#6d009c;stroke:#000" x="173.95" y="133.685" xlink:href="#C0_0_59cd67ac4f"/></g><g clip-path="url(#p0e494a4cc2)"><use style="fill:#ffad00;stroke:#000" x="181.437" y="180.709" xlink:href="#C0_0_59cd67ac4f"/></g><g clip-path="url(#p0e494a4cc2)"><use style="fill:#002fdd;stroke:#000" x="44.116" y="149.77" xlink:href="#C0_0_59cd67ac4f"/></g><g clip-path="url(#p0e494a4cc2)"><use style="fill:#6d009c;stroke:#000" x="146.749" y="112.604" xlink:href="#C0_0_59cd67ac4f"/></g><g clip-path="url(#p0e494a4cc2)"><use style="fill:#ccf900;stroke:#000" x="134.301" y="103.006" xlink:href="#C0_0_59cd67ac4f"/></g><g clip-path="url(#p0e494a4cc2)"><use style="fill:#6d009c;stroke:#000" x="65.316" y="203.832" xlink:href="#C0_0_59cd67ac4f"/></g><g clip-path="url(#p0e494a4cc2)"><use style="fill:#002fdd;stroke:#000" x="97.289" y="131.242" xlink:href="#C0_0_59cd67ac4f"/></g><g clip-path="url(#p0e494a4cc2)"><use style="stroke:#000" x="156.835" y="149.81" xlink:href="#C0_0_59cd67ac4f"/></g><g clip-path="url(#p0e494a4cc2)"><use style="fill:#002fdd;stroke:#000" x="109.495" y="148.21" xlink:href="#C0_0_59cd67ac4f"/></g><g clip-path="url(#p0e494a4cc2)"><use style="fill:#002fdd;stroke:#000" x="91.987" y="124.218" xlink:href="#C0_0_59cd67ac4f"/></g><g clip-path="url(#p0e494a4cc2)"><use style="fill:#002fdd;stroke:#000" x="118.022" y="142.529" xlink:href="#C0_0_59cd67ac4f"/></g><g clip-path="url(#p0e494a4cc2)"><use style="stroke:#000" x="151.769" y="159.117" xlink:href="#C0_0_59cd67ac4f"/></g><g clip-path="url(#p0e494a4cc2)"><use style="fill:#ffad00;stroke:#000" x="173.252" y="159.712" xlink:href="#C0_0_59cd67ac4f"/></g><g clip-path="url(#p0e494a4cc2)"><use style="fill:#6d009c;stroke:#000" x="154.261" y="94.369" xlink:href="#C0_0_59cd67ac4f"/></g><g clip-path="url(#p0e494a4cc2)"><use style="fill:#002fdd;stroke:#000" x="113.993" y="141.987" xlink:href="#C0_0_59cd67ac4f"/></g><g clip-path="url(#p0e494a4cc2)"><use style="fill:#002fdd;stroke:#000" x="102.01" y="151.439" xlink:href="#C0_0_59cd67ac4f"/></g><g clip-path="url(#p0e494a4cc2)"><use style="fill:#002fdd;stroke:#000" x="98.953" y="142.648" xlink:href="#C0_0_59cd67ac4f"/></g><g clip-path="url(#p0e494a4cc2)"><use style="fill:#6d009c;stroke:#000" x="155.807" y="105.414" xlink:href="#C0_0_59cd67ac4f"/></g><g clip-path="url(#p0e494a4cc2)"><use style="fill:#002fdd;stroke:#000" x="117.229" y="142.635" xlink:href="#C0_0_59cd67ac4f"/></g><g clip-path="url(#p0e494a4cc2)"><use style="fill:#ccf900;stroke:#000" x="156.262" y="64.914" xlink:href="#C0_0_59cd67ac4f"/></g><g clip-path="url(#p0e494a4cc2)"><use style="fill:#6d009c;stroke:#000" x="142.219" y="109.348" xlink:href="#C0_0_59cd67ac4f"/></g><g clip-path="url(#p0e494a4cc2)"><use style="fill:#ffad00;stroke:#000" x="200.979" y="175.097" xlink:href="#C0_0_59cd67ac4f"/></g><g clip-path="url(#p0e494a4cc2)"><use style="fill:#6d009c;stroke:#000" x="165.381" y="94.045" xlink:href="#C0_0_59cd67ac4f"/></g><g clip-path="url(#p0e494a4cc2)"><use style="stroke:#000" x="153.026" y="157.494" xlink:href="#C0_0_59cd67ac4f"/></g><g clip-path="url(#p0e494a4cc2)"><use style="fill:#002fdd;stroke:#000" x="100.358" y="151.672" xlink:href="#C0_0_59cd67ac4f"/></g><g clip-path="url(#p0e494a4cc2)"><use style="fill:#6d009c;stroke:#000" x="148.902" y="120.312" xlink:href="#C0_0_59cd67ac4f"/></g><g clip-path="url(#p0e494a4cc2)"><use style="fill:#002fdd;stroke:#000" x="93.089" y="114.22" xlink:href="#C0_0_59cd67ac4f"/></g><g clip-path="url(#p0e494a4cc2)"><use style="stroke:#000" x="135.244" y="132.78" xlink:href="#C0_0_59cd67ac4f"/></g><g clip-path="url(#p0e494a4cc2)"><use style="fill:#002fdd;stroke:#000" x="60.142" y="127.759" xlink:href="#C0_0_59cd67ac4f"/></g><g clip-path="url(#p0e494a4cc2)"><use style="fill:#002fdd;stroke:#000" x="98.797" y="163.383" xlink:href="#C0_0_59cd67ac4f"/></g><g clip-path="url(#p0e494a4cc2)"><use style="fill:#6d009c;stroke:#000" x="155.044" y="91.339" xlink:href="#C0_0_59cd67ac4f"/></g><g clip-path="url(#p0e494a4cc2)"><use style="fill:#002fdd;stroke:#000" x="124.684" y="139.716" xlink:href="#C0_0_59cd67ac4f"/></g><g clip-path="url(#p0e494a4cc2)"><use style="stroke:#000" x="156.463" y="154.104" xlink:href="#C0_0_59cd67ac4f"/></g><g clip-path="url(#p0e494a4cc2)"><use style="stroke:#000" x="140.552" y="161.122" xlink:href="#C0_0_59cd67ac4f"/></g><g clip-path="url(#p0e494a4cc2)"><use style="fill:#6d009c;stroke:#000" x="157.083" y="104.311" xlink:href="#C0_0_59cd67ac4f"/></g><g clip-path="url(#p0e494a4cc2)"><use style="fill:#002fdd;stroke:#000" x="45.249" y="127.462" xlink:href="#C0_0_59cd67ac4f"/></g><g clip-path="url(#p0e494a4cc2)"><use style="fill:#6d009c;stroke:#000" x="157.413" y="123.309" xlink:href="#C0_0_59cd67ac4f"/></g><g clip-path="url(#p0e494a4cc2)"><use style="fill:#002fdd;stroke:#000" x="110.145" y="149.974" xlink:href="#C0_0_59cd67ac4f"/></g><g clip-path="url(#p0e494a4cc2)"><use style="fill:#ffad00;stroke:#000" x="199.372" y="172.904" xlink:href="#C0_0_59cd67ac4f"/></g><g clip-path="url(#p0e494a4cc2)"><use style="fill:#6d009c;stroke:#000" x="147.284" y="126.965" xlink:href="#C0_0_59cd67ac4f"/></g><g clip-path="url(#p0e494a4cc2)"><use style="fill:#6d009c;stroke:#000" x="155.847" y="107.884" xlink:href="#C0_0_59cd67ac4f"/></g><g clip-path="url(#p0e494a4cc2)"><use style="fill:#009b13;stroke:#000" x="119.812" y="155.879" xlink:href="#C0_0_59cd67ac4f"/></g><g clip-path="url(#p0e494a4cc2)"><use style="stroke:#000" x="141.224" y="162.043" xlink:href="#C0_0_59cd67ac4f"/></g><g clip-path="url(#p0e494a4cc2)"><use style="fill:#6d009c;stroke:#000" x="155.245" y="109.886" xlink:href="#C0_0_59cd67ac4f"/></g><g clip-path="url(#p0e494a4cc2)"><use style="fill:#002fdd;stroke:#000" x="68.026" y="142.946" xlink:href="#C0_0_59cd67ac4f"/></g><g clip-path="url(#p0e494a4cc2)"><use style="stroke:#000" x="152.462" y="185.558" xlink:href="#C0_0_59cd67ac4f"/></g><g clip-path="url(#p0e494a4cc2)"><use style="fill:#002fdd;stroke:#000" x="106.318" y="147.519" xlink:href="#C0_0_59cd67ac4f"/></g><g clip-path="url(#p0e494a4cc2)"><use style="fill:#6d009c;stroke:#000" x="145.05" y="101.816" xlink:href="#C0_0_59cd67ac4f"/></g><g clip-path="url(#p0e494a4cc2)"><use style="stroke:#000" x="155.147" y="156.383" xlink:href="#C0_0_59cd67ac4f"/></g><g clip-path="url(#p0e494a4cc2)"><use style="fill:#00a4bb;stroke:#000" x="104.572" y="130.863" xlink:href="#C0_0_59cd67ac4f"/></g><g clip-path="url(#p0e494a4cc2)"><use style="fill:#002fdd;stroke:#000" x="105.052" y="138.655" xlink:href="#C0_0_59cd67ac4f"/></g><g clip-path="url(#p0e494a4cc2)"><use style="stroke:#000" x="150.743" y="163.359" xlink:href="#C0_0_59cd67ac4f"/></g><g clip-path="url(#p0e494a4cc2)"><use style="fill:#002fdd;stroke:#000" x="115.808" y="141.637" xlink:href="#C0_0_59cd67ac4f"/></g><g clip-path="url(#p0e494a4cc2)"><use style="stroke:#000" x="155.858" y="154.117" xlink:href="#C0_0_59cd67ac4f"/></g><g clip-path="url(#p0e494a4cc2)"><use style="fill:#6d009c;stroke:#000" x="157.614" y="121.446" xlink:href="#C0_0_59cd67ac4f"/></g><g clip-path="url(#p0e494a4cc2)"><use style="fill:#002fdd;stroke:#000" x="80.163" y="145.361" xlink:href="#C0_0_59cd67ac4f"/></g><g clip-path="url(#p0e494a4cc2)"><use style="fill:#ffad00;stroke:#000" x="174.753" y="158.403" xlink:href="#C0_0_59cd67ac4f"/></g><g clip-path="url(#p0e494a4cc2)"><use style="fill:#002fdd;stroke:#000" x="160.906" y="79.887" xlink:href="#C0_0_59cd67ac4f"/></g><g clip-path="url(#p0e494a4cc2)"><use style="stroke:#000" x="161.854" y="147.398" xlink:href="#C0_0_59cd67ac4f"/></g><g clip-path="url(#p0e494a4cc2)"><use style="fill:#6d009c;stroke:#000" x="155.564" y="107.507" xlink:href="#C0_0_59cd67ac4f"/></g><g clip-path="url(#p0e494a4cc2)"><use style="fill:#ccf900;stroke:#000" x="106.967" y="44.64" xlink:href="#C0_0_59cd67ac4f"/></g><g clip-path="url(#p0e494a4cc2)"><use style="fill:#002fdd;stroke:#000" x="96.409" y="160.21" xlink:href="#C0_0_59cd67ac4f"/></g><g clip-path="url(#p0e494a4cc2)"><use style="fill:#6d009c;stroke:#000" x="154.341" y="102.155" xlink:href="#C0_0_59cd67ac4f"/></g><g clip-path="url(#p0e494a4cc2)"><use style="fill:#6d009c;stroke:#000" x="154.333" y="107.245" xlink:href="#C0_0_59cd67ac4f"/></g><g clip-path="url(#p0e494a4cc2)"><use style="fill:#6d009c;stroke:#000" x="154.989" y="107.521" xlink:href="#C0_0_59cd67ac4f"/></g><g clip-path="url(#p0e494a4cc2)"><use style="fill:#6d009c;stroke:#000" x="129.689" y="92.749" xlink:href="#C0_0_59cd67ac4f"/></g><g clip-path="url(#p0e494a4cc2)"><use style="fill:#009b13;stroke:#000" x="136.773" y="216.415" xlink:href="#C0_0_59cd67ac4f"/></g><g clip-path="url(#p0e494a4cc2)"><use style="fill:#009b13;stroke:#000" x="134.172" y="204.367" xlink:href="#C0_0_59cd67ac4f"/></g><g clip-path="url(#p0e494a4cc2)"><use style="fill:#6d009c;stroke:#000" x="159.84" y="130.327" xlink:href="#C0_0_59cd67ac4f"/></g><g clip-path="url(#p0e494a4cc2)"><use style="fill:#6d009c;stroke:#000" x="172.395" y="122.017" xlink:href="#C0_0_59cd67ac4f"/></g><g clip-path="url(#p0e494a4cc2)"><use style="fill:#002fdd;stroke:#000" x="88.348" y="125.062" xlink:href="#C0_0_59cd67ac4f"/></g><g clip-path="url(#p0e494a4cc2)"><use style="fill:#6d009c;stroke:#000" x="152.248" y="92.749" xlink:href="#C0_0_59cd67ac4f"/></g><g clip-path="url(#p0e494a4cc2)"><use style="fill:#009b13;stroke:#000" x="156.503" y="224.129" xlink:href="#C0_0_59cd67ac4f"/></g><g clip-path="url(#p0e494a4cc2)"><use style="fill:#002fdd;stroke:#000" x="74.825" y="130.366" xlink:href="#C0_0_59cd67ac4f"/></g><g clip-path="url(#p0e494a4cc2)"><use style="fill:#002fdd;stroke:#000" x="76.474" y="110.078" xlink:href="#C0_0_59cd67ac4f"/></g><g clip-path="url(#p0e494a4cc2)"><use style="fill:#6d009c;stroke:#000" x="159.384" y="126.738" xlink:href="#C0_0_59cd67ac4f"/></g><g clip-path="url(#p0e494a4cc2)"><use style="fill:#6d009c;stroke:#000" x="160.966" y="130.644" xlink:href="#C0_0_59cd67ac4f"/></g><g clip-path="url(#p0e494a4cc2)"><use style="fill:#002fdd;stroke:#000" x="100.441" y="151.556" xlink:href="#C0_0_59cd67ac4f"/></g><g clip-path="url(#p0e494a4cc2)"><use style="fill:#ccf900;stroke:#000" x="175.081" y="83.288" xlink:href="#C0_0_59cd67ac4f"/></g><g clip-path="url(#p0e494a4cc2)"><use style="fill:#00a4bb;stroke:#000" x="162.554" y="212.268" xlink:href="#C0_0_59cd67ac4f"/></g><g clip-path="url(#p0e494a4cc2)"><use style="fill:#002fdd;stroke:#000" x="86.152" y="152.465" xlink:href="#C0_0_59cd67ac4f"/></g><g clip-path="url(#p0e494a4cc2)"><use style="fill:#002fdd;stroke:#000" x="122.779" y="138.804" xlink:href="#C0_0_59cd67ac4f"/></g><g clip-path="url(#p0e494a4cc2)"><use style="fill:#6d009c;stroke:#000" x="155.742" y="112.722" xlink:href="#C0_0_59cd67ac4f"/></g><g clip-path="url(#p0e494a4cc2)"><use style="fill:#ffad00;stroke:#000" x="174.257" y="158.847" xlink:href="#C0_0_59cd67ac4f"/></g><g clip-path="url(#p0e494a4cc2)"><use style="fill:#e40000;stroke:#000" x="153.321" y="143.57" xlink:href="#C0_0_59cd67ac4f"/></g><g clip-path="url(#p0e494a4cc2)"><use style="fill:#6d009c;stroke:#000" x="158.024" y="122.779" xlink:href="#C0_0_59cd67ac4f"/></g><g clip-path="url(#p0e494a4cc2)"><use style="fill:#6d009c;stroke:#000" x="156.888" y="115.666" xlink:href="#C0_0_59cd67ac4f"/></g><g clip-path="url(#p0e494a4cc2)"><use style="fill:#00a4bb;stroke:#000" x="98.197" y="179.344" xlink:href="#C0_0_59cd67ac4f"/></g><g clip-path="url(#p0e494a4cc2)"><use style="fill:#ffad00;stroke:#000" x="199.302" y="172.896" xlink:href="#C0_0_59cd67ac4f"/></g><g clip-path="url(#p0e494a4cc2)"><use style="fill:#002fdd;stroke:#000" x="118.309" y="143.293" xlink:href="#C0_0_59cd67ac4f"/></g><g clip-path="url(#p0e494a4cc2)"><use style="fill:#009b13;stroke:#000" x="161.59" y="226.057" xlink:href="#C0_0_59cd67ac4f"/></g><g clip-path="url(#p0e494a4cc2)"><use style="fill:#009b13;stroke:#000" x="165.286" y="246.24" xlink:href="#C0_0_59cd67ac4f"/></g><g clip-path="url(#p0e494a4cc2)"><use style="fill:#ffad00;stroke:#000" x="167.464" y="178.113" xlink:href="#C0_0_59cd67ac4f"/></g><g clip-path="url(#p0e494a4cc2)"><use style="fill:#ccc;stroke:#000" x="115.036" y="179.202" xlink:href="#C0_0_59cd67ac4f"/></g><g clip-path="url(#p0e494a4cc2)"><use style="stroke:#000" x="121.869" y="122.008" xlink:href="#C0_0_59cd67ac4f"/></g><g clip-path="url(#p0e494a4cc2)"><use style="fill:#e40000;stroke:#000" x="123.276" y="148.8" xlink:href="#C0_0_59cd67ac4f"/></g><g clip-path="url(#p0e494a4cc2)"><use style="fill:#6d009c;stroke:#000" x="155.413" y="112.422" xlink:href="#C0_0_59cd67ac4f"/></g><g clip-path="url(#p0e494a4cc2)"><use style="fill:#002fdd;stroke:#000" x="77.856" y="126.137" xlink:href="#C0_0_59cd67ac4f"/></g><g clip-path="url(#p0e494a4cc2)"><use style="fill:#009b13;stroke:#000" x="173.581" y="106.223" xlink:href="#C0_0_59cd67ac4f"/></g><g clip-path="url(#p0e494a4cc2)"><use style="fill:#e40000;stroke:#000" x="146.196" y="146.659" xlink:href="#C0_0_59cd67ac4f"/></g><g clip-path="url(#p0e494a4cc2)"><use style="fill:#6d009c;stroke:#000" x="156.11" y="123.081" xlink:href="#C0_0_59cd67ac4f"/></g><g clip-path="url(#p0e494a4cc2)"><use style="stroke:#000" x="157.606" y="78.422" xlink:href="#C0_0_59cd67ac4f"/></g><g clip-path="url(#p0e494a4cc2)"><use style="fill:#e40000;stroke:#000" x="155.438" y="171.512" xlink:href="#C0_0_59cd67ac4f"/></g><g clip-path="url(#p0e494a4cc2)"><use style="stroke:#000" x="156.024" y="149.541" xlink:href="#C0_0_59cd67ac4f"/></g><g clip-path="url(#p0e494a4cc2)"><use style="fill:#6d009c;stroke:#000" x="155.838" y="101.561" xlink:href="#C0_0_59cd67ac4f"/></g><g clip-path="url(#p0e494a4cc2)"><use style="fill:#002fdd;stroke:#000" x="69.14" y="119.421" xlink:href="#C0_0_59cd67ac4f"/></g><g clip-path="url(#p0e494a4cc2)"><use style="fill:#6d009c;stroke:#000" x="155.216" y="95.375" xlink:href="#C0_0_59cd67ac4f"/></g><g clip-path="url(#p0e494a4cc2)"><use style="fill:#6d009c;stroke:#000" x="197.985" y="100.067" xlink:href="#C0_0_59cd67ac4f"/></g><g clip-path="url(#p0e494a4cc2)"><use style="fill:#002fdd;stroke:#000" x="56.657" y="164.421" xlink:href="#C0_0_59cd67ac4f"/></g><g clip-path="url(#p0e494a4cc2)"><use style="fill:#002fdd;stroke:#000" x="99.698" y="152.287" xlink:href="#C0_0_59cd67ac4f"/></g><g clip-path="url(#p0e494a4cc2)"><use style="fill:#6d009c;stroke:#000" x="170.248" y="148.703" xlink:href="#C0_0_59cd67ac4f"/></g><g clip-path="url(#p0e494a4cc2)"><use style="fill:#6d009c;stroke:#000" x="151.953" y="84.203" xlink:href="#C0_0_59cd67ac4f"/></g><g clip-path="url(#p0e494a4cc2)"><use style="fill:#002fdd;stroke:#000" x="160.441" y="75.826" xlink:href="#C0_0_59cd67ac4f"/></g><g clip-path="url(#p0e494a4cc2)"><use style="fill:#009b13;stroke:#000" x="150.892" y="215.727" xlink:href="#C0_0_59cd67ac4f"/></g><g clip-path="url(#p0e494a4cc2)"><use style="fill:#ffad00;stroke:#000" x="200.879" y="174.915" xlink:href="#C0_0_59cd67ac4f"/></g><g clip-path="url(#p0e494a4cc2)"><use style="fill:#e40000;stroke:#000" x="176.234" y="152.217" xlink:href="#C0_0_59cd67ac4f"/></g><g clip-path="url(#p0e494a4cc2)"><use style="fill:#009b13;stroke:#000" x="159.805" y="221.407" xlink:href="#C0_0_59cd67ac4f"/></g><g clip-path="url(#p0e494a4cc2)"><use style="fill:#002fdd;stroke:#000" x="85.481" y="147.919" xlink:href="#C0_0_59cd67ac4f"/></g><g clip-path="url(#p0e494a4cc2)"><use style="fill:#002fdd;stroke:#000" x="105.009" y="146.301" xlink:href="#C0_0_59cd67ac4f"/></g><g clip-path="url(#p0e494a4cc2)"><use style="fill:#ffad00;stroke:#000" x="173.54" y="158.388" xlink:href="#C0_0_59cd67ac4f"/></g><g clip-path="url(#p0e494a4cc2)"><use style="fill:#6d009c;stroke:#000" x="151.559" y="98.484" xlink:href="#C0_0_59cd67ac4f"/></g><g clip-path="url(#p0e494a4cc2)"><use style="fill:#ffad00;stroke:#000" x="199.164" y="173.172" xlink:href="#C0_0_59cd67ac4f"/></g><g clip-path="url(#p0e494a4cc2)"><use style="fill:#009b13;stroke:#000" x="123.803" y="157.681" xlink:href="#C0_0_59cd67ac4f"/></g><g clip-path="url(#p0e494a4cc2)"><use style="fill:#009b13;stroke:#000" x="159.14" y="220.211" xlink:href="#C0_0_59cd67ac4f"/></g><g clip-path="url(#p0e494a4cc2)"><use style="fill:#e40000;stroke:#000" x="149.786" y="172.992" xlink:href="#C0_0_59cd67ac4f"/></g><g clip-path="url(#p0e494a4cc2)"><use style="stroke:#000" x="181.914" y="167.188" xlink:href="#C0_0_59cd67ac4f"/></g><g clip-path="url(#p0e494a4cc2)"><use style="fill:#002fdd;stroke:#000" x="162.682" y="78.964" xlink:href="#C0_0_59cd67ac4f"/></g><g clip-path="url(#p0e494a4cc2)"><use style="fill:#002fdd;stroke:#000" x="109.259" y="141.603" xlink:href="#C0_0_59cd67ac4f"/></g><g clip-path="url(#p0e494a4cc2)"><use style="fill:#002fdd;stroke:#000" x="165.4" y="70.471" xlink:href="#C0_0_59cd67ac4f"/></g><g clip-path="url(#p0e494a4cc2)"><use style="stroke:#000" x="157.198" y="152.927" xlink:href="#C0_0_59cd67ac4f"/></g><g clip-path="url(#p0e494a4cc2)"><use style="stroke:#000" x="162.95" y="161.904" xlink:href="#C0_0_59cd67ac4f"/></g><g clip-path="url(#p0e494a4cc2)"><use style="fill:#ccc;stroke:#000" x="158.004" y="62.981" xlink:href="#C0_0_59cd67ac4f"/></g></g><g id="matplotlib.axis_1"><g id="xtick_1"><g id="line2d_1"><defs><path id="m0b98a503d5" d="M 0 0 L 0 3.5" style="stroke:#000;stroke-width:.8"/></defs><g><use style="stroke:#000;stroke-width:.8" x="39.481" y="256.32" xlink:href="#m0b98a503d5"/></g></g><g id="text_1"><defs><path id="DejaVuSans-8722" d="M 10.59375 35.5 L 73.1875 35.5 L 73.1875 27.203125 L 10.59375 27.203125 z"/><path id="DejaVuSans-49" d="M 12.40625 8.296875 L 28.515625 8.296875 L 28.515625 63.921875 L 10.984375 60.40625 L 10.984375 69.390625 L 28.421875 72.90625 L 38.28125 72.90625 L 38.28125 8.296875 L 54.390625 8.296875 L 54.390625 0 L 12.40625 0 z"/><path id="DejaVuSans-48" d="M 31.78125 66.40625 Q 24.171875 66.40625 20.328125 58.90625 Q 16.5 51.421875 16.5 36.375 Q 16.5 21.390625 20.328125 13.890625 Q 24.171875 6.390625 31.78125 6.390625 Q 39.453125 6.390625 43.28125 13.890625 Q 47.125 21.390625 47.125 36.375 Q 47.125 51.421875 43.28125 58.90625 Q 39.453125 66.40625 31.78125 66.40625 z M 31.78125 74.21875 Q 44.046875 74.21875 50.515625 64.515625 Q 56.984375 54.828125 56.984375 36.375 Q 56.984375 17.96875 50.515625 8.265625 Q 44.046875 -1.421875 31.78125 -1.421875 Q 19.53125 -1.421875 13.0625 8.265625 Q 6.59375 17.96875 6.59375 36.375 Q 6.59375 54.828125 13.0625 64.515625 Q 19.53125 74.21875 31.78125 74.21875 z"/></defs><g transform="translate(28.928681 270.918437)scale(0.1 -0.1)"><use xlink:href="#DejaVuSans-8722"/><use x="83.789" xlink:href="#DejaVuSans-49"/><use x="147.412" xlink:href="#DejaVuSans-48"/></g></g></g><g id="xtick_2"><g id="line2d_2"><g><use style="stroke:#000;stroke-width:.8" x="96.617" y="256.32" xlink:href="#m0b98a503d5"/></g></g><g id="text_2"><defs><path id="DejaVuSans-53" d="M 10.796875 72.90625 L 49.515625 72.90625 L 49.515625 64.59375 L 19.828125 64.59375 L 19.828125 46.734375 Q 21.96875 47.46875 24.109375 47.828125 Q 26.265625 48.1875 28.421875 48.1875 Q 40.625 48.1875 47.75 41.5 Q 54.890625 34.8125 54.890625 23.390625 Q 54.890625 11.625 47.5625 5.09375 Q 40.234375 -1.421875 26.90625 -1.421875 Q 22.3125 -1.421875 17.546875 -0.640625 Q 12.796875 0.140625 7.71875 1.703125 L 7.71875 11.625 Q 12.109375 9.234375 16.796875 8.0625 Q 21.484375 6.890625 26.703125 6.890625 Q 35.15625 6.890625 40.078125 11.328125 Q 45.015625 15.765625 45.015625 23.390625 Q 45.015625 31 40.078125 35.4375 Q 35.15625 39.890625 26.703125 39.890625 Q 22.75 39.890625 18.8125 39.015625 Q 14.890625 38.140625 10.796875 36.28125 z"/></defs><g transform="translate(89.245832 270.918437)scale(0.1 -0.1)"><use xlink:href="#DejaVuSans-8722"/><use x="83.789" xlink:href="#DejaVuSans-53"/></g></g></g><g id="xtick_3"><g id="line2d_3"><g><use style="stroke:#000;stroke-width:.8" x="153.753" y="256.32" xlink:href="#m0b98a503d5"/></g></g><g id="text_3"><g transform="translate(150.571576 270.918437)scale(0.1 -0.1)"><use xlink:href="#DejaVuSans-48"/></g></g></g><g id="xtick_4"><g id="line2d_4"><g><use style="stroke:#000;stroke-width:.8" x="210.889" y="256.32" xlink:href="#m0b98a503d5"/></g></g><g id="text_4"><g transform="translate(207.707477 270.918437)scale(0.1 -0.1)"><use xlink:href="#DejaVuSans-53"/></g></g></g></g><g id="matplotlib.axis_2"><g id="ytick_1"><g id="line2d_5"><defs><path id="mcbe8e39cb5" d="M 0 0 L -3.5 0" style="stroke:#000;stroke-width:.8"/></defs><g><use style="stroke:#000;stroke-width:.8" x="36" y="248.568" xlink:href="#mcbe8e39cb5"/></g></g><g id="text_5"><defs><path id="DejaVuSans-50" d="M 19.1875 8.296875 L 53.609375 8.296875 L 53.609375 0 L 7.328125 0 L 7.328125 8.296875 Q 12.9375 14.109375 22.625 23.890625 Q 32.328125 33.6875 34.8125 36.53125 Q 39.546875 41.84375 41.421875 45.53125 Q 43.3125 49.21875 43.3125 52.78125 Q 43.3125 58.59375 39.234375 62.25 Q 35.15625 65.921875 28.609375 65.921875 Q 23.96875 65.921875 18.8125 64.3125 Q 13.671875 62.703125 7.8125 59.421875 L 7.8125 69.390625 Q 13.765625 71.78125 18.9375 73 Q 24.125 74.21875 28.421875 74.21875 Q 39.75 74.21875 46.484375 68.546875 Q 53.21875 62.890625 53.21875 53.421875 Q 53.21875 48.921875 51.53125 44.890625 Q 49.859375 40.875 45.40625 35.40625 Q 44.1875 33.984375 37.640625 27.21875 Q 31.109375 20.453125 19.1875 8.296875 z"/><path id="DejaVuSans-46" d="M 10.6875 12.40625 L 21 12.40625 L 21 0 L 10.6875 0 z"/></defs><g transform="translate(6.734375 252.366973)scale(0.1 -0.1)"><use xlink:href="#DejaVuSans-49"/><use x="63.623" xlink:href="#DejaVuSans-50"/><use x="127.246" xlink:href="#DejaVuSans-46"/><use x="159.033" xlink:href="#DejaVuSans-53"/></g></g></g><g id="ytick_2"><g id="line2d_6"><g><use style="stroke:#000;stroke-width:.8" x="36" y="218.031" xlink:href="#mcbe8e39cb5"/></g></g><g id="text_6"><g transform="translate(6.734375 221.830522)scale(0.1 -0.1)"><use xlink:href="#DejaVuSans-49"/><use x="63.623" xlink:href="#DejaVuSans-53"/><use x="127.246" xlink:href="#DejaVuSans-46"/><use x="159.033" xlink:href="#DejaVuSans-48"/></g></g></g><g id="ytick_3"><g id="line2d_7"><g><use style="stroke:#000;stroke-width:.8" x="36" y="187.495" xlink:href="#mcbe8e39cb5"/></g></g><g id="text_7"><defs><path id="DejaVuSans-55" d="M 8.203125 72.90625 L 55.078125 72.90625 L 55.078125 68.703125 L 28.609375 0 L 18.3125 0 L 43.21875 64.59375 L 8.203125 64.59375 z"/></defs><g transform="translate(6.734375 191.29407)scale(0.1 -0.1)"><use xlink:href="#DejaVuSans-49"/><use x="63.623" xlink:href="#DejaVuSans-55"/><use x="127.246" xlink:href="#DejaVuSans-46"/><use x="159.033" xlink:href="#DejaVuSans-53"/></g></g></g><g id="ytick_4"><g id="line2d_8"><g><use style="stroke:#000;stroke-width:.8" x="36" y="156.958" xlink:href="#mcbe8e39cb5"/></g></g><g id="text_8"><g transform="translate(6.734375 160.757619)scale(0.1 -0.1)"><use xlink:href="#DejaVuSans-50"/><use x="63.623" xlink:href="#DejaVuSans-48"/><use x="127.246" xlink:href="#DejaVuSans-46"/><use x="159.033" xlink:href="#DejaVuSans-48"/></g></g></g><g id="ytick_5"><g id="line2d_9"><g><use style="stroke:#000;stroke-width:.8" x="36" y="126.422" xlink:href="#mcbe8e39cb5"/></g></g><g id="text_9"><g transform="translate(6.734375 130.221167)scale(0.1 -0.1)"><use xlink:href="#DejaVuSans-50"/><use x="63.623" xlink:href="#DejaVuSans-50"/><use x="127.246" xlink:href="#DejaVuSans-46"/><use x="159.033" xlink:href="#DejaVuSans-53"/></g></g></g><g id="ytick_6"><g id="line2d_10"><g><use style="stroke:#000;stroke-width:.8" x="36" y="95.885" xlink:href="#mcbe8e39cb5"/></g></g><g id="text_10"><g transform="translate(6.734375 99.684716)scale(0.1 -0.1)"><use xlink:href="#DejaVuSans-50"/><use x="63.623" xlink:href="#DejaVuSans-53"/><use x="127.246" xlink:href="#DejaVuSans-46"/><use x="159.033" xlink:href="#DejaVuSans-48"/></g></g></g><g id="ytick_7"><g id="line2d_11"><g><use style="stroke:#000;stroke-width:.8" x="36" y="65.349" xlink:href="#mcbe8e39cb5"/></g></g><g id="text_11"><g transform="translate(6.734375 69.148264)scale(0.1 -0.1)"><use xlink:href="#DejaVuSans-50"/><use x="63.623" xlink:href="#DejaVuSans-55"/><use x="127.246" xlink:href="#DejaVuSans-46"/><use x="159.033" xlink:href="#DejaVuSans-53"/></g></g></g><g id="ytick_8"><g id="line2d_12"><g><use style="stroke:#000;stroke-width:.8" x="36" y="34.813" xlink:href="#mcbe8e39cb5"/></g></g><g id="text_12"><defs><path id="DejaVuSans-51" d="M 40.578125 39.3125 Q 47.65625 37.796875 51.625 33 Q 55.609375 28.21875 55.609375 21.1875 Q 55.609375 10.40625 48.1875 4.484375 Q 40.765625 -1.421875 27.09375 -1.421875 Q 22.515625 -1.421875 17.65625 -0.515625 Q 12.796875 0.390625 7.625 2.203125 L 7.625 11.71875 Q 11.71875 9.328125 16.59375 8.109375 Q 21.484375 6.890625 26.8125 6.890625 Q 36.078125 6.890625 40.9375 10.546875 Q 45.796875 14.203125 45.796875 21.1875 Q 45.796875 27.640625 41.28125 31.265625 Q 36.765625 34.90625 28.71875 34.90625 L 20.21875 34.90625 L 20.21875 43.015625 L 29.109375 43.015625 Q 36.375 43.015625 40.234375 45.921875 Q 44.09375 48.828125 44.09375 54.296875 Q 44.09375 59.90625 40.109375 62.90625 Q 36.140625 65.921875 28.71875 65.921875 Q 24.65625 65.921875 20.015625 65.03125 Q 15.375 64.15625 9.8125 62.3125 L 9.8125 71.09375 Q 15.4375 72.65625 20.34375 73.4375 Q 25.25 74.21875 29.59375 74.21875 Q 40.828125 74.21875 47.359375 69.109375 Q 53.90625 64.015625 53.90625 55.328125 Q 53.90625 49.265625 50.4375 45.09375 Q 46.96875 40.921875 40.578125 39.3125 z"/></defs><g transform="translate(6.734375 38.611813)scale(0.1 -0.1)"><use xlink:href="#DejaVuSans-51"/><use x="63.623" xlink:href="#DejaVuSans-48"/><use x="127.246" xlink:href="#DejaVuSans-46"/><use x="159.033" xlink:href="#DejaVuSans-48"/></g></g></g></g><g id="patch_3"><path d="M 36 256.32 L 36 34.56" style="fill:none;stroke:#000;stroke-linecap:square;stroke-linejoin:miter;stroke-width:.8"/></g><g id="patch_4"><path d="M 214.56 256.32 L 214.56 34.56" style="fill:none;stroke:#000;stroke-linecap:square;stroke-linejoin:miter;stroke-width:.8"/></g><g id="patch_5"><path d="M 36 256.32 L 214.56 256.32" style="fill:none;stroke:#000;stroke-linecap:square;stroke-linejoin:miter;stroke-width:.8"/></g><g id="patch_6"><path d="M 36 34.56 L 214.56 34.56" style="fill:none;stroke:#000;stroke-linecap:square;stroke-linejoin:miter;stroke-width:.8"/></g></g><g id="axes_2"><g id="patch_7"><path d="M 225.72 256.32 L 225.72 234.144 L 225.72 56.736 L 225.72 34.56 L 236.808 34.56 L 236.808 56.736 L 236.808 234.144 L 236.808 256.32 z" clip-path="url(#pc322cc5c4a)" style="fill:#fff;stroke:#fff;stroke-linejoin:miter;stroke-width:.01"/></g><g id="QuadMesh_1"><path d="M 225.72 256.32 L 236.808 256.32 L 236.808 234.144 L 225.72 234.144 L 225.72 256.32" clip-path="url(#pc322cc5c4a)"/><path d="M 225.72 234.144 L 236.808 234.144 L 236.808 211.968 L 225.72 211.968 L 225.72 234.144" clip-path="url(#pc322cc5c4a)" style="fill:#6d009c"/><path d="M 225.72 211.968 L 236.808 211.968 L 236.808 189.792 L 225.72 189.792 L 225.72 211.968" clip-path="url(#pc322cc5c4a)" style="fill:#002fdd"/><path d="M 225.72 189.792 L 236.808 189.792 L 236.808 167.616 L 225.72 167.616 L 225.72 189.792" clip-path="url(#pc322cc5c4a)" style="fill:#00a4bb"/><path d="M 225.72 167.616 L 236.808 167.616 L 236.808 145.44 L 225.72 145.44 L 225.72 167.616" clip-path="url(#pc322cc5c4a)" style="fill:#009b13"/><path d="M 225.72 145.44 L 236.808 145.44 L 236.808 123.264 L 225.72 123.264 L 225.72 145.44" clip-path="url(#pc322cc5c4a)" style="fill:#00e200"/><path d="M 225.72 123.264 L 236.808 123.264 L 236.808 101.088 L 225.72 101.088 L 225.72 123.264" clip-path="url(#pc322cc5c4a)" style="fill:#ccf900"/><path d="M 225.72 101.088 L 236.808 101.088 L 236.808 78.912 L 225.72 78.912 L 225.72 101.088" clip-path="url(#pc322cc5c4a)" style="fill:#ffad00"/><path d="M 225.72 78.912 L 236.808 78.912 L 236.808 56.736 L 225.72 56.736 L 225.72 78.912" clip-path="url(#pc322cc5c4a)" style="fill:#e40000"/><path d="M 225.72 56.736 L 236.808 56.736 L 236.808 34.56 L 225.72 34.56 L 225.72 56.736" clip-path="url(#pc322cc5c4a)" style="fill:#ccc"/></g><g id="matplotlib.axis_4"><g id="ytick_9"><g id="line2d_13"><defs><path id="mc2acc2569a" d="M 0 0 L 3.5 0" style="stroke:#000;stroke-width:.8"/></defs><g><use style="stroke:#000;stroke-width:.8" x="236.808" y="245.232" xlink:href="#mc2acc2569a"/></g></g><g id="text_13"><g transform="translate(243.808 249.031219)scale(0.1 -0.1)"><use xlink:href="#DejaVuSans-48"/></g></g></g><g id="ytick_10"><g id="line2d_14"><g><use style="stroke:#000;stroke-width:.8" x="236.808" y="223.056" xlink:href="#mc2acc2569a"/></g></g><g id="text_14"><g transform="translate(243.808 226.855219)scale(0.1 -0.1)"><use xlink:href="#DejaVuSans-49"/></g></g></g><g id="ytick_11"><g id="line2d_15"><g><use style="stroke:#000;stroke-width:.8" x="236.808" y="200.88" xlink:href="#mc2acc2569a"/></g></g><g id="text_15"><g transform="translate(243.808 204.679219)scale(0.1 -0.1)"><use xlink:href="#DejaVuSans-50"/></g></g></g><g id="ytick_12"><g id="line2d_16"><g><use style="stroke:#000;stroke-width:.8" x="236.808" y="178.704" xlink:href="#mc2acc2569a"/></g></g><g id="text_16"><g transform="translate(243.808 182.503219)scale(0.1 -0.1)"><use xlink:href="#DejaVuSans-51"/></g></g></g><g id="ytick_13"><g id="line2d_17"><g><use style="stroke:#000;stroke-width:.8" x="236.808" y="156.528" xlink:href="#mc2acc2569a"/></g></g><g id="text_17"><defs><path id="DejaVuSans-52" d="M 37.796875 64.3125 L 12.890625 25.390625 L 37.796875 25.390625 z M 35.203125 72.90625 L 47.609375 72.90625 L 47.609375 25.390625 L 58.015625 25.390625 L 58.015625 17.1875 L 47.609375 17.1875 L 47.609375 0 L 37.796875 0 L 37.796875 17.1875 L 4.890625 17.1875 L 4.890625 26.703125 z"/></defs><g transform="translate(243.808 160.327219)scale(0.1 -0.1)"><use xlink:href="#DejaVuSans-52"/></g></g></g><g id="ytick_14"><g id="line2d_18"><g><use style="stroke:#000;stroke-width:.8" x="236.808" y="134.352" xlink:href="#mc2acc2569a"/></g></g><g id="text_18"><g transform="translate(243.808 138.151219)scale(0.1 -0.1)"><use xlink:href="#DejaVuSans-53"/></g></g></g><g id="ytick_15"><g id="line2d_19"><g><use style="stroke:#000;stroke-width:.8" x="236.808" y="112.176" xlink:href="#mc2acc2569a"/></g></g><g id="text_19"><defs><path id="DejaVuSans-54" d="M 33.015625 40.375 Q 26.375 40.375 22.484375 35.828125 Q 18.609375 31.296875 18.609375 23.390625 Q 18.609375 15.53125 22.484375 10.953125 Q 26.375 6.390625 33.015625 6.390625 Q 39.65625 6.390625 43.53125 10.953125 Q 47.40625 15.53125 47.40625 23.390625 Q 47.40625 31.296875 43.53125 35.828125 Q 39.65625 40.375 33.015625 40.375 z M 52.59375 71.296875 L 52.59375 62.3125 Q 48.875 64.0625 45.09375 64.984375 Q 41.3125 65.921875 37.59375 65.921875 Q 27.828125 65.921875 22.671875 59.328125 Q 17.53125 52.734375 16.796875 39.40625 Q 19.671875 43.65625 24.015625 45.921875 Q 28.375 48.1875 33.59375 48.1875 Q 44.578125 48.1875 50.953125 41.515625 Q 57.328125 34.859375 57.328125 23.390625 Q 57.328125 12.15625 50.6875 5.359375 Q 44.046875 -1.421875 33.015625 -1.421875 Q 20.359375 -1.421875 13.671875 8.265625 Q 6.984375 17.96875 6.984375 36.375 Q 6.984375 53.65625 15.1875 63.9375 Q 23.390625 74.21875 37.203125 74.21875 Q 40.921875 74.21875 44.703125 73.484375 Q 48.484375 72.75 52.59375 71.296875 z"/></defs><g transform="translate(243.808 115.975219)scale(0.1 -0.1)"><use xlink:href="#DejaVuSans-54"/></g></g></g><g id="ytick_16"><g id="line2d_20"><g><use style="stroke:#000;stroke-width:.8" x="236.808" y="90" xlink:href="#mc2acc2569a"/></g></g><g id="text_20"><g transform="translate(243.808 93.799219)scale(0.1 -0.1)"><use xlink:href="#DejaVuSans-55"/></g></g></g><g id="ytick_17"><g id="line2d_21"><g><use style="stroke:#000;stroke-width:.8" x="236.808" y="67.824" xlink:href="#mc2acc2569a"/></g></g><g id="text_21"><defs><path id="DejaVuSans-56" d="M 31.78125 34.625 Q 24.75 34.625 20.71875 30.859375 Q 16.703125 27.09375 16.703125 20.515625 Q 16.703125 13.921875 20.71875 10.15625 Q 24.75 6.390625 31.78125 6.390625 Q 38.8125 6.390625 42.859375 10.171875 Q 46.921875 13.96875 46.921875 20.515625 Q 46.921875 27.09375 42.890625 30.859375 Q 38.875 34.625 31.78125 34.625 z M 21.921875 38.8125 Q 15.578125 40.375 12.03125 44.71875 Q 8.5 49.078125 8.5 55.328125 Q 8.5 64.0625 14.71875 69.140625 Q 20.953125 74.21875 31.78125 74.21875 Q 42.671875 74.21875 48.875 69.140625 Q 55.078125 64.0625 55.078125 55.328125 Q 55.078125 49.078125 51.53125 44.71875 Q 48 40.375 41.703125 38.8125 Q 48.828125 37.15625 52.796875 32.3125 Q 56.78125 27.484375 56.78125 20.515625 Q 56.78125 9.90625 50.3125 4.234375 Q 43.84375 -1.421875 31.78125 -1.421875 Q 19.734375 -1.421875 13.25 4.234375 Q 6.78125 9.90625 6.78125 20.515625 Q 6.78125 27.484375 10.78125 32.3125 Q 14.796875 37.15625 21.921875 38.8125 z M 18.3125 54.390625 Q 18.3125 48.734375 21.84375 45.5625 Q 25.390625 42.390625 31.78125 42.390625 Q 38.140625 42.390625 41.71875 45.5625 Q 45.3125 48.734375 45.3125 54.390625 Q 45.3125 60.0625 41.71875 63.234375 Q 38.140625 66.40625 31.78125 66.40625 Q 25.390625 66.40625 21.84375 63.234375 Q 18.3125 60.0625 18.3125 54.390625 z"/></defs><g transform="translate(243.808 71.623219)scale(0.1 -0.1)"><use xlink:href="#DejaVuSans-56"/></g></g></g><g id="ytick_18"><g id="line2d_22"><g><use style="stroke:#000;stroke-width:.8" x="236.808" y="45.648" xlink:href="#mc2acc2569a"/></g></g><g id="text_22"><defs><path id="DejaVuSans-57" d="M 10.984375 1.515625 L 10.984375 10.5 Q 14.703125 8.734375 18.5 7.8125 Q 22.3125 6.890625 25.984375 6.890625 Q 35.75 6.890625 40.890625 13.453125 Q 46.046875 20.015625 46.78125 33.40625 Q 43.953125 29.203125 39.59375 26.953125 Q 35.25 24.703125 29.984375 24.703125 Q 19.046875 24.703125 12.671875 31.3125 Q 6.296875 37.9375 6.296875 49.421875 Q 6.296875 60.640625 12.9375 67.421875 Q 19.578125 74.21875 30.609375 74.21875 Q 43.265625 74.21875 49.921875 64.515625 Q 56.59375 54.828125 56.59375 36.375 Q 56.59375 19.140625 48.40625 8.859375 Q 40.234375 -1.421875 26.421875 -1.421875 Q 22.703125 -1.421875 18.890625 -0.6875 Q 15.09375 0.046875 10.984375 1.515625 z M 30.609375 32.421875 Q 37.25 32.421875 41.125 36.953125 Q 45.015625 41.5 45.015625 49.421875 Q 45.015625 57.28125 41.125 61.84375 Q 37.25 66.40625 30.609375 66.40625 Q 23.96875 66.40625 20.09375 61.84375 Q 16.21875 57.28125 16.21875 49.421875 Q 16.21875 41.5 20.09375 36.953125 Q 23.96875 32.421875 30.609375 32.421875 z"/></defs><g transform="translate(243.808 49.447219)scale(0.1 -0.1)"><use xlink:href="#DejaVuSans-57"/></g></g></g></g><g id="patch_8"><path d="M 225.72 256.32 L 225.72 234.144 L 225.72 56.736 L 225.72 34.56 L 236.808 34.56 L 236.808 56.736 L 236.808 234.144 L 236.808 256.32 z" style="fill:none;stroke:#000;stroke-linejoin:miter;stroke-width:.8"/></g></g></g><defs><clipPath id="p0e494a4cc2"><rect width="178.56" height="221.76" x="36" y="34.56"/></clipPath><clipPath id="pc322cc5c4a"><rect width="11.088" height="221.76" x="225.72" y="34.56"/></clipPath></defs></svg>