<svg xmlns="http://www.w3.org/2000/svg" xmlns:xlink="http://www.w3.org/1999/xlink" width="384" height="384" version="1.1" viewBox="0 0 288 288"><defs><style type="text/css">*{stroke-linecap:butt;stroke-linejoin:round}</style></defs><g id="figure_1"><g id="patch_1"><path d="M 0 288 L 288 288 L 288 0 L 0 0 z" style="fill:#fff"/></g><g id="axes_1"><g id="patch_2"><path d="M 36 256.32 L 214.56 256.32 L 214.56 34.56 L 36 34.56 z" style="fill:#fff"/></g><g id="PathCollection_1"><defs><path id="C0_0_1e945bd0fd" d="M 0 3 C 0.795609 3 1.55874 2.683901 2.12132 2.12132 C 2.683901 1.55874 3 0.795609 3 0 C 3 -0.795609 2.683901 -1.55874 2.12132 -2.12132 C 1.55874 -2.683901 0.795609 -3 0 -3 C -0.795609 -3 -1.55874 -2.683901 -2.12132 -2.12132 C -2.683901 -1.55874 -3 -0.795609 -3 0 C -3 0.795609 -2.683901 1.55874 -2.12132 2.12132 C -1.55874 2.683901 -0.795609 3 0 3 z"/></defs><g clip-path="url(#p5076b06d86)"><use style="fill:#6d009c;stroke:#000" x="95.496" y="138.877" xlink:href="#C0_0_1e945bd0fd"/></g><g clip-path="url(#p5076b06d86)"><use style="fill:#002fdd;stroke:#000" x="93.533" y="189.407" xlink:href="#C0_0_1e945bd0fd"/></g><g clip-path="url(#p5076b06d86)"><use style="fill:#002fdd;stroke:#000" x="111.948" y="136.602" xlink:href="#C0_0_1e945bd0fd"/></g><g clip-path="url(#p5076b06d86)"><use style="fill:#002fdd;stroke:#000" x="69.601" y="201.859" xlink:href="#C0_0_1e945bd0fd"/></g><g clip-path="url(#p5076b06d86)"><use style="stroke:#000" x="120.781" y="68.502" xlink:href="#C0_0_1e945bd0fd"/></g><g clip-path="url(#p5076b06d86)"><use style="fill:#e40000;stroke:#000" x="73.695" y="181.899" xlink:href="#C0_0_1e945bd0fd"/></g><g clip-path="url(#p5076b06d86)"><use style="fill:#6d009c;stroke:#000" x="197.011" y="166.504" xlink:href="#C0_0_1e945bd0fd"/></g><g clip-path="url(#p5076b06d86)"><use style="fill:#002fdd;stroke:#000" x="132.075" y="124.718" xlink:href="#C0_0_1e945bd0fd"/></g><g clip-path="url(#p5076b06d86)"><use style="fill:#00e200;stroke:#000" x="57.664" y="178.904" xlink:href="#C0_0_1e945bd0fd"/></g><g clip-path="url(#p5076b06d86)"><use style="fill:#ccc;stroke:#000" x="47.699" y="225.68" xlink:href="#C0_0_1e945bd0fd"/></g><g clip-path="url(#p5076b06d86)"><use style="fill:#002fdd;stroke:#000" x="55.082" y="214.146" xlink:href="#C0_0_1e945bd0fd"/></g><g clip-path="url(#p5076b06d86)"><use style="fill:#002fdd;stroke:#000" x="65.8" y="240.392" xlink:href="#C0_0_1e945bd0fd"/></g><g clip-path="url(#p5076b06d86)"><use style="stroke:#000" x="175.573" y="91.037" xlink:href="#C0_0_1e945bd0fd"/></g><g clip-path="url(#p5076b06d86)"><use style="fill:#ccc;stroke:#000" x="175.841" y="89.279" xlink:href="#C0_0_1e945bd0fd"/></g><g clip-path="url(#p5076b06d86)"><use style="fill:#002fdd;stroke:#000" x="136.875" y="133.96" xlink:href="#C0_0_1e945bd0fd"/></g><g clip-path="url(#p5076b06d86)"><use style="fill:#009b13;stroke:#000" x="100.037" y="226.098" xlink:href="#C0_0_1e945bd0fd"/></g><g clip-path="url(#p5076b06d86)"><use style="fill:#002fdd;stroke:#000" x="86.268" y="104.156" xlink:href="#C0_0_1e945bd0fd"/></g><g clip-path="url(#p5076b06d86)"><use style="stroke:#000" x="105.087" y="74.349" xlink:href="#C0_0_1e945bd0fd"/></g><g clip-path="url(#p5076b06d86)"><use style="fill:#6d009c;stroke:#000" x="95.52" y="157.992" xlink:href="#C0_0_1e945bd0fd"/></g><g clip-path="url(#p5076b06d86)"><use style="fill:#6d009c;stroke:#000" x="115.452" y="89.81" xlink:href="#C0_0_1e945bd0fd"/></g><g clip-path="url(#p5076b06d86)"><use style="stroke:#000" x="130.406" y="142.415" xlink:href="#C0_0_1e945bd0fd"/></g><g clip-path="url(#p5076b06d86)"><use style="fill:#002fdd;stroke:#000" x="99.558" y="173.174" xlink:href="#C0_0_1e945bd0fd"/></g><g clip-path="url(#p5076b06d86)"><use style="fill:#6d009c;stroke:#000" x="191.427" y="107.402" xlink:href="#C0_0_1e945bd0fd"/></g><g clip-path="url(#p5076b06d86)"><use style="fill:#ccc;stroke:#000" x="161.92" y="85.565" xlink:href="#C0_0_1e945bd0fd"/></g><g clip-path="url(#p5076b06d86)"><use style="stroke:#000" x="133.646" y="121.895" xlink:href="#C0_0_1e945bd0fd"/></g><g clip-path="url(#p5076b06d86)"><use style="fill:#00a4bb;stroke:#000" x="75.798" y="236.131" xlink:href="#C0_0_1e945bd0fd"/></g><g clip-path="url(#p5076b06d86)"><use style="fill:#009b13;stroke:#000" x="62.715" y="206.697" xlink:href="#C0_0_1e945bd0fd"/></g><g clip-path="url(#p5076b06d86)"><use style="fill:#009b13;stroke:#000" x="63.006" y="140.557" xlink:href="#C0_0_1e945bd0fd"/></g><g clip-path="url(#p5076b06d86)"><use style="fill:#002fdd;stroke:#000" x="108.915" y="92.56" xlink:href="#C0_0_1e945bd0fd"/></g><g clip-path="url(#p5076b06d86)"><use style="fill:#009b13;stroke:#000" x="99.328" y="228.792" xlink:href="#C0_0_1e945bd0fd"/></g><g clip-path="url(#p5076b06d86)"><use style="fill:#ffad00;stroke:#000" x="178.459" y="50.654" xlink:href="#C0_0_1e945bd0fd"/></g><g clip-path="url(#p5076b06d86)"><use style="fill:#002fdd;stroke:#000" x="127.335" y="136.042" xlink:href="#C0_0_1e945bd0fd"/></g><g clip-path="url(#p5076b06d86)"><use style="fill:#ccc;stroke:#000" x="72.04" y="238.6" xlink:href="#C0_0_1e945bd0fd"/></g><g clip-path="url(#p5076b06d86)"><use style="stroke:#000" x="182.051" y="62.615" xlink:href="#C0_0_1e945bd0fd"/></g><g clip-path="url(#p5076b06d86)"><use style="fill:#6d009c;stroke:#000" x="94.494" y="178.83" xlink:href="#C0_0_1e945bd0fd"/></g><g clip-path="url(#p5076b06d86)"><use style="fill:#6d009c;stroke:#000" x="194.299" y="97.713" xlink:href="#C0_0_1e945bd0fd"/></g><g clip-path="url(#p5076b06d86)"><use style="fill:#ffad00;stroke:#000" x="182.669" y="66.364" xlink:href="#C0_0_1e945bd0fd"/></g><g clip-path="url(#p5076b06d86)"><use style="fill:#e40000;stroke:#000" x="128.672" y="66.631" xlink:href="#C0_0_1e945bd0fd"/></g><g clip-path="url(#p5076b06d86)"><use style="fill:#002fdd;stroke:#000" x="194.408" y="46.299" xlink:href="#C0_0_1e945bd0fd"/></g><g clip-path="url(#p5076b06d86)"><use style="fill:#e40000;stroke:#000" x="200.217" y="72.415" xlink:href="#C0_0_1e945bd0fd"/></g><g clip-path="url(#p5076b06d86)"><use style="fill:#6d009c;stroke:#000" x="145.007" y="79.258" xlink:href="#C0_0_1e945bd0fd"/></g><g clip-path="url(#p5076b06d86)"><use style="fill:#6d009c;stroke:#000" x="95.329" y="130.699" xlink:href="#C0_0_1e945bd0fd"/></g><g clip-path="url(#p5076b06d86)"><use style="fill:#002fdd;stroke:#000" x="152.979" y="143.751" xlink:href="#C0_0_1e945bd0fd"/></g><g clip-path="url(#p5076b06d86)"><use style="fill:#6d009c;stroke:#000" x="165.972" y="57.508" xlink:href="#C0_0_1e945bd0fd"/></g><g clip-path="url(#p5076b06d86)"><use style="fill:#6d009c;stroke:#000" x="150.196" y="88.408" xlink:href="#C0_0_1e945bd0fd"/></g><g clip-path="url(#p5076b06d86)"><use style="fill:#002fdd;stroke:#000" x="75.658" y="152.476" xlink:href="#C0_0_1e945bd0fd"/></g><g clip-path="url(#p5076b06d86)"><use style="fill:#6d009c;stroke:#000" x="157.939" y="51.546" xlink:href="#C0_0_1e945bd0fd"/></g><g clip-path="url(#p5076b06d86)"><use style="fill:#6d009c;stroke:#000" x="125.797" y="138.432" xlink:href="#C0_0_1e945bd0fd"/></g><g clip-path="url(#p5076b06d86)"><use style="fill:#00e200;stroke:#000" x="65.113" y="137.268" xlink:href="#C0_0_1e945bd0fd"/></g><g clip-path="url(#p5076b06d86)"><use style="stroke:#000" x="88.519" y="149.45" xlink:href="#C0_0_1e945bd0fd"/></g><g clip-path="url(#p5076b06d86)"><use style="fill:#6d009c;stroke:#000" x="54.463" y="224.053" xlink:href="#C0_0_1e945bd0fd"/></g><g clip-path="url(#p5076b06d86)"><use style="fill:#e40000;stroke:#000" x="83.6" y="172.774" xlink:href="#C0_0_1e945bd0fd"/></g><g clip-path="url(#p5076b06d86)"><use style="fill:#002fdd;stroke:#000" x="190.666" y="134.071" xlink:href="#C0_0_1e945bd0fd"/></g><g clip-path="url(#p5076b06d86)"><use style="fill:#002fdd;stroke:#000" x="53.37" y="206.61" xlink:href="#C0_0_1e945bd0fd"/></g><g clip-path="url(#p5076b06d86)"><use style="stroke:#000" x="80.539" y="174.328" xlink:href="#C0_0_1e945bd0fd"/></g><g clip-path="url(#p5076b06d86)"><use style="fill:#6d009c;stroke:#000" x="155.816" y="53.989" xlink:href="#C0_0_1e945bd0fd"/></g><g clip-path="url(#p5076b06d86)"><use style="stroke:#000" x="100.686" y="119.615" xlink:href="#C0_0_1e945bd0fd"/></g><g clip-path="url(#p5076b06d86)"><use style="fill:#ffad00;stroke:#000" x="185.952" y="50.388" xlink:href="#C0_0_1e945bd0fd"/></g><g clip-path="url(#p5076b06d86)"><use style="fill:#002fdd;stroke:#000" x="141.526" y="129.253" xlink:href="#C0_0_1e945bd0fd"/></g><g clip-path="url(#p5076b06d86)"><use style="fill:#ffad00;stroke:#000" x="164.472" y="73.718" xlink:href="#C0_0_1e945bd0fd"/></g><g clip-path="url(#p5076b06d86)"><use style="stroke:#000" x="195.014" y="84.967" xlink:href="#C0_0_1e945bd0fd"/></g><g clip-path="url(#p5076b06d86)"><use style="fill:#ccf900;stroke:#000" x="44.116" y="212.823" xlink:href="#C0_0_1e945bd0fd"/></g><g clip-path="url(#p5076b06d86)"><use style="stroke:#000" x="75.262" y="166.139" xlink:href="#C0_0_1e945bd0fd"/></g><g clip-path="url(#p5076b06d86)"><use style="fill:#002fdd;stroke:#000" x="107.653" y="214.207" xlink:href="#C0_0_1e945bd0fd"/></g><g clip-path="url(#p5076b06d86)"><use style="stroke:#000" x="100.93" y="107.676" xlink:href="#C0_0_1e945bd0fd"/></g><g clip-path="url(#p5076b06d86)"><use style="fill:#6d009c;stroke:#000" x="118.625" y="84.97" xlink:href="#C0_0_1e945bd0fd"/></g><g clip-path="url(#p5076b06d86)"><use style="fill:#002fdd;stroke:#000" x="143.339" y="60.234" xlink:href="#C0_0_1e945bd0fd"/></g><g clip-path="url(#p5076b06d86)"><use style="fill:#ffad00;stroke:#000" x="186.46" y="70.744" xlink:href="#C0_0_1e945bd0fd"/></g><g clip-path="url(#p5076b06d86)"><use style="fill:#002fdd;stroke:#000" x="100.247" y="155.37" xlink:href="#C0_0_1e945bd0fd"/></g><g clip-path="url(#p5076b06d86)"><use style="stroke:#000" x="126.862" y="70.593" xlink:href="#C0_0_1e945bd0fd"/></g><g clip-path="url(#p5076b06d86)"><use style="fill:#009b13;stroke:#000" x="202.575" y="69.627" xlink:href="#C0_0_1e945bd0fd"/></g><g clip-path="url(#p5076b06d86)"><use style="fill:#6d009c;stroke:#000" x="197.905" y="154.738" xlink:href="#C0_0_1e945bd0fd"/></g><g clip-path="url(#p5076b06d86)"><use style="stroke:#000" x="115.623" y="64.073" xlink:href="#C0_0_1e945bd0fd"/></g><g clip-path="url(#p5076b06d86)"><use style="fill:#009b13;stroke:#000" x="57.45" y="183.929" xlink:href="#C0_0_1e945bd0fd"/></g><g clip-path="url(#p5076b06d86)"><use style="fill:#6d009c;stroke:#000" x="130.289" y="83.692" xlink:href="#C0_0_1e945bd0fd"/></g><g clip-path="url(#p5076b06d86)"><use style="fill:#002fdd;stroke:#000" x="113.317" y="138.898" xlink:href="#C0_0_1e945bd0fd"/></g><g clip-path="url(#p5076b06d86)"><use style="fill:#6d009c;stroke:#000" x="82.565" y="210.941" xlink:href="#C0_0_1e945bd0fd"/></g><g clip-path="url(#p5076b06d86)"><use style="fill:#002fdd;stroke:#000" x="201.648" y="67.008" xlink:href="#C0_0_1e945bd0fd"/></g><g clip-path="url(#p5076b06d86)"><use style="stroke:#000" x="76.142" y="187.175" xlink:href="#C0_0_1e945bd0fd"/></g><g clip-path="url(#p5076b06d86)"><use style="fill:#6d009c;stroke:#000" x="187.96" y="96.534" xlink:href="#C0_0_1e945bd0fd"/></g><g clip-path="url(#p5076b06d86)"><use style="fill:#002fdd;stroke:#000" x="206.444" y="159.965" xlink:href="#C0_0_1e945bd0fd"/></g><g clip-path="url(#p5076b06d86)"><use style="fill:#6d009c;stroke:#000" x="141.014" y="85.151" xlink:href="#C0_0_1e945bd0fd"/></g><g clip-path="url(#p5076b06d86)"><use style="fill:#6d009c;stroke:#000" x="100.58" y="161.833" xlink:href="#C0_0_1e945bd0fd"/></g><g clip-path="url(#p5076b06d86)"><use style="fill:#002fdd;stroke:#000" x="143.924" y="123.982" xlink:href="#C0_0_1e945bd0fd"/></g><g clip-path="url(#p5076b06d86)"><use style="fill:#002fdd;stroke:#000" x="193.076" y="125.777" xlink:href="#C0_0_1e945bd0fd"/></g><g clip-path="url(#p5076b06d86)"><use style="fill:#6d009c;stroke:#000" x="193.021" y="162.245" xlink:href="#C0_0_1e945bd0fd"/></g><g clip-path="url(#p5076b06d86)"><use style="fill:#ffad00;stroke:#000" x="140.041" y="143.66" xlink:href="#C0_0_1e945bd0fd"/></g><g clip-path="url(#p5076b06d86)"><use style="fill:#002fdd;stroke:#000" x="192.9" y="166.559" xlink:href="#C0_0_1e945bd0fd"/></g><g clip-path="url(#p5076b06d86)"><use style="fill:#6d009c;stroke:#000" x="108.719" y="146.91" xlink:href="#C0_0_1e945bd0fd"/></g><g clip-path="url(#p5076b06d86)"><use style="fill:#ccf900;stroke:#000" x="73.166" y="240.54" xlink:href="#C0_0_1e945bd0fd"/></g><g clip-path="url(#p5076b06d86)"><use style="fill:#6d009c;stroke:#000" x="197.824" y="149.388" xlink:href="#C0_0_1e945bd0fd"/></g><g clip-path="url(#p5076b06d86)"><use style="fill:#002fdd;stroke:#000" x="166.627" y="149.188" xlink:href="#C0_0_1e945bd0fd"/></g><g clip-path="url(#p5076b06d86)"><use style="stroke:#000" x="183.689" y="81.674" xlink:href="#C0_0_1e945bd0fd"/></g><g clip-path="url(#p5076b06d86)"><use style="fill:#002fdd;stroke:#000" x="107.677" y="83.655" xlink:href="#C0_0_1e945bd0fd"/></g><g clip-path="url(#p5076b06d86)"><use style="fill:#002fdd;stroke:#000" x="188.425" y="144.7" xlink:href="#C0_0_1e945bd0fd"/></g><g clip-path="url(#p5076b06d86)"><use style="fill:#002fdd;stroke:#000" x="73.242" y="131.757" xlink:href="#C0_0_1e945bd0fd"/></g><g clip-path="url(#p5076b06d86)"><use style="stroke:#000" x="109.313" y="59.399" xlink:href="#C0_0_1e945bd0fd"/></g><g clip-path="url(#p5076b06d86)"><use style="fill:#ffad00;stroke:#000" x="107.394" y="199.881" xlink:href="#C0_0_1e945bd0fd"/></g><g clip-path="url(#p5076b06d86)"><use style="fill:#6d009c;stroke:#000" x="63.254" y="220.707" xlink:href="#C0_0_1e945bd0fd"/></g><g clip-path="url(#p5076b06d86)"><use style="fill:#002fdd;stroke:#000" x="132.41" y="143.466" xlink:href="#C0_0_1e945bd0fd"/></g><g clip-path="url(#p5076b06d86)"><use style="fill:#002fdd;stroke:#000" x="115.438" y="72.308" xlink:href="#C0_0_1e945bd0fd"/></g><g clip-path="url(#p5076b06d86)"><use style="fill:#002fdd;stroke:#000" x="153.469" y="54.57" xlink:href="#C0_0_1e945bd0fd"/></g><g clip-path="url(#p5076b06d86)"><use style="fill:#6d009c;stroke:#000" x="81.143" y="206.231" xlink:href="#C0_0_1e945bd0fd"/></g><g clip-path="url(#p5076b06d86)"><use style="fill:#002fdd;stroke:#000" x="137.261" y="129.113" xlink:href="#C0_0_1e945bd0fd"/></g><g clip-path="url(#p5076b06d86)"><use style="fill:#ccf900;stroke:#000" x="46.492" y="221.996" xlink:href="#C0_0_1e945bd0fd"/></g><g clip-path="url(#p5076b06d86)"><use style="fill:#6d009c;stroke:#000" x="110.74" y="127.298" xlink:href="#C0_0_1e945bd0fd"/></g><g clip-path="url(#p5076b06d86)"><use style="fill:#ffad00;stroke:#000" x="195.571" y="50.192" xlink:href="#C0_0_1e945bd0fd"/></g><g clip-path="url(#p5076b06d86)"><use style="fill:#6d009c;stroke:#000" x="63.315" y="246.24" xlink:href="#C0_0_1e945bd0fd"/></g><g clip-path="url(#p5076b06d86)"><use style="stroke:#000" x="109.754" y="60.73" xlink:href="#C0_0_1e945bd0fd"/></g><g clip-path="url(#p5076b06d86)"><use style="fill:#002fdd;stroke:#000" x="140.182" y="68.286" xlink:href="#C0_0_1e945bd0fd"/></g><g clip-path="url(#p5076b06d86)"><use style="fill:#6d009c;stroke:#000" x="126.448" y="96.762" xlink:href="#C0_0_1e945bd0fd"/></g><g clip-path="url(#p5076b06d86)"><use style="fill:#002fdd;stroke:#000" x="187.798" y="153.596" xlink:href="#C0_0_1e945bd0fd"/></g><g clip-path="url(#p5076b06d86)"><use style="stroke:#000" x="87.415" y="101.054" xlink:href="#C0_0_1e945bd0fd"/></g><g clip-path="url(#p5076b06d86)"><use style="fill:#002fdd;stroke:#000" x="205.232" y="156.165" xlink:href="#C0_0_1e945bd0fd"/></g><g clip-path="url(#p5076b06d86)"><use style="fill:#002fdd;stroke:#000" x="85.202" y="180.063" xlink:href="#C0_0_1e945bd0fd"/></g><g clip-path="url(#p5076b06d86)"><use style="fill:#6d009c;stroke:#000" x="61.301" y="230.307" xlink:href="#C0_0_1e945bd0fd"/></g><g clip-path="url(#p5076b06d86)"><use style="fill:#002fdd;stroke:#000" x="89.465" y="218.56" xlink:href="#C0_0_1e945bd0fd"/></g><g clip-path="url(#p5076b06d86)"><use style="stroke:#000" x="179.354" y="56.193" xlink:href="#C0_0_1e945bd0fd"/></g><g clip-path="url(#p5076b06d86)"><use style="stroke:#000" x="70.871" y="160.616" xlink:href="#C0_0_1e945bd0fd"/></g><g clip-path="url(#p5076b06d86)"><use style="fill:#6d009c;stroke:#000" x="90.615" y="197.206" xlink:href="#C0_0_1e945bd0fd"/></g><g clip-path="url(#p5076b06d86)"><use style="fill:#002fdd;stroke:#000" x="205.128" y="159.502" xlink:href="#C0_0_1e945bd0fd"/></g><g clip-path="url(#p5076b06d86)"><use style="fill:#6d009c;stroke:#000" x="140.302" y="77.244" xlink:href="#C0_0_1e945bd0fd"/></g><g clip-path="url(#p5076b06d86)"><use style="fill:#002fdd;stroke:#000" x="101.526" y="87.629" xlink:href="#C0_0_1e945bd0fd"/></g><g clip-path="url(#p5076b06d86)"><use style="fill:#ffad00;stroke:#000" x="185.324" y="48.636" xlink:href="#C0_0_1e945bd0fd"/></g><g clip-path="url(#p5076b06d86)"><use style="fill:#6d009c;stroke:#000" x="141.252" y="76.79" xlink:href="#C0_0_1e945bd0fd"/></g><g clip-path="url(#p5076b06d86)"><use style="fill:#6d009c;stroke:#000" x="95.303" y="165.71" xlink:href="#C0_0_1e945bd0fd"/></g><g clip-path="url(#p5076b06d86)"><use style="fill:#009b13;stroke:#000" x="129.791" y="138.549" xlink:href="#C0_0_1e945bd0fd"/></g><g clip-path="url(#p5076b06d86)"><use style="stroke:#000" x="75.618" y="188.405" xlink:href="#C0_0_1e945bd0fd"/></g><g clip-path="url(#p5076b06d86)"><use style="fill:#6d009c;stroke:#000" x="93.127" y="119.984" xlink:href="#C0_0_1e945bd0fd"/></g><g clip-path="url(#p5076b06d86)"><use style="fill:#002fdd;stroke:#000" x="202.261" y="157.181" xlink:href="#C0_0_1e945bd0fd"/></g><g clip-path="url(#p5076b06d86)"><use style="stroke:#000" x="101.307" y="95.697" xlink:href="#C0_0_1e945bd0fd"/></g><g clip-path="url(#p5076b06d86)"><use style="fill:#002fdd;stroke:#000" x="107.161" y="156.22" xlink:href="#C0_0_1e945bd0fd"/></g><g clip-path="url(#p5076b06d86)"><use style="fill:#6d009c;stroke:#000" x="103.125" y="163.949" xlink:href="#C0_0_1e945bd0fd"/></g><g clip-path="url(#p5076b06d86)"><use style="stroke:#000" x="112.191" y="204.565" xlink:href="#C0_0_1e945bd0fd"/></g><g clip-path="url(#p5076b06d86)"><use style="fill:#00a4bb;stroke:#000" x="163.003" y="148.759" xlink:href="#C0_0_1e945bd0fd"/></g><g clip-path="url(#p5076b06d86)"><use style="fill:#002fdd;stroke:#000" x="160.12" y="150.08" xlink:href="#C0_0_1e945bd0fd"/></g><g clip-path="url(#p5076b06d86)"><use style="stroke:#000" x="101.65" y="83.694" xlink:href="#C0_0_1e945bd0fd"/></g><g clip-path="url(#p5076b06d86)"><use style="fill:#002fdd;stroke:#000" x="136.873" y="111.354" xlink:href="#C0_0_1e945bd0fd"/></g><g clip-path="url(#p5076b06d86)"><use style="stroke:#000" x="160.16" y="73.193" xlink:href="#C0_0_1e945bd0fd"/></g><g clip-path="url(#p5076b06d86)"><use style="fill:#6d009c;stroke:#000" x="134.077" y="70.564" xlink:href="#C0_0_1e945bd0fd"/></g><g clip-path="url(#p5076b06d86)"><use style="fill:#002fdd;stroke:#000" x="200.689" y="75.913" xlink:href="#C0_0_1e945bd0fd"/></g><g clip-path="url(#p5076b06d86)"><use style="fill:#ffad00;stroke:#000" x="94.956" y="101.292" xlink:href="#C0_0_1e945bd0fd"/></g><g clip-path="url(#p5076b06d86)"><use style="fill:#002fdd;stroke:#000" x="65.08" y="227.673" xlink:href="#C0_0_1e945bd0fd"/></g><g clip-path="url(#p5076b06d86)"><use style="stroke:#000" x="186.664" y="47.331" xlink:href="#C0_0_1e945bd0fd"/></g><g clip-path="url(#p5076b06d86)"><use style="fill:#6d009c;stroke:#000" x="91.865" y="152.753" xlink:href="#C0_0_1e945bd0fd"/></g><g clip-path="url(#p5076b06d86)"><use style="fill:#ccf900;stroke:#000" x="44.122" y="214.264" xlink:href="#C0_0_1e945bd0fd"/></g><g clip-path="url(#p5076b06d86)"><use style="fill:#002fdd;stroke:#000" x="188.714" y="44.64" xlink:href="#C0_0_1e945bd0fd"/></g><g clip-path="url(#p5076b06d86)"><use style="fill:#6d009c;stroke:#000" x="75.774" y="207.07" xlink:href="#C0_0_1e945bd0fd"/></g><g clip-path="url(#p5076b06d86)"><use style="fill:#6d009c;stroke:#000" x="96.222" y="181.47" xlink:href="#C0_0_1e945bd0fd"/></g><g clip-path="url(#p5076b06d86)"><use style="fill:#6d009c;stroke:#000" x="97.311" y="170.728" xlink:href="#C0_0_1e945bd0fd"/></g><g clip-path="url(#p5076b06d86)"><use style="fill:#6d009c;stroke:#000" x="56.092" y="241.945" xlink:href="#C0_0_1e945bd0fd"/></g><g clip-path="url(#p5076b06d86)"><use style="fill:#009b13;stroke:#000" x="59.358" y="166.665" xlink:href="#C0_0_1e945bd0fd"/></g><g clip-path="url(#p5076b06d86)"><use style="fill:#009b13;stroke:#000" x="63.892" y="146.217" xlink:href="#C0_0_1e945bd0fd"/></g><g clip-path="url(#p5076b06d86)"><use style="fill:#6d009c;stroke:#000" x="180.03" y="79.573" xlink:href="#C0_0_1e945bd0fd"/></g><g clip-path="url(#p5076b06d86)"><use style="fill:#6d009c;stroke:#000" x="154.962" y="48.989" xlink:href="#C0_0_1e945bd0fd"/></g><g clip-path="url(#p5076b06d86)"><use style="fill:#002fdd;stroke:#000" x="185.624" y="139.931" xlink:href="#C0_0_1e945bd0fd"/></g><g clip-path="url(#p5076b06d86)"><use style="fill:#6d009c;stroke:#000" x="57.384" y="236.095" xlink:href="#C0_0_1e945bd0fd"/></g><g clip-path="url(#p5076b06d86)"><use style="fill:#009b13;stroke:#000" x="111.346" y="213.113" xlink:href="#C0_0_1e945bd0fd"/></g><g clip-path="url(#p5076b06d86)"><use style="fill:#002fdd;stroke:#000" x="190.063" y="112.784" xlink:href="#C0_0_1e945bd0fd"/></g><g clip-path="url(#p5076b06d86)"><use style="fill:#002fdd;stroke:#000" x="199.869" y="135.447" xlink:href="#C0_0_1e945bd0fd"/></g><g clip-path="url(#p5076b06d86)"><use style="fill:#6d009c;stroke:#000" x="153.547" y="70.468" xlink:href="#C0_0_1e945bd0fd"/></g><g clip-path="url(#p5076b06d86)"><use style="fill:#6d009c;stroke:#000" x="184.847" y="72.18" xlink:href="#C0_0_1e945bd0fd"/></g><g clip-path="url(#p5076b06d86)"><use style="fill:#002fdd;stroke:#000" x="150.664" y="66.829" xlink:href="#C0_0_1e945bd0fd"/></g><g clip-path="url(#p5076b06d86)"><use style="fill:#ccf900;stroke:#000" x="53.122" y="205.762" xlink:href="#C0_0_1e945bd0fd"/></g><g clip-path="url(#p5076b06d86)"><use style="fill:#00a4bb;stroke:#000" x="100.978" y="223.787" xlink:href="#C0_0_1e945bd0fd"/></g><g clip-path="url(#p5076b06d86)"><use style="fill:#002fdd;stroke:#000" x="191.734" y="61.595" xlink:href="#C0_0_1e945bd0fd"/></g><g clip-path="url(#p5076b06d86)"><use style="fill:#002fdd;stroke:#000" x="94.031" y="159.957" xlink:href="#C0_0_1e945bd0fd"/></g><g clip-path="url(#p5076b06d86)"><use style="fill:#6d009c;stroke:#000" x="109.941" y="76.985" xlink:href="#C0_0_1e945bd0fd"/></g><g clip-path="url(#p5076b06d86)"><use style="fill:#ffad00;stroke:#000" x="134.256" y="89.055" xlink:href="#C0_0_1e945bd0fd"/></g><g clip-path="url(#p5076b06d86)"><use style="fill:#e40000;stroke:#000" x="186.067" y="82.871" xlink:href="#C0_0_1e945bd0fd"/></g><g clip-path="url(#p5076b06d86)"><use style="fill:#6d009c;stroke:#000" x="132.629" y="87.352" xlink:href="#C0_0_1e945bd0fd"/></g><g clip-path="url(#p5076b06d86)"><use style="fill:#6d009c;stroke:#000" x="118.856" y="87.043" xlink:href="#C0_0_1e945bd0fd"/></g><g clip-path="url(#p5076b06d86)"><use style="fill:#00a4bb;stroke:#000" x="198.563" y="130.971" xlink:href="#C0_0_1e945bd0fd"/></g><g clip-path="url(#p5076b06d86)"><use style="fill:#ffad00;stroke:#000" x="177.502" y="87.391" xlink:href="#C0_0_1e945bd0fd"/></g><g clip-path="url(#p5076b06d86)"><use style="fill:#002fdd;stroke:#000" x="73.553" y="127.95" xlink:href="#C0_0_1e945bd0fd"/></g><g clip-path="url(#p5076b06d86)"><use style="fill:#009b13;stroke:#000" x="111.628" y="206.826" xlink:href="#C0_0_1e945bd0fd"/></g><g clip-path="url(#p5076b06d86)"><use style="fill:#009b13;stroke:#000" x="93.531" y="225.692" xlink:href="#C0_0_1e945bd0fd"/></g><g clip-path="url(#p5076b06d86)"><use style="fill:#ffad00;stroke:#000" x="159.459" y="150.436" xlink:href="#C0_0_1e945bd0fd"/></g><g clip-path="url(#p5076b06d86)"><use style="fill:#ccc;stroke:#000" x="102.85" y="80.205" xlink:href="#C0_0_1e945bd0fd"/></g><g clip-path="url(#p5076b06d86)"><use style="stroke:#000" x="191.448" y="146.881" xlink:href="#C0_0_1e945bd0fd"/></g><g clip-path="url(#p5076b06d86)"><use style="fill:#e40000;stroke:#000" x="77.302" y="124.301" xlink:href="#C0_0_1e945bd0fd"/></g><g clip-path="url(#p5076b06d86)"><use style="fill:#6d009c;stroke:#000" x="104.795" y="139.334" xlink:href="#C0_0_1e945bd0fd"/></g><g clip-path="url(#p5076b06d86)"><use style="fill:#002fdd;stroke:#000" x="197.804" y="133.839" xlink:href="#C0_0_1e945bd0fd"/></g><g clip-path="url(#p5076b06d86)"><use style="fill:#009b13;stroke:#000" x="77.644" y="232.086" xlink:href="#C0_0_1e945bd0fd"/></g><g clip-path="url(#p5076b06d86)"><use style="fill:#e40000;stroke:#000" x="180.494" y="109.806" xlink:href="#C0_0_1e945bd0fd"/></g><g clip-path="url(#p5076b06d86)"><use style="fill:#6d009c;stroke:#000" x="147.114" y="62.218" xlink:href="#C0_0_1e945bd0fd"/></g><g clip-path="url(#p5076b06d86)"><use style="stroke:#000" x="53.792" y="222.865" xlink:href="#C0_0_1e945bd0fd"/></g><g clip-path="url(#p5076b06d86)"><use style="fill:#e40000;stroke:#000" x="96.425" y="106.53" xlink:href="#C0_0_1e945bd0fd"/></g><g clip-path="url(#p5076b06d86)"><use style="stroke:#000" x="177.814" y="94.959" xlink:href="#C0_0_1e945bd0fd"/></g><g clip-path="url(#p5076b06d86)"><use style="fill:#6d009c;stroke:#000" x="75.118" y="216.042" xlink:href="#C0_0_1e945bd0fd"/></g><g clip-path="url(#p5076b06d86)"><use style="fill:#002fdd;stroke:#000" x="200.866" y="143.13" xlink:href="#C0_0_1e945bd0fd"/></g><g clip-path="url(#p5076b06d86)"><use style="fill:#6d009c;stroke:#000" x="63.275" y="236.643" xlink:href="#C0_0_1e945bd0fd"/></g><g clip-path="url(#p5076b06d86)"><use style="fill:#6d009c;stroke:#000" x="63.087" y="243.301" xlink:href="#C0_0_1e945bd0fd"/></g><g clip-path="url(#p5076b06d86)"><use style="fill:#002fdd;stroke:#000" x="194.092" y="159.604" xlink:href="#C0_0_1e945bd0fd"/></g><g clip-path="url(#p5076b06d86)"><use style="fill:#002fdd;stroke:#000" x="151.999" y="65.801" xlink:href="#C0_0_1e945bd0fd"/></g><g clip-path="url(#p5076b06d86)"><use style="fill:#6d009c;stroke:#000" x="193.955" y="148.513" xlink:href="#C0_0_1e945bd0fd"/></g><g clip-path="url(#p5076b06d86)"><use style="fill:#6d009c;stroke:#000" x="59.38" y="235.241" xlink:href="#C0_0_1e945bd0fd"/></g><g clip-path="url(#p5076b06d86)"><use style="fill:#002fdd;stroke:#000" x="57.207" y="235.446" xlink:href="#C0_0_1e945bd0fd"/></g><g clip-path="url(#p5076b06d86)"><use style="fill:#009b13;stroke:#000" x="61.754" y="179.521" xlink:href="#C0_0_1e945bd0fd"/></g><g clip-path="url(#p5076b06d86)"><use style="fill:#ffad00;stroke:#000" x="194.115" y="58.112" xlink:href="#C0_0_1e945bd0fd"/></g><g clip-path="url(#p5076b06d86)"><use style="fill:#e40000;stroke:#000" x="173.398" y="47.015" xlink:href="#C0_0_1e945bd0fd"/></g><g clip-path="url(#p5076b06d86)"><use style="fill:#009b13;stroke:#000" x="103.501" y="215.698" xlink:href="#C0_0_1e945bd0fd"/></g><g clip-path="url(#p5076b06d86)"><use style="fill:#002fdd;stroke:#000" x="198.842" y="68.281" xlink:href="#C0_0_1e945bd0fd"/></g><g clip-path="url(#p5076b06d86)"><use style="fill:#002fdd;stroke:#000" x="111.367" y="64.265" xlink:href="#C0_0_1e945bd0fd"/></g><g clip-path="url(#p5076b06d86)"><use style="fill:#ffad00;stroke:#000" x="82.413" y="117.06" xlink:href="#C0_0_1e945bd0fd"/></g><g clip-path="url(#p5076b06d86)"><use style="fill:#6d009c;stroke:#000" x="75.113" y="220.859" xlink:href="#C0_0_1e945bd0fd"/></g><g clip-path="url(#p5076b06d86)"><use style="fill:#ffad00;stroke:#000" x="183.799" y="64.981" xlink:href="#C0_0_1e945bd0fd"/></g><g clip-path="url(#p5076b06d86)"><use style="fill:#009b13;stroke:#000" x="75.183" y="131.738" xlink:href="#C0_0_1e945bd0fd"/></g><g clip-path="url(#p5076b06d86)"><use style="fill:#009b13;stroke:#000" x="99.318" y="219.687" xlink:href="#C0_0_1e945bd0fd"/></g><g clip-path="url(#p5076b06d86)"><use style="fill:#e40000;stroke:#000" x="84.943" y="153.799" xlink:href="#C0_0_1e945bd0fd"/></g><g clip-path="url(#p5076b06d86)"><use style="stroke:#000" x="123.522" y="143.764" xlink:href="#C0_0_1e945bd0fd"/></g><g clip-path="url(#p5076b06d86)"><use style="fill:#002fdd;stroke:#000" x="71.319" y="215.065" xlink:href="#C0_0_1e945bd0fd"/></g><g clip-path="url(#p5076b06d86)"><use style="fill:#002fdd;stroke:#000" x="155.404" y="148.213" xlink:href="#C0_0_1e945bd0fd"/></g><g clip-path="url(#p5076b06d86)"><use style="fill:#002fdd;stroke:#000" x="58.951" y="204.012" xlink:href="#C0_0_1e945bd0fd"/></g><g clip-path="url(#p5076b06d86)"><use style="stroke:#000" x="161.984" y="73.403" xlink:href="#C0_0_1e945bd0fd"/></g><g clip-path="url(#p5076b06d86)"><use style="stroke:#000" x="124.541" y="84.875" xlink:href="#C0_0_1e945bd0fd"/></g><g clip-path="url(#p5076b06d86)"><use style="fill:#ccc;stroke:#000" x="45.383" y="219.241" xlink:href="#C0_0_1e945bd0fd"/></g></g><g id="matplotlib.axis_1"><g id="xtick_1"><g id="line2d_1"><defs><path id="mc1b2af6f2f" d="M 0 0 L 0 3.5" style="stroke:#000;stroke-width:.8"/></defs><g><use style="stroke:#000;stroke-width:.8" x="55.237" y="256.32" xlink:href="#mc1b2af6f2f"/></g></g><g id="text_1"><defs><path id="DejaVuSans-50" d="M 19.1875 8.296875 L 53.609375 8.296875 L 53.609375 0 L 7.328125 0 L 7.328125 8.296875 Q 12.9375 14.109375 22.625 23.890625 Q 32.328125 33.6875 34.8125 36.53125 Q 39.546875 41.84375 41.421875 45.53125 Q 43.3125 49.21875 43.3125 52.78125 Q 43.3125 58.59375 39.234375 62.25 Q 35.15625 65.921875 28.609375 65.921875 Q 23.96875 65.921875 18.8125 64.3125 Q 13.671875 62.703125 7.8125 59.421875 L 7.8125 69.390625 Q 13.765625 71.78125 18.9375 73 Q 24.125 74.21875 28.421875 74.21875 Q 39.75 74.21875 46.484375 68.546875 Q 53.21875 62.890625 53.21875 53.421875 Q 53.21875 48.921875 51.53125 44.890625 Q 49.859375 40.875 45.40625 35.40625 Q 44.1875 33.984375 37.640625 27.21875 Q 31.109375 20.453125 19.1875 8.296875 z"/><path id="DejaVuSans-46" d="M 10.6875 12.40625 L 21 12.40625 L 21 0 L 10.6875 0 z"/><path id="DejaVuSans-53" d="M 10.796875 72.90625 L 49.515625 72.90625 L 49.515625 64.59375 L 19.828125 64.59375 L 19.828125 46.734375 Q 21.96875 47.46875 24.109375 47.828125 Q 26.265625 48.1875 28.421875 48.1875 Q 40.625 48.1875 47.75 41.5 Q 54.890625 34.8125 54.890625 23.390625 Q 54.890625 11.625 47.5625 5.09375 Q 40.234375 -1.421875 26.90625 -1.421875 Q 22.3125 -1.421875 17.546875 -0.640625 Q 12.796875 0.140625 7.71875 1.703125 L 7.71875 11.625 Q 12.109375 9.234375 16.796875 8.0625 Q 21.484375 6.890625 26.703125 6.890625 Q 35.15625 6.890625 40.078125 11.328125 Q 45.015625 15.765625 45.015625 23.390625 Q 45.015625 31 40.078125 35.4375 Q 35.15625 39.890625 26.703125 39.890625 Q 22.75 39.890625 18.8125 39.015625 Q 14.890625 38.140625 10.796875 36.28125 z"/></defs><g transform="translate(47.285564 270.918437)scale(0.1 -0.1)"><use xlink:href="#DejaVuSans-50"/><use x="63.623" xlink:href="#DejaVuSans-46"/><use x="95.41" xlink:href="#DejaVuSans-53"/></g></g></g><g id="xtick_2"><g id="line2d_2"><g><use style="stroke:#000;stroke-width:.8" x="97.408" y="256.32" xlink:href="#mc1b2af6f2f"/></g></g><g id="text_2"><defs><path id="DejaVuSans-48" d="M 31.78125 66.40625 Q 24.171875 66.40625 20.328125 58.90625 Q 16.5 51.421875 16.5 36.375 Q 16.5 21.390625 20.328125 13.890625 Q 24.171875 6.390625 31.78125 6.390625 Q 39.453125 6.390625 43.28125 13.890625 Q 47.125 21.390625 47.125 36.375 Q 47.125 51.421875 43.28125 58.90625 Q 39.453125 66.40625 31.78125 66.40625 z M 31.78125 74.21875 Q 44.046875 74.21875 50.515625 64.515625 Q 56.984375 54.828125 56.984375 36.375 Q 56.984375 17.96875 50.515625 8.265625 Q 44.046875 -1.421875 31.78125 -1.421875 Q 19.53125 -1.421875 13.0625 8.265625 Q 6.59375 17.96875 6.59375 36.375 Q 6.59375 54.828125 13.0625 64.515625 Q 19.53125 74.21875 31.78125 74.21875 z"/></defs><g transform="translate(89.456818 270.918437)scale(0.1 -0.1)"><use xlink:href="#DejaVuSans-53"/><use x="63.623" xlink:href="#DejaVuSans-46"/><use x="95.41" xlink:href="#DejaVuSans-48"/></g></g></g><g id="xtick_3"><g id="line2d_3"><g><use style="stroke:#000;stroke-width:.8" x="139.58" y="256.32" xlink:href="#mc1b2af6f2f"/></g></g><g id="text_3"><defs><path id="DejaVuSans-55" d="M 8.203125 72.90625 L 55.078125 72.90625 L 55.078125 68.703125 L 28.609375 0 L 18.3125 0 L 43.21875 64.59375 L 8.203125 64.59375 z"/></defs><g transform="translate(131.628072 270.918437)scale(0.1 -0.1)"><use xlink:href="#DejaVuSans-55"/><use x="63.623" xlink:href="#DejaVuSans-46"/><use x="95.41" xlink:href="#DejaVuSans-53"/></g></g></g><g id="xtick_4"><g id="line2d_4"><g><use style="stroke:#000;stroke-width:.8" x="181.751" y="256.32" xlink:href="#mc1b2af6f2f"/></g></g><g id="text_4"><defs><path id="DejaVuSans-49" d="M 12.40625 8.296875 L 28.515625 8.296875 L 28.515625 63.921875 L 10.984375 60.40625 L 10.984375 69.390625 L 28.421875 72.90625 L 38.28125 72.90625 L 38.28125 8.296875 L 54.390625 8.296875 L 54.390625 0 L 12.40625 0 z"/></defs><g transform="translate(170.618077 270.918437)scale(0.1 -0.1)"><use xlink:href="#DejaVuSans-49"/><use x="63.623" xlink:href="#DejaVuSans-48"/><use x="127.246" xlink:href="#DejaVuSans-46"/><use x="159.033" xlink:href="#DejaVuSans-48"/></g></g></g></g><g id="matplotlib.axis_2"><g id="ytick_1"><g id="line2d_5"><defs><path id="m76f2299be6" d="M 0 0 L -3.5 0" style="stroke:#000;stroke-width:.8"/></defs><g><use style="stroke:#000;stroke-width:.8" x="36" y="228.429" xlink:href="#m76f2299be6"/></g></g><g id="text_5"><g transform="translate(22.6375 232.228078)scale(0.1 -0.1)"><use xlink:href="#DejaVuSans-49"/></g></g></g><g id="ytick_2"><g id="line2d_6"><g><use style="stroke:#000;stroke-width:.8" x="36" y="185.51" xlink:href="#m76f2299be6"/></g></g><g id="text_6"><g transform="translate(22.6375 189.309279)scale(0.1 -0.1)"><use xlink:href="#DejaVuSans-50"/></g></g></g><g id="ytick_3"><g id="line2d_7"><g><use style="stroke:#000;stroke-width:.8" x="36" y="142.591" xlink:href="#m76f2299be6"/></g></g><g id="text_7"><defs><path id="DejaVuSans-51" d="M 40.578125 39.3125 Q 47.65625 37.796875 51.625 33 Q 55.609375 28.21875 55.609375 21.1875 Q 55.609375 10.40625 48.1875 4.484375 Q 40.765625 -1.421875 27.09375 -1.421875 Q 22.515625 -1.421875 17.65625 -0.515625 Q 12.796875 0.390625 7.625 2.203125 L 7.625 11.71875 Q 11.71875 9.328125 16.59375 8.109375 Q 21.484375 6.890625 26.8125 6.890625 Q 36.078125 6.890625 40.9375 10.546875 Q 45.796875 14.203125 45.796875 21.1875 Q 45.796875 27.640625 41.28125 31.265625 Q 36.765625 34.90625 28.71875 34.90625 L 20.21875 34.90625 L 20.21875 43.015625 L 29.109375 43.015625 Q 36.375 43.015625 40.234375 45.921875 Q 44.09375 48.828125 44.09375 54.296875 Q 44.09375 59.90625 40.109375 62.90625 Q 36.140625 65.921875 28.71875 65.921875 Q 24.65625 65.921875 20.015625 65.03125 Q 15.375 64.15625 9.8125 62.3125 L 9.8125 71.09375 Q 15.4375 72.65625 20.34375 73.4375 Q 25.25 74.21875 29.59375 74.21875 Q 40.828125 74.21875 47.359375 69.109375 Q 53.90625 64.015625 53.90625 55.328125 Q 53.90625 49.265625 50.4375 45.09375 Q 46.96875 40.921875 40.578125 39.3125 z"/></defs><g transform="translate(22.6375 146.39048)scale(0.1 -0.1)"><use xlink:href="#DejaVuSans-51"/></g></g></g><g id="ytick_4"><g id="line2d_8"><g><use style="stroke:#000;stroke-width:.8" x="36" y="99.672" xlink:href="#m76f2299be6"/></g></g><g id="text_8"><defs><path id="DejaVuSans-52" d="M 37.796875 64.3125 L 12.890625 25.390625 L 37.796875 25.390625 z M 35.203125 72.90625 L 47.609375 72.90625 L 47.609375 25.390625 L 58.015625 25.390625 L 58.015625 17.1875 L 47.609375 17.1875 L 47.609375 0 L 37.796875 0 L 37.796875 17.1875 L 4.890625 17.1875 L 4.890625 26.703125 z"/></defs><g transform="translate(22.6375 103.471682)scale(0.1 -0.1)"><use xlink:href="#DejaVuSans-52"/></g></g></g><g id="ytick_5"><g id="line2d_9"><g><use style="stroke:#000;stroke-width:.8" x="36" y="56.754" xlink:href="#m76f2299be6"/></g></g><g id="text_9"><g transform="translate(22.6375 60.552883)scale(0.1 -0.1)"><use xlink:href="#DejaVuSans-53"/></g></g></g></g><g id="patch_3"><path d="M 36 256.32 L 36 34.56" style="fill:none;stroke:#000;stroke-linecap:square;stroke-linejoin:miter;stroke-width:.8"/></g><g id="patch_4"><path d="M 214.56 256.32 L 214.56 34.56" style="fill:none;stroke:#000;stroke-linecap:square;stroke-linejoin:miter;stroke-width:.8"/></g><g id="patch_5"><path d="M 36 256.32 L 214.56 256.32" style="fill:none;stroke:#000;stroke-linecap:square;stroke-linejoin:miter;stroke-width:.8"/></g><g id="patch_6"><path d="M 36 34.56 L 214.56 34.56" style="fill:none;stroke:#000;stroke-linecap:square;stroke-linejoin:miter;stroke-width:.8"/></g></g><g id="axes_2"><g id="patch_7"><path d="M 225.72 256.32 L 225.72 234.144 L 225.72 56.736 L 225.72 34.56 L 236.808 34.56 L 236.808 56.736 L 236.808 234.144 L 236.808 256.32 z" clip-path="url(#pefff0167ef)" style="fill:#fff;stroke:#fff;stroke-linejoin:miter;stroke-width:.01"/></g><g id="QuadMesh_1"><path d="M 225.72 256.32 L 236.808 256.32 L 236.808 234.144 L 225.72 234.144 L 225.72 256.32" clip-path="url(#pefff0167ef)"/><path d="M 225.72 234.144 L 236.808 234.144 L 236.808 211.968 L 225.72 211.968 L 225.72 234.144" clip-path="url(#pefff0167ef)" style="fill:#6d009c"/><path d="M 225.72 211.968 L 236.808 211.968 L 236.808 189.792 L 225.72 189.792 L 225.72 211.968" clip-path="url(#pefff0167ef)" style="fill:#002fdd"/><path d="M 225.72 189.792 L 236.808 189.792 L 236.808 167.616 L 225.72 167.616 L 225.72 189.792" clip-path="url(#pefff0167ef)" style="fill:#00a4bb"/><path d="M 225.72 167.616 L 236.808 167.616 L 236.808 145.44 L 225.72 145.44 L 225.72 167.616" clip-path="url(#pefff0167ef)" style="fill:#009b13"/><path d="M 225.72 145.44 L 236.808 145.44 L 236.808 123.264 L 225.72 123.264 L 225.72 145.44" clip-path="url(#pefff0167ef)" style="fill:#00e200"/><path d="M 225.72 123.264 L 236.808 123.264 L 236.808 101.088 L 225.72 101.088 L 225.72 123.264" clip-path="url(#pefff0167ef)" style="fill:#ccf900"/><path d="M 225.72 101.088 L 236.808 101.088 L 236.808 78.912 L 225.72 78.912 L 225.72 101.088" clip-path="url(#pefff0167ef)" style="fill:#ffad00"/><path d="M 225.72 78.912 L 236.808 78.912 L 236.808 56.736 L 225.72 56.736 L 225.72 78.912" clip-path="url(#pefff0167ef)" style="fill:#e40000"/><path d="M 225.72 56.736 L 236.808 56.736 L 236.808 34.56 L 225.72 34.56 L 225.72 56.736" clip-path="url(#pefff0167ef)" style="fill:#ccc"/></g><g id="matplotlib.axis_4"><g id="ytick_6"><g id="line2d_10"><defs><path id="mf02fb0930c" d="M 0 0 L 3.5 0" style="stroke:#000;stroke-width:.8"/></defs><g><use style="stroke:#000;stroke-width:.8" x="236.808" y="245.232" xlink:href="#mf02fb0930c"/></g></g><g id="text_10"><g transform="translate(243.808 249.031219)scale(0.1 -0.1)"><use xlink:href="#DejaVuSans-48"/></g></g></g><g id="ytick_7"><g id="line2d_11"><g><use style="stroke:#000;stroke-width:.8" x="236.808" y="223.056" xlink:href="#mf02fb0930c"/></g></g><g id="text_11"><g transform="translate(243.808 226.855219)scale(0.1 -0.1)"><use xlink:href="#DejaVuSans-49"/></g></g></g><g id="ytick_8"><g id="line2d_12"><g><use style="stroke:#000;stroke-width:.8" x="236.808" y="200.88" xlink:href="#mf02fb0930c"/></g></g><g id="text_12"><g transform="translate(243.808 204.679219)scale(0.1 -0.1)"><use xlink:href="#DejaVuSans-50"/></g></g></g><g id="ytick_9"><g id="line2d_13"><g><use style="stroke:#000;stroke-width:.8" x="236.808" y="178.704" xlink:href="#mf02fb0930c"/></g></g><g id="text_13"><g transform="translate(243.808 182.503219)scale(0.1 -0.1)"><use xlink:href="#DejaVuSans-51"/></g></g></g><g id="ytick_10"><g id="line2d_14"><g><use style="stroke:#000;stroke-width:.8" x="236.808" y="156.528" xlink:href="#mf02fb0930c"/></g></g><g id="text_14"><g transform="translate(243.808 160.327219)scale(0.1 -0.1)"><use xlink:href="#DejaVuSans-52"/></g></g></g><g id="ytick_11"><g id="line2d_15"><g><use style="stroke:#000;stroke-width:.8" x="236.808" y="134.352" xlink:href="#mf02fb0930c"/></g></g><g id="text_15"><g transform="translate(243.808 138.151219)scale(0.1 -0.1)"><use xlink:href="#DejaVuSans-53"/></g></g></g><g id="ytick_12"><g id="line2d_16"><g><use style="stroke:#000;stroke-width:.8" x="236.808" y="112.176" xlink:href="#mf02fb0930c"/></g></g><g id="text_16"><defs><path id="DejaVuSans-54" d="M 33.015625 40.375 Q 26.375 40.375 22.484375 35.828125 Q 18.609375 31.296875 18.609375 23.390625 Q 18.609375 15.53125 22.484375 10.953125 Q 26.375 6.390625 33.015625 6.390625 Q 39.65625 6.390625 43.53125 10.953125 Q 47.40625 15.53125 47.40625 23.390625 Q 47.40625 31.296875 43.53125 35.828125 Q 39.65625 40.375 33.015625 40.375 z M 52.59375 71.296875 L 52.59375 62.3125 Q 48.875 64.0625 45.09375 64.984375 Q 41.3125 65.921875 37.59375 65.921875 Q 27.828125 65.921875 22.671875 59.328125 Q 17.53125 52.734375 16.796875 39.40625 Q 19.671875 43.65625 24.015625 45.921875 Q 28.375 48.1875 33.59375 48.1875 Q 44.578125 48.1875 50.953125 41.515625 Q 57.328125 34.859375 57.328125 23.390625 Q 57.328125 12.15625 50.6875 5.359375 Q 44.046875 -1.421875 33.015625 -1.421875 Q 20.359375 -1.421875 13.671875 8.265625 Q 6.984375 17.96875 6.984375 36.375 Q 6.984375 53.65625 15.1875 63.9375 Q 23.390625 74.21875 37.203125 74.21875 Q 40.921875 74.21875 44.703125 73.484375 Q 48.484375 72.75 52.59375 71.296875 z"/></defs><g transform="translate(243.808 115.975219)scale(0.1 -0.1)"><use xlink:href="#DejaVuSans-54"/></g></g></g><g id="ytick_13"><g id="line2d_17"><g><use style="stroke:#000;stroke-width:.8" x="236.808" y="90" xlink:href="#mf02fb0930c"/></g></g><g id="text_17"><g transform="translate(243.808 93.799219)scale(0.1 -0.1)"><use xlink:href="#DejaVuSans-55"/></g></g></g><g id="ytick_14"><g id="line2d_18"><g><use style="stroke:#000;stroke-width:.8" x="236.808" y="67.824" xlink:href="#mf02fb0930c"/></g></g><g id="text_18"><defs><path id="DejaVuSans-56" d="M 31.78125 34.625 Q 24.75 34.625 20.71875 30.859375 Q 16.703125 27.09375 16.703125 20.515625 Q 16.703125 13.921875 20.71875 10.15625 Q 24.75 6.390625 31.78125 6.390625 Q 38.8125 6.390625 42.859375 10.171875 Q 46.921875 13.96875 46.921875 20.515625 Q 46.921875 27.09375 42.890625 30.859375 Q 38.875 34.625 31.78125 34.625 z M 21.921875 38.8125 Q 15.578125 40.375 12.03125 44.71875 Q 8.5 49.078125 8.5 55.328125 Q 8.5 64.0625 14.71875 69.140625 Q 20.953125 74.21875 31.78125 74.21875 Q 42.671875 74.21875 48.875 69.140625 Q 55.078125 64.0625 55.078125 55.328125 Q 55.078125 49.078125 51.53125 44.71875 Q 48 40.375 41.703125 38.8125 Q 48.828125 37.15625 52.796875 32.3125 Q 56.78125 27.484375 56.78125 20.515625 Q 56.78125 9.90625 50.3125 4.234375 Q 43.84375 -1.421875 31.78125 -1.421875 Q 19.734375 -1.421875 13.25 4.234375 Q 6.78125 9.90625 6.78125 20.515625 Q 6.78125 27.484375 10.78125 32.3125 Q 14.796875 37.15625 21.921875 38.8125 z M 18.3125 54.390625 Q 18.3125 48.734375 21.84375 45.5625 Q 25.390625 42.390625 31.78125 42.390625 Q 38.140625 42.390625 41.71875 45.5625 Q 45.3125 48.734375 45.3125 54.390625 Q 45.3125 60.0625 41.71875 63.234375 Q 38.140625 66.40625 31.78125 66.40625 Q 25.390625 66.40625 21.84375 63.234375 Q 18.3125 60.0625 18.3125 54.390625 z"/></defs><g transform="translate(243.808 71.623219)scale(0.1 -0.1)"><use xlink:href="#DejaVuSans-56"/></g></g></g><g id="ytick_15"><g id="line2d_19"><g><use style="stroke:#000;stroke-width:.8" x="236.808" y="45.648" xlink:href="#mf02fb0930c"/></g></g><g id="text_19"><defs><path id="DejaVuSans-57" d="M 10.984375 1.515625 L 10.984375 10.5 Q 14.703125 8.734375 18.5 7.8125 Q 22.3125 6.890625 25.984375 6.890625 Q 35.75 6.890625 40.890625 13.453125 Q 46.046875 20.015625 46.78125 33.40625 Q 43.953125 29.203125 39.59375 26.953125 Q 35.25 24.703125 29.984375 24.703125 Q 19.046875 24.703125 12.671875 31.3125 Q 6.296875 37.9375 6.296875 49.421875 Q 6.296875 60.640625 12.9375 67.421875 Q 19.578125 74.21875 30.609375 74.21875 Q 43.265625 74.21875 49.921875 64.515625 Q 56.59375 54.828125 56.59375 36.375 Q 56.59375 19.140625 48.40625 8.859375 Q 40.234375 -1.421875 26.421875 -1.421875 Q 22.703125 -1.421875 18.890625 -0.6875 Q 15.09375 0.046875 10.984375 1.515625 z M 30.609375 32.421875 Q 37.25 32.421875 41.125 36.953125 Q 45.015625 41.5 45.015625 49.421875 Q 45.015625 57.28125 41.125 61.84375 Q 37.25 66.40625 30.609375 66.40625 Q 23.96875 66.40625 20.09375 61.84375 Q 16.21875 57.28125 16.21875 49.421875 Q 16.21875 41.5 20.09375 36.953125 Q 23.96875 32.421875 30.609375 32.421875 z"/></defs><g transform="translate(243.808 49.447219)scale(0.1 -0.1)"><use xlink:href="#DejaVuSans-57"/></g></g></g></g><g id="patch_8"><path d="M 225.72 256.32 L 225.72 234.144 L 225.72 56.736 L 225.72 34.56 L 236.808 34.56 L 236.808 56.736 L 236.808 234.144 L 236.808 256.32 z" style="fill:none;stroke:#000;stroke-linejoin:miter;stroke-width:.8"/></g></g></g><defs><clipPath id="p5076b06d86"><rect width="178.56" height="221.76" x="36" y="34.56"/></clipPath><clipPath id="pefff0167ef"><rect width="11.088" height="221.76" x="225.72" y="34.56"/></clipPath></defs></svg>