<svg xmlns="http://www.w3.org/2000/svg" xmlns:xlink="http://www.w3.org/1999/xlink" width="384" height="384" version="1.1" viewBox="0 0 288 288"><defs><style type="text/css">*{stroke-linecap:butt;stroke-linejoin:round}</style></defs><g id="figure_1"><g id="patch_1"><path d="M 0 288 L 288 288 L 288 0 L 0 0 z" style="fill:#fff"/></g><g id="axes_1"><g id="patch_2"><path d="M 36 256.32 L 214.56 256.32 L 214.56 34.56 L 36 34.56 z" style="fill:#fff"/></g><g id="PathCollection_1"><defs><path id="C0_0_73121df665" d="M 0 3 C 0.795609 3 1.55874 2.683901 2.12132 2.12132 C 2.683901 1.55874 3 0.795609 3 0 C 3 -0.795609 2.683901 -1.55874 2.12132 -2.12132 C 1.55874 -2.683901 0.795609 -3 0 -3 C -0.795609 -3 -1.55874 -2.683901 -2.12132 -2.12132 C -2.683901 -1.55874 -3 -0.795609 -3 0 C -3 0.795609 -2.683901 1.55874 -2.12132 2.12132 C -1.55874 2.683901 -0.795609 3 0 3 z"/></defs><g clip-path="url(#pb569cccab3)"><use style="fill:#6d009c;stroke:#000" x="164.194" y="120.606" xlink:href="#C0_0_73121df665"/></g><g clip-path="url(#pb569cccab3)"><use style="fill:#002fdd;stroke:#000" x="105.416" y="158.447" xlink:href="#C0_0_73121df665"/></g><g clip-path="url(#pb569cccab3)"><use style="fill:#002fdd;stroke:#000" x="100.394" y="132.55" xlink:href="#C0_0_73121df665"/></g><g clip-path="url(#pb569cccab3)"><use style="fill:#002fdd;stroke:#000" x="197.145" y="139.144" xlink:href="#C0_0_73121df665"/></g><g clip-path="url(#pb569cccab3)"><use style="stroke:#000" x="47.145" y="186.362" xlink:href="#C0_0_73121df665"/></g><g clip-path="url(#pb569cccab3)"><use style="fill:#e40000;stroke:#000" x="162.785" y="180.901" xlink:href="#C0_0_73121df665"/></g><g clip-path="url(#pb569cccab3)"><use style="fill:#6d009c;stroke:#000" x="125.785" y="69.77" xlink:href="#C0_0_73121df665"/></g><g clip-path="url(#pb569cccab3)"><use style="fill:#002fdd;stroke:#000" x="110.489" y="143.98" xlink:href="#C0_0_73121df665"/></g><g clip-path="url(#pb569cccab3)"><use style="fill:#00e200;stroke:#000" x="99.819" y="223.335" xlink:href="#C0_0_73121df665"/></g><g clip-path="url(#pb569cccab3)"><use style="fill:#ccc;stroke:#000" x="206.444" y="135.929" xlink:href="#C0_0_73121df665"/></g><g clip-path="url(#pb569cccab3)"><use style="fill:#002fdd;stroke:#000" x="198.75" y="140.258" xlink:href="#C0_0_73121df665"/></g><g clip-path="url(#pb569cccab3)"><use style="fill:#002fdd;stroke:#000" x="196.746" y="143.027" xlink:href="#C0_0_73121df665"/></g><g clip-path="url(#pb569cccab3)"><use style="stroke:#000" x="45.442" y="150.516" xlink:href="#C0_0_73121df665"/></g><g clip-path="url(#pb569cccab3)"><use style="fill:#ccc;stroke:#000" x="52.627" y="141.868" xlink:href="#C0_0_73121df665"/></g><g clip-path="url(#pb569cccab3)"><use style="fill:#002fdd;stroke:#000" x="112.412" y="134.178" xlink:href="#C0_0_73121df665"/></g><g clip-path="url(#pb569cccab3)"><use style="fill:#009b13;stroke:#000" x="90.527" y="239.438" xlink:href="#C0_0_73121df665"/></g><g clip-path="url(#pb569cccab3)"><use style="fill:#002fdd;stroke:#000" x="92.348" y="114.122" xlink:href="#C0_0_73121df665"/></g><g clip-path="url(#pb569cccab3)"><use style="stroke:#000" x="48.563" y="198.782" xlink:href="#C0_0_73121df665"/></g><g clip-path="url(#pb569cccab3)"><use style="fill:#6d009c;stroke:#000" x="170.827" y="121.229" xlink:href="#C0_0_73121df665"/></g><g clip-path="url(#pb569cccab3)"><use style="fill:#6d009c;stroke:#000" x="155.655" y="117.66" xlink:href="#C0_0_73121df665"/></g><g clip-path="url(#pb569cccab3)"><use style="stroke:#000" x="60.602" y="211.771" xlink:href="#C0_0_73121df665"/></g><g clip-path="url(#pb569cccab3)"><use style="fill:#002fdd;stroke:#000" x="97.072" y="130.01" xlink:href="#C0_0_73121df665"/></g><g clip-path="url(#pb569cccab3)"><use style="fill:#6d009c;stroke:#000" x="131.794" y="77.376" xlink:href="#C0_0_73121df665"/></g><g clip-path="url(#pb569cccab3)"><use style="fill:#ccc;stroke:#000" x="133.761" y="101.219" xlink:href="#C0_0_73121df665"/></g><g clip-path="url(#pb569cccab3)"><use style="stroke:#000" x="60.099" y="200.681" xlink:href="#C0_0_73121df665"/></g><g clip-path="url(#pb569cccab3)"><use style="fill:#00a4bb;stroke:#000" x="181.149" y="139.216" xlink:href="#C0_0_73121df665"/></g><g clip-path="url(#pb569cccab3)"><use style="fill:#009b13;stroke:#000" x="97.572" y="227.637" xlink:href="#C0_0_73121df665"/></g><g clip-path="url(#pb569cccab3)"><use style="fill:#009b13;stroke:#000" x="98.071" y="207.33" xlink:href="#C0_0_73121df665"/></g><g clip-path="url(#pb569cccab3)"><use style="fill:#002fdd;stroke:#000" x="100.551" y="118.945" xlink:href="#C0_0_73121df665"/></g><g clip-path="url(#pb569cccab3)"><use style="fill:#009b13;stroke:#000" x="91.276" y="242.514" xlink:href="#C0_0_73121df665"/></g><g clip-path="url(#pb569cccab3)"><use style="fill:#ffad00;stroke:#000" x="47.106" y="110.177" xlink:href="#C0_0_73121df665"/></g><g clip-path="url(#pb569cccab3)"><use style="fill:#002fdd;stroke:#000" x="110.941" y="140.812" xlink:href="#C0_0_73121df665"/></g><g clip-path="url(#pb569cccab3)"><use style="fill:#ccc;stroke:#000" x="183.46" y="139.39" xlink:href="#C0_0_73121df665"/></g><g clip-path="url(#pb569cccab3)"><use style="stroke:#000" x="46.949" y="157.476" xlink:href="#C0_0_73121df665"/></g><g clip-path="url(#pb569cccab3)"><use style="fill:#6d009c;stroke:#000" x="172.67" y="120.717" xlink:href="#C0_0_73121df665"/></g><g clip-path="url(#pb569cccab3)"><use style="fill:#6d009c;stroke:#000" x="131.199" y="80.129" xlink:href="#C0_0_73121df665"/></g><g clip-path="url(#pb569cccab3)"><use style="fill:#ffad00;stroke:#000" x="47.257" y="105.819" xlink:href="#C0_0_73121df665"/></g><g clip-path="url(#pb569cccab3)"><use style="fill:#e40000;stroke:#000" x="156.347" y="187.645" xlink:href="#C0_0_73121df665"/></g><g clip-path="url(#pb569cccab3)"><use style="fill:#002fdd;stroke:#000" x="95.848" y="105.971" xlink:href="#C0_0_73121df665"/></g><g clip-path="url(#pb569cccab3)"><use style="fill:#e40000;stroke:#000" x="109.043" y="83.12" xlink:href="#C0_0_73121df665"/></g><g clip-path="url(#pb569cccab3)"><use style="fill:#6d009c;stroke:#000" x="140.715" y="110.355" xlink:href="#C0_0_73121df665"/></g><g clip-path="url(#pb569cccab3)"><use style="fill:#6d009c;stroke:#000" x="163.511" y="121.208" xlink:href="#C0_0_73121df665"/></g><g clip-path="url(#pb569cccab3)"><use style="fill:#002fdd;stroke:#000" x="110.609" y="116.114" xlink:href="#C0_0_73121df665"/></g><g clip-path="url(#pb569cccab3)"><use style="fill:#6d009c;stroke:#000" x="142.326" y="117.281" xlink:href="#C0_0_73121df665"/></g><g clip-path="url(#pb569cccab3)"><use style="fill:#6d009c;stroke:#000" x="138.761" y="105.626" xlink:href="#C0_0_73121df665"/></g><g clip-path="url(#pb569cccab3)"><use style="fill:#002fdd;stroke:#000" x="99.804" y="140.85" xlink:href="#C0_0_73121df665"/></g><g clip-path="url(#pb569cccab3)"><use style="fill:#6d009c;stroke:#000" x="140.038" y="94.383" xlink:href="#C0_0_73121df665"/></g><g clip-path="url(#pb569cccab3)"><use style="fill:#6d009c;stroke:#000" x="149.758" y="117.721" xlink:href="#C0_0_73121df665"/></g><g clip-path="url(#pb569cccab3)"><use style="fill:#00e200;stroke:#000" x="97.578" y="196.9" xlink:href="#C0_0_73121df665"/></g><g clip-path="url(#pb569cccab3)"><use style="stroke:#000" x="52.09" y="208.468" xlink:href="#C0_0_73121df665"/></g><g clip-path="url(#pb569cccab3)"><use style="fill:#6d009c;stroke:#000" x="190.373" y="124.333" xlink:href="#C0_0_73121df665"/></g><g clip-path="url(#pb569cccab3)"><use style="fill:#e40000;stroke:#000" x="160.716" y="183.195" xlink:href="#C0_0_73121df665"/></g><g clip-path="url(#pb569cccab3)"><use style="fill:#002fdd;stroke:#000" x="109.446" y="52.003" xlink:href="#C0_0_73121df665"/></g><g clip-path="url(#pb569cccab3)"><use style="fill:#002fdd;stroke:#000" x="199.339" y="143.286" xlink:href="#C0_0_73121df665"/></g><g clip-path="url(#pb569cccab3)"><use style="stroke:#000" x="61.136" y="218.092" xlink:href="#C0_0_73121df665"/></g><g clip-path="url(#pb569cccab3)"><use style="fill:#6d009c;stroke:#000" x="143.263" y="98.762" xlink:href="#C0_0_73121df665"/></g><g clip-path="url(#pb569cccab3)"><use style="stroke:#000" x="55.424" y="212.344" xlink:href="#C0_0_73121df665"/></g><g clip-path="url(#pb569cccab3)"><use style="fill:#ffad00;stroke:#000" x="47.719" y="107.86" xlink:href="#C0_0_73121df665"/></g><g clip-path="url(#pb569cccab3)"><use style="fill:#002fdd;stroke:#000" x="111.856" y="124.871" xlink:href="#C0_0_73121df665"/></g><g clip-path="url(#pb569cccab3)"><use style="fill:#ffad00;stroke:#000" x="67.199" y="137.652" xlink:href="#C0_0_73121df665"/></g><g clip-path="url(#pb569cccab3)"><use style="stroke:#000" x="44.116" y="154.085" xlink:href="#C0_0_73121df665"/></g><g clip-path="url(#pb569cccab3)"><use style="fill:#ccf900;stroke:#000" x="192.641" y="145.119" xlink:href="#C0_0_73121df665"/></g><g clip-path="url(#pb569cccab3)"><use style="stroke:#000" x="61.367" y="217.618" xlink:href="#C0_0_73121df665"/></g><g clip-path="url(#pb569cccab3)"><use style="fill:#002fdd;stroke:#000" x="95.695" y="133.256" xlink:href="#C0_0_73121df665"/></g><g clip-path="url(#pb569cccab3)"><use style="stroke:#000" x="47.925" y="190.934" xlink:href="#C0_0_73121df665"/></g><g clip-path="url(#pb569cccab3)"><use style="fill:#6d009c;stroke:#000" x="151.879" y="121.597" xlink:href="#C0_0_73121df665"/></g><g clip-path="url(#pb569cccab3)"><use style="fill:#002fdd;stroke:#000" x="102.033" y="102.17" xlink:href="#C0_0_73121df665"/></g><g clip-path="url(#pb569cccab3)"><use style="fill:#ffad00;stroke:#000" x="45.574" y="101.44" xlink:href="#C0_0_73121df665"/></g><g clip-path="url(#pb569cccab3)"><use style="fill:#002fdd;stroke:#000" x="107.208" y="153.554" xlink:href="#C0_0_73121df665"/></g><g clip-path="url(#pb569cccab3)"><use style="stroke:#000" x="48.758" y="180.214" xlink:href="#C0_0_73121df665"/></g><g clip-path="url(#pb569cccab3)"><use style="fill:#009b13;stroke:#000" x="103.863" y="85.361" xlink:href="#C0_0_73121df665"/></g><g clip-path="url(#pb569cccab3)"><use style="fill:#6d009c;stroke:#000" x="126.079" y="69.439" xlink:href="#C0_0_73121df665"/></g><g clip-path="url(#pb569cccab3)"><use style="stroke:#000" x="46.298" y="192.132" xlink:href="#C0_0_73121df665"/></g><g clip-path="url(#pb569cccab3)"><use style="fill:#009b13;stroke:#000" x="98.825" y="225.359" xlink:href="#C0_0_73121df665"/></g><g clip-path="url(#pb569cccab3)"><use style="fill:#6d009c;stroke:#000" x="146.958" y="114.314" xlink:href="#C0_0_73121df665"/></g><g clip-path="url(#pb569cccab3)"><use style="fill:#002fdd;stroke:#000" x="104.166" y="132.108" xlink:href="#C0_0_73121df665"/></g><g clip-path="url(#pb569cccab3)"><use style="fill:#6d009c;stroke:#000" x="176.435" y="122.045" xlink:href="#C0_0_73121df665"/></g><g clip-path="url(#pb569cccab3)"><use style="fill:#002fdd;stroke:#000" x="103.463" y="86.683" xlink:href="#C0_0_73121df665"/></g><g clip-path="url(#pb569cccab3)"><use style="stroke:#000" x="57.291" y="214.167" xlink:href="#C0_0_73121df665"/></g><g clip-path="url(#pb569cccab3)"><use style="fill:#6d009c;stroke:#000" x="133.179" y="84.028" xlink:href="#C0_0_73121df665"/></g><g clip-path="url(#pb569cccab3)"><use style="fill:#002fdd;stroke:#000" x="101.758" y="48.645" xlink:href="#C0_0_73121df665"/></g><g clip-path="url(#pb569cccab3)"><use style="fill:#6d009c;stroke:#000" x="145.856" y="107.019" xlink:href="#C0_0_73121df665"/></g><g clip-path="url(#pb569cccab3)"><use style="fill:#6d009c;stroke:#000" x="168.018" y="111.402" xlink:href="#C0_0_73121df665"/></g><g clip-path="url(#pb569cccab3)"><use style="fill:#002fdd;stroke:#000" x="113.215" y="122.99" xlink:href="#C0_0_73121df665"/></g><g clip-path="url(#pb569cccab3)"><use style="fill:#002fdd;stroke:#000" x="106.747" y="53.196" xlink:href="#C0_0_73121df665"/></g><g clip-path="url(#pb569cccab3)"><use style="fill:#6d009c;stroke:#000" x="123.691" y="71.202" xlink:href="#C0_0_73121df665"/></g><g clip-path="url(#pb569cccab3)"><use style="fill:#ffad00;stroke:#000" x="79.783" y="154.228" xlink:href="#C0_0_73121df665"/></g><g clip-path="url(#pb569cccab3)"><use style="fill:#002fdd;stroke:#000" x="103.652" y="73.599" xlink:href="#C0_0_73121df665"/></g><g clip-path="url(#pb569cccab3)"><use style="fill:#6d009c;stroke:#000" x="167.99" y="115.645" xlink:href="#C0_0_73121df665"/></g><g clip-path="url(#pb569cccab3)"><use style="fill:#ccf900;stroke:#000" x="186.328" y="139.808" xlink:href="#C0_0_73121df665"/></g><g clip-path="url(#pb569cccab3)"><use style="fill:#6d009c;stroke:#000" x="126.893" y="67.008" xlink:href="#C0_0_73121df665"/></g><g clip-path="url(#pb569cccab3)"><use style="fill:#002fdd;stroke:#000" x="111.382" y="80.089" xlink:href="#C0_0_73121df665"/></g><g clip-path="url(#pb569cccab3)"><use style="stroke:#000" x="46.139" y="158.295" xlink:href="#C0_0_73121df665"/></g><g clip-path="url(#pb569cccab3)"><use style="fill:#002fdd;stroke:#000" x="101.302" y="115.113" xlink:href="#C0_0_73121df665"/></g><g clip-path="url(#pb569cccab3)"><use style="fill:#002fdd;stroke:#000" x="111.851" y="56.628" xlink:href="#C0_0_73121df665"/></g><g clip-path="url(#pb569cccab3)"><use style="fill:#002fdd;stroke:#000" x="103.017" y="160.414" xlink:href="#C0_0_73121df665"/></g><g clip-path="url(#pb569cccab3)"><use style="stroke:#000" x="46.385" y="195.36" xlink:href="#C0_0_73121df665"/></g><g clip-path="url(#pb569cccab3)"><use style="fill:#ffad00;stroke:#000" x="66.475" y="136.14" xlink:href="#C0_0_73121df665"/></g><g clip-path="url(#pb569cccab3)"><use style="fill:#6d009c;stroke:#000" x="186.895" y="117.914" xlink:href="#C0_0_73121df665"/></g><g clip-path="url(#pb569cccab3)"><use style="fill:#002fdd;stroke:#000" x="109.66" y="133.36" xlink:href="#C0_0_73121df665"/></g><g clip-path="url(#pb569cccab3)"><use style="fill:#002fdd;stroke:#000" x="97.904" y="125.009" xlink:href="#C0_0_73121df665"/></g><g clip-path="url(#pb569cccab3)"><use style="fill:#002fdd;stroke:#000" x="107.372" y="108.017" xlink:href="#C0_0_73121df665"/></g><g clip-path="url(#pb569cccab3)"><use style="fill:#6d009c;stroke:#000" x="175.149" y="127.003" xlink:href="#C0_0_73121df665"/></g><g clip-path="url(#pb569cccab3)"><use style="fill:#002fdd;stroke:#000" x="110.605" y="142.358" xlink:href="#C0_0_73121df665"/></g><g clip-path="url(#pb569cccab3)"><use style="fill:#ccf900;stroke:#000" x="203.83" y="135.354" xlink:href="#C0_0_73121df665"/></g><g clip-path="url(#pb569cccab3)"><use style="fill:#6d009c;stroke:#000" x="161.143" y="122.585" xlink:href="#C0_0_73121df665"/></g><g clip-path="url(#pb569cccab3)"><use style="fill:#ffad00;stroke:#000" x="47.099" y="96.957" xlink:href="#C0_0_73121df665"/></g><g clip-path="url(#pb569cccab3)"><use style="fill:#6d009c;stroke:#000" x="184.974" y="115.696" xlink:href="#C0_0_73121df665"/></g><g clip-path="url(#pb569cccab3)"><use style="stroke:#000" x="47.099" y="196.088" xlink:href="#C0_0_73121df665"/></g><g clip-path="url(#pb569cccab3)"><use style="fill:#002fdd;stroke:#000" x="101.761" y="103.98" xlink:href="#C0_0_73121df665"/></g><g clip-path="url(#pb569cccab3)"><use style="fill:#6d009c;stroke:#000" x="147.076" y="110.561" xlink:href="#C0_0_73121df665"/></g><g clip-path="url(#pb569cccab3)"><use style="fill:#002fdd;stroke:#000" x="110.224" y="67.007" xlink:href="#C0_0_73121df665"/></g><g clip-path="url(#pb569cccab3)"><use style="stroke:#000" x="48.29" y="206.06" xlink:href="#C0_0_73121df665"/></g><g clip-path="url(#pb569cccab3)"><use style="fill:#002fdd;stroke:#000" x="104.974" y="44.64" xlink:href="#C0_0_73121df665"/></g><g clip-path="url(#pb569cccab3)"><use style="fill:#002fdd;stroke:#000" x="95.777" y="125.401" xlink:href="#C0_0_73121df665"/></g><g clip-path="url(#pb569cccab3)"><use style="fill:#6d009c;stroke:#000" x="187.259" y="123.505" xlink:href="#C0_0_73121df665"/></g><g clip-path="url(#pb569cccab3)"><use style="fill:#002fdd;stroke:#000" x="102.11" y="152.275" xlink:href="#C0_0_73121df665"/></g><g clip-path="url(#pb569cccab3)"><use style="stroke:#000" x="45.842" y="168.372" xlink:href="#C0_0_73121df665"/></g><g clip-path="url(#pb569cccab3)"><use style="stroke:#000" x="61.646" y="218.629" xlink:href="#C0_0_73121df665"/></g><g clip-path="url(#pb569cccab3)"><use style="fill:#6d009c;stroke:#000" x="174.562" y="120.202" xlink:href="#C0_0_73121df665"/></g><g clip-path="url(#pb569cccab3)"><use style="fill:#002fdd;stroke:#000" x="103.3" y="47.037" xlink:href="#C0_0_73121df665"/></g><g clip-path="url(#pb569cccab3)"><use style="fill:#6d009c;stroke:#000" x="143.313" y="111.338" xlink:href="#C0_0_73121df665"/></g><g clip-path="url(#pb569cccab3)"><use style="fill:#002fdd;stroke:#000" x="96.549" y="119.175" xlink:href="#C0_0_73121df665"/></g><g clip-path="url(#pb569cccab3)"><use style="fill:#ffad00;stroke:#000" x="45.927" y="106.978" xlink:href="#C0_0_73121df665"/></g><g clip-path="url(#pb569cccab3)"><use style="fill:#6d009c;stroke:#000" x="143.655" y="114.288" xlink:href="#C0_0_73121df665"/></g><g clip-path="url(#pb569cccab3)"><use style="fill:#6d009c;stroke:#000" x="171.467" y="122.433" xlink:href="#C0_0_73121df665"/></g><g clip-path="url(#pb569cccab3)"><use style="fill:#009b13;stroke:#000" x="84.075" y="168.867" xlink:href="#C0_0_73121df665"/></g><g clip-path="url(#pb569cccab3)"><use style="stroke:#000" x="55.453" y="215.849" xlink:href="#C0_0_73121df665"/></g><g clip-path="url(#pb569cccab3)"><use style="fill:#6d009c;stroke:#000" x="162.933" y="124.459" xlink:href="#C0_0_73121df665"/></g><g clip-path="url(#pb569cccab3)"><use style="fill:#002fdd;stroke:#000" x="103.393" y="54.16" xlink:href="#C0_0_73121df665"/></g><g clip-path="url(#pb569cccab3)"><use style="stroke:#000" x="53.471" y="201.19" xlink:href="#C0_0_73121df665"/></g><g clip-path="url(#pb569cccab3)"><use style="fill:#002fdd;stroke:#000" x="105.659" y="135.381" xlink:href="#C0_0_73121df665"/></g><g clip-path="url(#pb569cccab3)"><use style="fill:#6d009c;stroke:#000" x="165.963" y="115.1" xlink:href="#C0_0_73121df665"/></g><g clip-path="url(#pb569cccab3)"><use style="stroke:#000" x="46.706" y="184.894" xlink:href="#C0_0_73121df665"/></g><g clip-path="url(#pb569cccab3)"><use style="fill:#00a4bb;stroke:#000" x="109.79" y="105.916" xlink:href="#C0_0_73121df665"/></g><g clip-path="url(#pb569cccab3)"><use style="fill:#002fdd;stroke:#000" x="109.307" y="100.17" xlink:href="#C0_0_73121df665"/></g><g clip-path="url(#pb569cccab3)"><use style="stroke:#000" x="50.566" y="196.614" xlink:href="#C0_0_73121df665"/></g><g clip-path="url(#pb569cccab3)"><use style="fill:#002fdd;stroke:#000" x="111.582" y="138.204" xlink:href="#C0_0_73121df665"/></g><g clip-path="url(#pb569cccab3)"><use style="stroke:#000" x="47.095" y="161.987" xlink:href="#C0_0_73121df665"/></g><g clip-path="url(#pb569cccab3)"><use style="fill:#6d009c;stroke:#000" x="146.581" y="116.38" xlink:href="#C0_0_73121df665"/></g><g clip-path="url(#pb569cccab3)"><use style="fill:#002fdd;stroke:#000" x="106.212" y="79.325" xlink:href="#C0_0_73121df665"/></g><g clip-path="url(#pb569cccab3)"><use style="fill:#ffad00;stroke:#000" x="67.586" y="135.03" xlink:href="#C0_0_73121df665"/></g><g clip-path="url(#pb569cccab3)"><use style="fill:#002fdd;stroke:#000" x="200.077" y="142.112" xlink:href="#C0_0_73121df665"/></g><g clip-path="url(#pb569cccab3)"><use style="stroke:#000" x="46.42" y="158.412" xlink:href="#C0_0_73121df665"/></g><g clip-path="url(#pb569cccab3)"><use style="fill:#6d009c;stroke:#000" x="167.188" y="125.28" xlink:href="#C0_0_73121df665"/></g><g clip-path="url(#pb569cccab3)"><use style="fill:#ccf900;stroke:#000" x="191.821" y="147.189" xlink:href="#C0_0_73121df665"/></g><g clip-path="url(#pb569cccab3)"><use style="fill:#002fdd;stroke:#000" x="96.542" y="104.09" xlink:href="#C0_0_73121df665"/></g><g clip-path="url(#pb569cccab3)"><use style="fill:#6d009c;stroke:#000" x="171.427" y="115.634" xlink:href="#C0_0_73121df665"/></g><g clip-path="url(#pb569cccab3)"><use style="fill:#6d009c;stroke:#000" x="174.769" y="117.143" xlink:href="#C0_0_73121df665"/></g><g clip-path="url(#pb569cccab3)"><use style="fill:#6d009c;stroke:#000" x="168.166" y="123.333" xlink:href="#C0_0_73121df665"/></g><g clip-path="url(#pb569cccab3)"><use style="fill:#6d009c;stroke:#000" x="184.356" y="121.723" xlink:href="#C0_0_73121df665"/></g><g clip-path="url(#pb569cccab3)"><use style="fill:#009b13;stroke:#000" x="99.792" y="221.758" xlink:href="#C0_0_73121df665"/></g><g clip-path="url(#pb569cccab3)"><use style="fill:#009b13;stroke:#000" x="98.869" y="216.126" xlink:href="#C0_0_73121df665"/></g><g clip-path="url(#pb569cccab3)"><use style="fill:#6d009c;stroke:#000" x="134.827" y="90.412" xlink:href="#C0_0_73121df665"/></g><g clip-path="url(#pb569cccab3)"><use style="fill:#6d009c;stroke:#000" x="143.828" y="100.561" xlink:href="#C0_0_73121df665"/></g><g clip-path="url(#pb569cccab3)"><use style="fill:#002fdd;stroke:#000" x="110.442" y="59.883" xlink:href="#C0_0_73121df665"/></g><g clip-path="url(#pb569cccab3)"><use style="fill:#6d009c;stroke:#000" x="185.344" y="122.11" xlink:href="#C0_0_73121df665"/></g><g clip-path="url(#pb569cccab3)"><use style="fill:#009b13;stroke:#000" x="91.342" y="246.24" xlink:href="#C0_0_73121df665"/></g><g clip-path="url(#pb569cccab3)"><use style="fill:#002fdd;stroke:#000" x="106.659" y="51.196" xlink:href="#C0_0_73121df665"/></g><g clip-path="url(#pb569cccab3)"><use style="fill:#002fdd;stroke:#000" x="108.701" y="49.026" xlink:href="#C0_0_73121df665"/></g><g clip-path="url(#pb569cccab3)"><use style="fill:#6d009c;stroke:#000" x="141.524" y="100.882" xlink:href="#C0_0_73121df665"/></g><g clip-path="url(#pb569cccab3)"><use style="fill:#6d009c;stroke:#000" x="136.034" y="91.291" xlink:href="#C0_0_73121df665"/></g><g clip-path="url(#pb569cccab3)"><use style="fill:#002fdd;stroke:#000" x="101.529" y="98.949" xlink:href="#C0_0_73121df665"/></g><g clip-path="url(#pb569cccab3)"><use style="fill:#ccf900;stroke:#000" x="195.579" y="136.256" xlink:href="#C0_0_73121df665"/></g><g clip-path="url(#pb569cccab3)"><use style="fill:#00a4bb;stroke:#000" x="87.041" y="236.025" xlink:href="#C0_0_73121df665"/></g><g clip-path="url(#pb569cccab3)"><use style="fill:#002fdd;stroke:#000" x="101.801" y="84.157" xlink:href="#C0_0_73121df665"/></g><g clip-path="url(#pb569cccab3)"><use style="fill:#002fdd;stroke:#000" x="106.422" y="155.92" xlink:href="#C0_0_73121df665"/></g><g clip-path="url(#pb569cccab3)"><use style="fill:#6d009c;stroke:#000" x="158.505" y="119.511" xlink:href="#C0_0_73121df665"/></g><g clip-path="url(#pb569cccab3)"><use style="fill:#ffad00;stroke:#000" x="65.902" y="135.677" xlink:href="#C0_0_73121df665"/></g><g clip-path="url(#pb569cccab3)"><use style="fill:#e40000;stroke:#000" x="126.202" y="89.572" xlink:href="#C0_0_73121df665"/></g><g clip-path="url(#pb569cccab3)"><use style="fill:#6d009c;stroke:#000" x="144.08" y="117.686" xlink:href="#C0_0_73121df665"/></g><g clip-path="url(#pb569cccab3)"><use style="fill:#6d009c;stroke:#000" x="153.75" y="119.215" xlink:href="#C0_0_73121df665"/></g><g clip-path="url(#pb569cccab3)"><use style="fill:#00a4bb;stroke:#000" x="107.135" y="47.41" xlink:href="#C0_0_73121df665"/></g><g clip-path="url(#pb569cccab3)"><use style="fill:#ffad00;stroke:#000" x="49.294" y="107.61" xlink:href="#C0_0_73121df665"/></g><g clip-path="url(#pb569cccab3)"><use style="fill:#002fdd;stroke:#000" x="99.958" y="161.015" xlink:href="#C0_0_73121df665"/></g><g clip-path="url(#pb569cccab3)"><use style="fill:#009b13;stroke:#000" x="91.25" y="245.31" xlink:href="#C0_0_73121df665"/></g><g clip-path="url(#pb569cccab3)"><use style="fill:#009b13;stroke:#000" x="92.241" y="241.778" xlink:href="#C0_0_73121df665"/></g><g clip-path="url(#pb569cccab3)"><use style="fill:#ffad00;stroke:#000" x="80.322" y="153.827" xlink:href="#C0_0_73121df665"/></g><g clip-path="url(#pb569cccab3)"><use style="fill:#ccc;stroke:#000" x="91.931" y="122.379" xlink:href="#C0_0_73121df665"/></g><g clip-path="url(#pb569cccab3)"><use style="stroke:#000" x="118.478" y="63.587" xlink:href="#C0_0_73121df665"/></g><g clip-path="url(#pb569cccab3)"><use style="fill:#e40000;stroke:#000" x="86.054" y="166.115" xlink:href="#C0_0_73121df665"/></g><g clip-path="url(#pb569cccab3)"><use style="fill:#6d009c;stroke:#000" x="161.967" y="122.226" xlink:href="#C0_0_73121df665"/></g><g clip-path="url(#pb569cccab3)"><use style="fill:#002fdd;stroke:#000" x="108.553" y="51.31" xlink:href="#C0_0_73121df665"/></g><g clip-path="url(#pb569cccab3)"><use style="fill:#009b13;stroke:#000" x="180.387" y="135.729" xlink:href="#C0_0_73121df665"/></g><g clip-path="url(#pb569cccab3)"><use style="fill:#e40000;stroke:#000" x="50.363" y="142.458" xlink:href="#C0_0_73121df665"/></g><g clip-path="url(#pb569cccab3)"><use style="fill:#6d009c;stroke:#000" x="143.635" y="104.87" xlink:href="#C0_0_73121df665"/></g><g clip-path="url(#pb569cccab3)"><use style="stroke:#000" x="194.945" y="133.637" xlink:href="#C0_0_73121df665"/></g><g clip-path="url(#pb569cccab3)"><use style="fill:#e40000;stroke:#000" x="157.433" y="186.506" xlink:href="#C0_0_73121df665"/></g><g clip-path="url(#pb569cccab3)"><use style="stroke:#000" x="47.121" y="149.457" xlink:href="#C0_0_73121df665"/></g><g clip-path="url(#pb569cccab3)"><use style="fill:#6d009c;stroke:#000" x="178.862" y="120.767" xlink:href="#C0_0_73121df665"/></g><g clip-path="url(#pb569cccab3)"><use style="fill:#002fdd;stroke:#000" x="106.618" y="45.626" xlink:href="#C0_0_73121df665"/></g><g clip-path="url(#pb569cccab3)"><use style="fill:#6d009c;stroke:#000" x="185.349" y="126.067" xlink:href="#C0_0_73121df665"/></g><g clip-path="url(#pb569cccab3)"><use style="fill:#6d009c;stroke:#000" x="184.961" y="116.345" xlink:href="#C0_0_73121df665"/></g><g clip-path="url(#pb569cccab3)"><use style="fill:#002fdd;stroke:#000" x="103.92" y="79.683" xlink:href="#C0_0_73121df665"/></g><g clip-path="url(#pb569cccab3)"><use style="fill:#002fdd;stroke:#000" x="102.546" y="99.021" xlink:href="#C0_0_73121df665"/></g><g clip-path="url(#pb569cccab3)"><use style="fill:#6d009c;stroke:#000" x="128.51" y="68.471" xlink:href="#C0_0_73121df665"/></g><g clip-path="url(#pb569cccab3)"><use style="fill:#6d009c;stroke:#000" x="186.786" y="126.212" xlink:href="#C0_0_73121df665"/></g><g clip-path="url(#pb569cccab3)"><use style="fill:#002fdd;stroke:#000" x="197.492" y="141.122" xlink:href="#C0_0_73121df665"/></g><g clip-path="url(#pb569cccab3)"><use style="fill:#009b13;stroke:#000" x="99.18" y="225.047" xlink:href="#C0_0_73121df665"/></g><g clip-path="url(#pb569cccab3)"><use style="fill:#ffad00;stroke:#000" x="46.512" y="100.683" xlink:href="#C0_0_73121df665"/></g><g clip-path="url(#pb569cccab3)"><use style="fill:#e40000;stroke:#000" x="57.199" y="122.175" xlink:href="#C0_0_73121df665"/></g><g clip-path="url(#pb569cccab3)"><use style="fill:#009b13;stroke:#000" x="90.475" y="244.121" xlink:href="#C0_0_73121df665"/></g><g clip-path="url(#pb569cccab3)"><use style="fill:#002fdd;stroke:#000" x="105.394" y="84.137" xlink:href="#C0_0_73121df665"/></g><g clip-path="url(#pb569cccab3)"><use style="fill:#002fdd;stroke:#000" x="97.353" y="131.116" xlink:href="#C0_0_73121df665"/></g><g clip-path="url(#pb569cccab3)"><use style="fill:#ffad00;stroke:#000" x="79.47" y="155.167" xlink:href="#C0_0_73121df665"/></g><g clip-path="url(#pb569cccab3)"><use style="fill:#6d009c;stroke:#000" x="179.116" y="123.586" xlink:href="#C0_0_73121df665"/></g><g clip-path="url(#pb569cccab3)"><use style="fill:#ffad00;stroke:#000" x="48.415" y="107.005" xlink:href="#C0_0_73121df665"/></g><g clip-path="url(#pb569cccab3)"><use style="fill:#009b13;stroke:#000" x="84.414" y="168.205" xlink:href="#C0_0_73121df665"/></g><g clip-path="url(#pb569cccab3)"><use style="fill:#009b13;stroke:#000" x="91.359" y="238.944" xlink:href="#C0_0_73121df665"/></g><g clip-path="url(#pb569cccab3)"><use style="fill:#e40000;stroke:#000" x="161.56" y="182.523" xlink:href="#C0_0_73121df665"/></g><g clip-path="url(#pb569cccab3)"><use style="stroke:#000" x="59.302" y="200.678" xlink:href="#C0_0_73121df665"/></g><g clip-path="url(#pb569cccab3)"><use style="fill:#002fdd;stroke:#000" x="198.549" y="146.305" xlink:href="#C0_0_73121df665"/></g><g clip-path="url(#pb569cccab3)"><use style="fill:#002fdd;stroke:#000" x="110.143" y="115.586" xlink:href="#C0_0_73121df665"/></g><g clip-path="url(#pb569cccab3)"><use style="fill:#002fdd;stroke:#000" x="199.027" y="142.678" xlink:href="#C0_0_73121df665"/></g><g clip-path="url(#pb569cccab3)"><use style="stroke:#000" x="47.27" y="165.379" xlink:href="#C0_0_73121df665"/></g><g clip-path="url(#pb569cccab3)"><use style="stroke:#000" x="54.432" y="194.281" xlink:href="#C0_0_73121df665"/></g><g clip-path="url(#pb569cccab3)"><use style="fill:#ccc;stroke:#000" x="205.145" y="135.097" xlink:href="#C0_0_73121df665"/></g></g><g id="matplotlib.axis_1"><g id="xtick_1"><g id="line2d_1"><defs><path id="m20c3236674" d="M 0 0 L 0 3.5" style="stroke:#000;stroke-width:.8"/></defs><g><use style="stroke:#000;stroke-width:.8" x="55.8" y="256.32" xlink:href="#m20c3236674"/></g></g><g id="text_1"><defs><path id="DejaVuSans-50" d="M 19.1875 8.296875 L 53.609375 8.296875 L 53.609375 0 L 7.328125 0 L 7.328125 8.296875 Q 12.9375 14.109375 22.625 23.890625 Q 32.328125 33.6875 34.8125 36.53125 Q 39.546875 41.84375 41.421875 45.53125 Q 43.3125 49.21875 43.3125 52.78125 Q 43.3125 58.59375 39.234375 62.25 Q 35.15625 65.921875 28.609375 65.921875 Q 23.96875 65.921875 18.8125 64.3125 Q 13.671875 62.703125 7.8125 59.421875 L 7.8125 69.390625 Q 13.765625 71.78125 18.9375 73 Q 24.125 74.21875 28.421875 74.21875 Q 39.75 74.21875 46.484375 68.546875 Q 53.21875 62.890625 53.21875 53.421875 Q 53.21875 48.921875 51.53125 44.890625 Q 49.859375 40.875 45.40625 35.40625 Q 44.1875 33.984375 37.640625 27.21875 Q 31.109375 20.453125 19.1875 8.296875 z"/><path id="DejaVuSans-46" d="M 10.6875 12.40625 L 21 12.40625 L 21 0 L 10.6875 0 z"/><path id="DejaVuSans-53" d="M 10.796875 72.90625 L 49.515625 72.90625 L 49.515625 64.59375 L 19.828125 64.59375 L 19.828125 46.734375 Q 21.96875 47.46875 24.109375 47.828125 Q 26.265625 48.1875 28.421875 48.1875 Q 40.625 48.1875 47.75 41.5 Q 54.890625 34.8125 54.890625 23.390625 Q 54.890625 11.625 47.5625 5.09375 Q 40.234375 -1.421875 26.90625 -1.421875 Q 22.3125 -1.421875 17.546875 -0.640625 Q 12.796875 0.140625 7.71875 1.703125 L 7.71875 11.625 Q 12.109375 9.234375 16.796875 8.0625 Q 21.484375 6.890625 26.703125 6.890625 Q 35.15625 6.890625 40.078125 11.328125 Q 45.015625 15.765625 45.015625 23.390625 Q 45.015625 31 40.078125 35.4375 Q 35.15625 39.890625 26.703125 39.890625 Q 22.75 39.890625 18.8125 39.015625 Q 14.890625 38.140625 10.796875 36.28125 z"/></defs><g transform="translate(47.84812 270.918437)scale(0.1 -0.1)"><use xlink:href="#DejaVuSans-50"/><use x="63.623" xlink:href="#DejaVuSans-46"/><use x="95.41" xlink:href="#DejaVuSans-53"/></g></g></g><g id="xtick_2"><g id="line2d_2"><g><use style="stroke:#000;stroke-width:.8" x="93.87" y="256.32" xlink:href="#m20c3236674"/></g></g><g id="text_2"><defs><path id="DejaVuSans-48" d="M 31.78125 66.40625 Q 24.171875 66.40625 20.328125 58.90625 Q 16.5 51.421875 16.5 36.375 Q 16.5 21.390625 20.328125 13.890625 Q 24.171875 6.390625 31.78125 6.390625 Q 39.453125 6.390625 43.28125 13.890625 Q 47.125 21.390625 47.125 36.375 Q 47.125 51.421875 43.28125 58.90625 Q 39.453125 66.40625 31.78125 66.40625 z M 31.78125 74.21875 Q 44.046875 74.21875 50.515625 64.515625 Q 56.984375 54.828125 56.984375 36.375 Q 56.984375 17.96875 50.515625 8.265625 Q 44.046875 -1.421875 31.78125 -1.421875 Q 19.53125 -1.421875 13.0625 8.265625 Q 6.59375 17.96875 6.59375 36.375 Q 6.59375 54.828125 13.0625 64.515625 Q 19.53125 74.21875 31.78125 74.21875 z"/></defs><g transform="translate(85.918445 270.918437)scale(0.1 -0.1)"><use xlink:href="#DejaVuSans-53"/><use x="63.623" xlink:href="#DejaVuSans-46"/><use x="95.41" xlink:href="#DejaVuSans-48"/></g></g></g><g id="xtick_3"><g id="line2d_3"><g><use style="stroke:#000;stroke-width:.8" x="131.94" y="256.32" xlink:href="#m20c3236674"/></g></g><g id="text_3"><defs><path id="DejaVuSans-55" d="M 8.203125 72.90625 L 55.078125 72.90625 L 55.078125 68.703125 L 28.609375 0 L 18.3125 0 L 43.21875 64.59375 L 8.203125 64.59375 z"/></defs><g transform="translate(123.988769 270.918437)scale(0.1 -0.1)"><use xlink:href="#DejaVuSans-55"/><use x="63.623" xlink:href="#DejaVuSans-46"/><use x="95.41" xlink:href="#DejaVuSans-53"/></g></g></g><g id="xtick_4"><g id="line2d_4"><g><use style="stroke:#000;stroke-width:.8" x="170.011" y="256.32" xlink:href="#m20c3236674"/></g></g><g id="text_4"><defs><path id="DejaVuSans-49" d="M 12.40625 8.296875 L 28.515625 8.296875 L 28.515625 63.921875 L 10.984375 60.40625 L 10.984375 69.390625 L 28.421875 72.90625 L 38.28125 72.90625 L 38.28125 8.296875 L 54.390625 8.296875 L 54.390625 0 L 12.40625 0 z"/></defs><g transform="translate(158.877844 270.918437)scale(0.1 -0.1)"><use xlink:href="#DejaVuSans-49"/><use x="63.623" xlink:href="#DejaVuSans-48"/><use x="127.246" xlink:href="#DejaVuSans-46"/><use x="159.033" xlink:href="#DejaVuSans-48"/></g></g></g><g id="xtick_5"><g id="line2d_5"><g><use style="stroke:#000;stroke-width:.8" x="208.081" y="256.32" xlink:href="#m20c3236674"/></g></g><g id="text_5"><g transform="translate(196.948168 270.918437)scale(0.1 -0.1)"><use xlink:href="#DejaVuSans-49"/><use x="63.623" xlink:href="#DejaVuSans-50"/><use x="127.246" xlink:href="#DejaVuSans-46"/><use x="159.033" xlink:href="#DejaVuSans-53"/></g></g></g></g><g id="matplotlib.axis_2"><g id="ytick_1"><g id="line2d_6"><defs><path id="m79652e1c8e" d="M 0 0 L -3.5 0" style="stroke:#000;stroke-width:.8"/></defs><g><use style="stroke:#000;stroke-width:.8" x="36" y="237.318" xlink:href="#m79652e1c8e"/></g></g><g id="text_6"><defs><path id="DejaVuSans-56" d="M 31.78125 34.625 Q 24.75 34.625 20.71875 30.859375 Q 16.703125 27.09375 16.703125 20.515625 Q 16.703125 13.921875 20.71875 10.15625 Q 24.75 6.390625 31.78125 6.390625 Q 38.8125 6.390625 42.859375 10.171875 Q 46.921875 13.96875 46.921875 20.515625 Q 46.921875 27.09375 42.890625 30.859375 Q 38.875 34.625 31.78125 34.625 z M 21.921875 38.8125 Q 15.578125 40.375 12.03125 44.71875 Q 8.5 49.078125 8.5 55.328125 Q 8.5 64.0625 14.71875 69.140625 Q 20.953125 74.21875 31.78125 74.21875 Q 42.671875 74.21875 48.875 69.140625 Q 55.078125 64.0625 55.078125 55.328125 Q 55.078125 49.078125 51.53125 44.71875 Q 48 40.375 41.703125 38.8125 Q 48.828125 37.15625 52.796875 32.3125 Q 56.78125 27.484375 56.78125 20.515625 Q 56.78125 9.90625 50.3125 4.234375 Q 43.84375 -1.421875 31.78125 -1.421875 Q 19.734375 -1.421875 13.25 4.234375 Q 6.78125 9.90625 6.78125 20.515625 Q 6.78125 27.484375 10.78125 32.3125 Q 14.796875 37.15625 21.921875 38.8125 z M 18.3125 54.390625 Q 18.3125 48.734375 21.84375 45.5625 Q 25.390625 42.390625 31.78125 42.390625 Q 38.140625 42.390625 41.71875 45.5625 Q 45.3125 48.734375 45.3125 54.390625 Q 45.3125 60.0625 41.71875 63.234375 Q 38.140625 66.40625 31.78125 66.40625 Q 25.390625 66.40625 21.84375 63.234375 Q 18.3125 60.0625 18.3125 54.390625 z"/></defs><g transform="translate(22.6375 241.116732)scale(0.1 -0.1)"><use xlink:href="#DejaVuSans-56"/></g></g></g><g id="ytick_2"><g id="line2d_7"><g><use style="stroke:#000;stroke-width:.8" x="36" y="188.264" xlink:href="#m79652e1c8e"/></g></g><g id="text_7"><g transform="translate(16.275 192.063012)scale(0.1 -0.1)"><use xlink:href="#DejaVuSans-49"/><use x="63.623" xlink:href="#DejaVuSans-48"/></g></g></g><g id="ytick_3"><g id="line2d_8"><g><use style="stroke:#000;stroke-width:.8" x="36" y="139.21" xlink:href="#m79652e1c8e"/></g></g><g id="text_8"><g transform="translate(16.275 143.009292)scale(0.1 -0.1)"><use xlink:href="#DejaVuSans-49"/><use x="63.623" xlink:href="#DejaVuSans-50"/></g></g></g><g id="ytick_4"><g id="line2d_9"><g><use style="stroke:#000;stroke-width:.8" x="36" y="90.156" xlink:href="#m79652e1c8e"/></g></g><g id="text_9"><defs><path id="DejaVuSans-52" d="M 37.796875 64.3125 L 12.890625 25.390625 L 37.796875 25.390625 z M 35.203125 72.90625 L 47.609375 72.90625 L 47.609375 25.390625 L 58.015625 25.390625 L 58.015625 17.1875 L 47.609375 17.1875 L 47.609375 0 L 37.796875 0 L 37.796875 17.1875 L 4.890625 17.1875 L 4.890625 26.703125 z"/></defs><g transform="translate(16.275 93.955573)scale(0.1 -0.1)"><use xlink:href="#DejaVuSans-49"/><use x="63.623" xlink:href="#DejaVuSans-52"/></g></g></g><g id="ytick_5"><g id="line2d_10"><g><use style="stroke:#000;stroke-width:.8" x="36" y="41.103" xlink:href="#m79652e1c8e"/></g></g><g id="text_10"><defs><path id="DejaVuSans-54" d="M 33.015625 40.375 Q 26.375 40.375 22.484375 35.828125 Q 18.609375 31.296875 18.609375 23.390625 Q 18.609375 15.53125 22.484375 10.953125 Q 26.375 6.390625 33.015625 6.390625 Q 39.65625 6.390625 43.53125 10.953125 Q 47.40625 15.53125 47.40625 23.390625 Q 47.40625 31.296875 43.53125 35.828125 Q 39.65625 40.375 33.015625 40.375 z M 52.59375 71.296875 L 52.59375 62.3125 Q 48.875 64.0625 45.09375 64.984375 Q 41.3125 65.921875 37.59375 65.921875 Q 27.828125 65.921875 22.671875 59.328125 Q 17.53125 52.734375 16.796875 39.40625 Q 19.671875 43.65625 24.015625 45.921875 Q 28.375 48.1875 33.59375 48.1875 Q 44.578125 48.1875 50.953125 41.515625 Q 57.328125 34.859375 57.328125 23.390625 Q 57.328125 12.15625 50.6875 5.359375 Q 44.046875 -1.421875 33.015625 -1.421875 Q 20.359375 -1.421875 13.671875 8.265625 Q 6.984375 17.96875 6.984375 36.375 Q 6.984375 53.65625 15.1875 63.9375 Q 23.390625 74.21875 37.203125 74.21875 Q 40.921875 74.21875 44.703125 73.484375 Q 48.484375 72.75 52.59375 71.296875 z"/></defs><g transform="translate(16.275 44.901853)scale(0.1 -0.1)"><use xlink:href="#DejaVuSans-49"/><use x="63.623" xlink:href="#DejaVuSans-54"/></g></g></g></g><g id="patch_3"><path d="M 36 256.32 L 36 34.56" style="fill:none;stroke:#000;stroke-linecap:square;stroke-linejoin:miter;stroke-width:.8"/></g><g id="patch_4"><path d="M 214.56 256.32 L 214.56 34.56" style="fill:none;stroke:#000;stroke-linecap:square;stroke-linejoin:miter;stroke-width:.8"/></g><g id="patch_5"><path d="M 36 256.32 L 214.56 256.32" style="fill:none;stroke:#000;stroke-linecap:square;stroke-linejoin:miter;stroke-width:.8"/></g><g id="patch_6"><path d="M 36 34.56 L 214.56 34.56" style="fill:none;stroke:#000;stroke-linecap:square;stroke-linejoin:miter;stroke-width:.8"/></g></g><g id="axes_2"><g id="patch_7"><path d="M 225.72 256.32 L 225.72 234.144 L 225.72 56.736 L 225.72 34.56 L 236.808 34.56 L 236.808 56.736 L 236.808 234.144 L 236.808 256.32 z" clip-path="url(#p4e7dfb33de)" style="fill:#fff;stroke:#fff;stroke-linejoin:miter;stroke-width:.01"/></g><g id="QuadMesh_1"><path d="M 225.72 256.32 L 236.808 256.32 L 236.808 234.144 L 225.72 234.144 L 225.72 256.32" clip-path="url(#p4e7dfb33de)"/><path d="M 225.72 234.144 L 236.808 234.144 L 236.808 211.968 L 225.72 211.968 L 225.72 234.144" clip-path="url(#p4e7dfb33de)" style="fill:#6d009c"/><path d="M 225.72 211.968 L 236.808 211.968 L 236.808 189.792 L 225.72 189.792 L 225.72 211.968" clip-path="url(#p4e7dfb33de)" style="fill:#002fdd"/><path d="M 225.72 189.792 L 236.808 189.792 L 236.808 167.616 L 225.72 167.616 L 225.72 189.792" clip-path="url(#p4e7dfb33de)" style="fill:#00a4bb"/><path d="M 225.72 167.616 L 236.808 167.616 L 236.808 145.44 L 225.72 145.44 L 225.72 167.616" clip-path="url(#p4e7dfb33de)" style="fill:#009b13"/><path d="M 225.72 145.44 L 236.808 145.44 L 236.808 123.264 L 225.72 123.264 L 225.72 145.44" clip-path="url(#p4e7dfb33de)" style="fill:#00e200"/><path d="M 225.72 123.264 L 236.808 123.264 L 236.808 101.088 L 225.72 101.088 L 225.72 123.264" clip-path="url(#p4e7dfb33de)" style="fill:#ccf900"/><path d="M 225.72 101.088 L 236.808 101.088 L 236.808 78.912 L 225.72 78.912 L 225.72 101.088" clip-path="url(#p4e7dfb33de)" style="fill:#ffad00"/><path d="M 225.72 78.912 L 236.808 78.912 L 236.808 56.736 L 225.72 56.736 L 225.72 78.912" clip-path="url(#p4e7dfb33de)" style="fill:#e40000"/><path d="M 225.72 56.736 L 236.808 56.736 L 236.808 34.56 L 225.72 34.56 L 225.72 56.736" clip-path="url(#p4e7dfb33de)" style="fill:#ccc"/></g><g id="matplotlib.axis_4"><g id="ytick_6"><g id="line2d_11"><defs><path id="m9c280772d1" d="M 0 0 L 3.5 0" style="stroke:#000;stroke-width:.8"/></defs><g><use style="stroke:#000;stroke-width:.8" x="236.808" y="245.232" xlink:href="#m9c280772d1"/></g></g><g id="text_11"><g transform="translate(243.808 249.031219)scale(0.1 -0.1)"><use xlink:href="#DejaVuSans-48"/></g></g></g><g id="ytick_7"><g id="line2d_12"><g><use style="stroke:#000;stroke-width:.8" x="236.808" y="223.056" xlink:href="#m9c280772d1"/></g></g><g id="text_12"><g transform="translate(243.808 226.855219)scale(0.1 -0.1)"><use xlink:href="#DejaVuSans-49"/></g></g></g><g id="ytick_8"><g id="line2d_13"><g><use style="stroke:#000;stroke-width:.8" x="236.808" y="200.88" xlink:href="#m9c280772d1"/></g></g><g id="text_13"><g transform="translate(243.808 204.679219)scale(0.1 -0.1)"><use xlink:href="#DejaVuSans-50"/></g></g></g><g id="ytick_9"><g id="line2d_14"><g><use style="stroke:#000;stroke-width:.8" x="236.808" y="178.704" xlink:href="#m9c280772d1"/></g></g><g id="text_14"><defs><path id="DejaVuSans-51" d="M 40.578125 39.3125 Q 47.65625 37.796875 51.625 33 Q 55.609375 28.21875 55.609375 21.1875 Q 55.609375 10.40625 48.1875 4.484375 Q 40.765625 -1.421875 27.09375 -1.421875 Q 22.515625 -1.421875 17.65625 -0.515625 Q 12.796875 0.390625 7.625 2.203125 L 7.625 11.71875 Q 11.71875 9.328125 16.59375 8.109375 Q 21.484375 6.890625 26.8125 6.890625 Q 36.078125 6.890625 40.9375 10.546875 Q 45.796875 14.203125 45.796875 21.1875 Q 45.796875 27.640625 41.28125 31.265625 Q 36.765625 34.90625 28.71875 34.90625 L 20.21875 34.90625 L 20.21875 43.015625 L 29.109375 43.015625 Q 36.375 43.015625 40.234375 45.921875 Q 44.09375 48.828125 44.09375 54.296875 Q 44.09375 59.90625 40.109375 62.90625 Q 36.140625 65.921875 28.71875 65.921875 Q 24.65625 65.921875 20.015625 65.03125 Q 15.375 64.15625 9.8125 62.3125 L 9.8125 71.09375 Q 15.4375 72.65625 20.34375 73.4375 Q 25.25 74.21875 29.59375 74.21875 Q 40.828125 74.21875 47.359375 69.109375 Q 53.90625 64.015625 53.90625 55.328125 Q 53.90625 49.265625 50.4375 45.09375 Q 46.96875 40.921875 40.578125 39.3125 z"/></defs><g transform="translate(243.808 182.503219)scale(0.1 -0.1)"><use xlink:href="#DejaVuSans-51"/></g></g></g><g id="ytick_10"><g id="line2d_15"><g><use style="stroke:#000;stroke-width:.8" x="236.808" y="156.528" xlink:href="#m9c280772d1"/></g></g><g id="text_15"><g transform="translate(243.808 160.327219)scale(0.1 -0.1)"><use xlink:href="#DejaVuSans-52"/></g></g></g><g id="ytick_11"><g id="line2d_16"><g><use style="stroke:#000;stroke-width:.8" x="236.808" y="134.352" xlink:href="#m9c280772d1"/></g></g><g id="text_16"><g transform="translate(243.808 138.151219)scale(0.1 -0.1)"><use xlink:href="#DejaVuSans-53"/></g></g></g><g id="ytick_12"><g id="line2d_17"><g><use style="stroke:#000;stroke-width:.8" x="236.808" y="112.176" xlink:href="#m9c280772d1"/></g></g><g id="text_17"><g transform="translate(243.808 115.975219)scale(0.1 -0.1)"><use xlink:href="#DejaVuSans-54"/></g></g></g><g id="ytick_13"><g id="line2d_18"><g><use style="stroke:#000;stroke-width:.8" x="236.808" y="90" xlink:href="#m9c280772d1"/></g></g><g id="text_18"><g transform="translate(243.808 93.799219)scale(0.1 -0.1)"><use xlink:href="#DejaVuSans-55"/></g></g></g><g id="ytick_14"><g id="line2d_19"><g><use style="stroke:#000;stroke-width:.8" x="236.808" y="67.824" xlink:href="#m9c280772d1"/></g></g><g id="text_19"><g transform="translate(243.808 71.623219)scale(0.1 -0.1)"><use xlink:href="#DejaVuSans-56"/></g></g></g><g id="ytick_15"><g id="line2d_20"><g><use style="stroke:#000;stroke-width:.8" x="236.808" y="45.648" xlink:href="#m9c280772d1"/></g></g><g id="text_20"><defs><path id="DejaVuSans-57" d="M 10.984375 1.515625 L 10.984375 10.5 Q 14.703125 8.734375 18.5 7.8125 Q 22.3125 6.890625 25.984375 6.890625 Q 35.75 6.890625 40.890625 13.453125 Q 46.046875 20.015625 46.78125 33.40625 Q 43.953125 29.203125 39.59375 26.953125 Q 35.25 24.703125 29.984375 24.703125 Q 19.046875 24.703125 12.671875 31.3125 Q 6.296875 37.9375 6.296875 49.421875 Q 6.296875 60.640625 12.9375 67.421875 Q 19.578125 74.21875 30.609375 74.21875 Q 43.265625 74.21875 49.921875 64.515625 Q 56.59375 54.828125 56.59375 36.375 Q 56.59375 19.140625 48.40625 8.859375 Q 40.234375 -1.421875 26.421875 -1.421875 Q 22.703125 -1.421875 18.890625 -0.6875 Q 15.09375 0.046875 10.984375 1.515625 z M 30.609375 32.421875 Q 37.25 32.421875 41.125 36.953125 Q 45.015625 41.5 45.015625 49.421875 Q 45.015625 57.28125 41.125 61.84375 Q 37.25 66.40625 30.609375 66.40625 Q 23.96875 66.40625 20.09375 61.84375 Q 16.21875 57.28125 16.21875 49.421875 Q 16.21875 41.5 20.09375 36.953125 Q 23.96875 32.421875 30.609375 32.421875 z"/></defs><g transform="translate(243.808 49.447219)scale(0.1 -0.1)"><use xlink:href="#DejaVuSans-57"/></g></g></g></g><g id="patch_8"><path d="M 225.72 256.32 L 225.72 234.144 L 225.72 56.736 L 225.72 34.56 L 236.808 34.56 L 236.808 56.736 L 236.808 234.144 L 236.808 256.32 z" style="fill:none;stroke:#000;stroke-linejoin:miter;stroke-width:.8"/></g></g></g><defs><clipPath id="pb569cccab3"><rect width="178.56" height="221.76" x="36" y="34.56"/></clipPath><clipPath id="p4e7dfb33de"><rect width="11.088" height="221.76" x="225.72" y="34.56"/></clipPath></defs></svg>